# Blender 4.3.2
# www.blender.org
mtllib Bone_Collision_Coarse1.mtl
o Bone_Collision_Coarse1
v -0.017970 -0.002515 0.030722
v -0.018804 -0.002291 0.029940
v -0.018092 -0.000256 0.030173
v -0.016428 -0.011890 0.032123
v -0.017150 -0.012225 0.030450
v -0.016579 -0.009734 0.032300
v -0.016826 -0.018013 0.029249
v -0.015696 -0.015940 0.031421
v -0.016026 -0.014266 0.031707
v -0.017293 -0.008708 0.030726
v -0.016374 -0.007997 0.032068
v -0.017955 -0.006690 0.028736
v -0.016324 -0.006287 0.030354
v -0.015829 -0.006536 0.031506
v -0.016573 -0.004888 0.029708
v -0.017005 -0.002545 0.031077
v -0.015809 -0.003524 0.030237
v -0.016717 -0.000312 0.031225
v -0.015784 -0.001426 0.031483
v -0.016853 0.001418 0.030154
v -0.016238 0.000386 0.030829
v -0.015209 -0.019159 0.030840
v -0.014774 -0.019307 0.030440
v -0.015469 -0.018464 0.031160
v -0.014782 -0.005879 0.031042
v -0.014542 -0.005459 0.029943
v -0.013647 -0.005422 0.030343
v -0.014571 -0.001432 0.031058
v -0.015369 0.000270 0.031254
v -0.015221 -0.000035 0.029728
v -0.014277 -0.000244 0.030306
v -0.014031 -0.000301 0.030349
v -0.025254 -0.007676 0.005743
v -0.024918 -0.004068 0.006778
v -0.025182 -0.014949 0.004308
v -0.025200 -0.011256 0.005088
v -0.024925 -0.011025 0.004947
v -0.023398 -0.009082 0.015614
v -0.024358 -0.003799 0.012602
v -0.023842 -0.002930 0.013098
v -0.022747 -0.002937 0.014905
v -0.023212 -0.001186 0.013525
v -0.023420 -0.000403 0.015482
v -0.023819 0.002867 0.013505
v -0.022912 0.003938 0.014408
v -0.023531 -0.016172 0.012976
v -0.024593 -0.012470 0.009861
v -0.023481 -0.000557 0.012859
v -0.023172 -0.001820 0.011797
v -0.024030 0.003010 0.012044
v -0.023144 0.004498 0.013463
v -0.022985 0.004808 0.012119
v -0.022755 0.005017 0.013030
v -0.024615 -0.006052 0.012599
v -0.024896 -0.003952 0.008846
v -0.023758 -0.002062 0.011816
v -0.023499 -0.000771 0.008771
v -0.023381 -0.001248 0.010580
v -0.022592 -0.000841 0.009687
v -0.023938 0.000379 0.011812
v -0.023707 0.002193 0.011026
v -0.023475 0.000476 0.010493
v -0.022299 0.001822 0.009678
v -0.022698 0.003536 0.010477
v -0.025141 -0.014513 0.006226
v -0.024212 -0.015767 0.008020
v -0.024347 -0.015692 0.010104
v -0.024112 -0.001325 0.007942
v -0.024554 -0.015268 0.004561
v -0.024405 -0.002376 0.006934
v -0.023049 -0.000940 0.006915
v -0.022590 -0.000315 0.007432
v -0.024646 -0.004635 0.006136
v -0.023306 -0.002149 0.006481
v -0.022139 -0.015117 0.004028
v -0.021304 -0.002768 0.023510
v -0.022229 -0.000205 0.022468
v -0.021823 0.001549 0.022956
v -0.021220 0.002178 0.022910
v -0.021318 -0.010959 0.021895
v -0.021573 -0.006023 0.022389
v -0.022116 -0.004717 0.020762
v -0.021426 -0.004137 0.020951
v -0.021914 -0.002620 0.021411
v -0.022227 0.000833 0.020556
v -0.021813 0.002081 0.020985
v -0.021375 0.002237 0.021441
v -0.021261 0.002619 0.020804
v -0.022129 -0.013502 0.019321
v -0.022483 -0.008230 0.020178
v -0.022075 -0.002029 0.020267
v -0.022006 -0.003691 0.019663
v -0.021854 -0.001943 0.019173
v -0.021879 0.001741 0.019378
v -0.021311 -0.017285 0.019856
v -0.022414 -0.016838 0.016218
v -0.021981 -0.016964 0.015452
v -0.023204 -0.005327 0.016336
v -0.022613 -0.003603 0.016484
v -0.021643 -0.003226 0.018369
v -0.020458 -0.002570 0.016511
v -0.021432 -0.001567 0.018538
v -0.020772 0.000672 0.018140
v -0.022814 -0.016206 0.016312
v -0.022000 -0.002824 0.015518
v -0.022420 -0.000846 0.016607
v -0.022954 -0.001580 0.015442
v -0.021181 -0.001714 0.016247
v -0.021226 -0.000242 0.017076
v -0.022642 0.001605 0.016626
v -0.023034 0.002607 0.015095
v -0.021617 0.003812 0.016355
v -0.021350 0.002940 0.017199
v -0.023082 -0.002636 0.013899
v -0.020992 0.002764 0.013853
v -0.022551 0.003352 0.014748
v -0.021714 0.003069 0.014473
v -0.021565 0.003460 0.013863
v -0.021698 0.003811 0.015316
v -0.022814 -0.002370 0.013157
v -0.022545 -0.002166 0.012127
v -0.022286 -0.002199 0.012539
v -0.022067 0.004907 0.012623
v -0.022377 0.005178 0.012254
v -0.020538 -0.016245 0.010575
v -0.021822 0.004604 0.010891
v -0.021862 -0.000705 0.009268
v -0.020082 -0.000679 0.008869
v -0.022304 -0.000209 0.008186
v -0.021613 0.000804 0.009404
v -0.020582 0.003406 0.009446
v -0.016752 -0.015182 0.004142
v -0.020260 -0.006156 0.005987
v -0.020057 -0.017938 0.023209
v -0.020136 -0.012737 0.024307
v -0.019810 -0.006480 0.025178
v -0.020350 -0.002489 0.024657
v -0.020850 -0.001291 0.024703
v -0.020025 0.001216 0.025202
v -0.019178 0.000293 0.025933
v -0.020701 -0.017129 0.022537
v -0.020058 -0.009265 0.024116
v -0.020325 -0.004852 0.023404
v -0.019352 -0.004736 0.023538
v -0.019916 -0.003644 0.024107
v -0.020962 0.000680 0.024419
v -0.021019 0.002076 0.023727
v -0.020501 0.002519 0.023233
v -0.019907 0.002174 0.023879
v -0.019340 0.002102 0.023083
v -0.021162 -0.004838 0.022499
v -0.019683 0.002284 0.022046
v -0.020159 0.001971 0.021318
v -0.019789 0.001575 0.021303
v -0.019469 0.002350 0.020827
v -0.020516 -0.017710 0.020152
v -0.020947 0.002279 0.018717
v -0.020412 0.002702 0.020395
v -0.020075 -0.002871 0.017392
v -0.020280 -0.001332 0.017879
v -0.020223 0.002347 0.017644
v -0.020121 0.002612 0.018788
v -0.019888 0.002346 0.017404
v -0.019114 0.002445 0.018929
v -0.020788 -0.002626 0.015483
v -0.019569 -0.002150 0.015240
v -0.020665 0.001159 0.017655
v -0.019407 -0.001184 0.016317
v -0.019735 0.002012 0.016124
v -0.020121 0.003228 0.015827
v -0.020752 0.003909 0.016668
v -0.019611 -0.017036 0.015595
v -0.019458 -0.002484 0.015262
v -0.020526 0.003134 0.014630
v -0.020049 0.002477 0.013621
v -0.019893 0.002662 0.014764
v -0.019357 0.002124 0.015176
v -0.019304 0.002720 0.014644
v -0.020285 0.002999 0.012776
v -0.019804 0.002593 0.012940
v -0.019181 0.003015 0.012749
v -0.020796 0.003408 0.013188
v -0.020927 0.003756 0.011652
v -0.020816 0.003300 0.012322
v -0.020654 0.003688 0.011922
v -0.019707 0.003845 0.012533
v -0.021016 0.004395 0.010570
v -0.019606 0.004911 0.010650
v -0.019067 0.005022 0.011502
v -0.020286 -0.000499 0.009058
v -0.019893 0.000722 0.009231
v -0.019945 -0.000353 0.008074
v -0.018085 -0.001024 0.007193
v -0.018659 -0.007759 0.028313
v -0.018734 -0.004372 0.027795
v -0.018398 -0.004947 0.028807
v -0.019171 -0.002011 0.028863
v -0.018645 -0.000177 0.029047
v -0.017917 0.001102 0.027207
v -0.017704 0.001002 0.028089
v -0.018408 -0.018505 0.025864
v -0.018460 -0.018233 0.026817
v -0.018586 -0.014740 0.027243
v -0.019185 -0.010429 0.027481
v -0.018641 -0.006097 0.027141
v -0.018240 -0.003872 0.026733
v -0.018491 -0.002577 0.027132
v -0.017234 -0.002171 0.026103
v -0.018866 -0.001335 0.027449
v -0.017805 -0.000474 0.026184
v -0.017632 0.001401 0.027663
v -0.019620 -0.005181 0.024466
v -0.018285 -0.005259 0.026287
v -0.017789 -0.005068 0.025966
v -0.017257 -0.004484 0.024532
v -0.018546 -0.003100 0.024461
v -0.017214 -0.003421 0.026103
v -0.018101 -0.001154 0.025665
v -0.018239 0.001405 0.025993
v -0.017808 0.000814 0.026093
v -0.017400 0.001540 0.025778
v -0.018695 -0.004735 0.023349
v -0.017808 -0.004730 0.023338
v -0.017365 -0.004557 0.023075
v -0.017291 -0.003048 0.023871
v -0.018528 0.001886 0.022889
v -0.017966 0.001667 0.023484
v -0.018076 0.001432 0.022830
v -0.017609 0.001320 0.023032
v -0.017604 0.001080 0.022218
v -0.019069 0.001555 0.021338
v -0.018959 0.001627 0.020922
v -0.018634 0.001454 0.021728
v -0.018525 0.001944 0.021297
v -0.018801 0.001997 0.020192
v -0.017653 0.001968 0.020006
v -0.018492 -0.002639 0.017107
v -0.018130 -0.000866 0.017619
v -0.017655 0.000803 0.017693
v -0.019069 0.002262 0.017404
v -0.017083 0.002173 0.018270
v -0.017475 0.002484 0.019021
v -0.017306 -0.002405 0.016348
v -0.017388 0.000555 0.016299
v -0.017446 -0.001271 0.014558
v -0.018687 0.000850 0.017447
v -0.018776 0.002322 0.016357
v -0.018909 0.001810 0.017601
v -0.018162 0.002302 0.016756
v -0.018019 0.002662 0.015913
v -0.017423 0.003519 0.015565
v -0.018480 -0.002357 0.014629
v -0.018662 -0.002109 0.014775
v -0.018160 -0.002298 0.014291
v -0.017597 -0.002152 0.013985
v -0.019352 0.003366 0.013777
v -0.018881 0.001983 0.015372
v -0.018410 0.003472 0.015423
v -0.018095 0.003937 0.013878
v -0.018445 0.003915 0.014657
v -0.017476 0.004058 0.015122
v -0.018562 0.003192 0.012754
v -0.017706 0.004090 0.011949
v -0.018288 0.004712 0.011465
v -0.017834 0.003795 0.012665
v -0.018911 -0.001298 0.010266
v -0.018478 -0.001524 0.011065
v -0.018612 -0.001570 0.010607
v -0.017897 -0.000214 0.011166
v -0.019085 0.004340 0.010118
v -0.019308 -0.000858 0.009621
v -0.018905 0.000470 0.009777
v -0.019036 0.002613 0.009494
v -0.018066 0.003540 0.010347
v -0.016265 -0.005766 0.005841
v -0.017591 -0.002461 0.006398
v -0.016148 -0.014718 0.003965
v -0.016875 -0.018759 0.028336
v -0.016446 -0.006081 0.029363
v -0.015783 -0.005914 0.029168
v -0.017387 -0.005016 0.029576
v -0.015348 -0.004517 0.029391
v -0.017467 0.001257 0.029124
v -0.016145 0.001296 0.028928
v -0.015201 0.000374 0.029101
v -0.016450 0.001505 0.029697
v -0.016746 0.000634 0.028077
v -0.016805 0.000929 0.026729
v -0.015266 0.000357 0.028075
v -0.016078 0.000315 0.027535
v -0.016375 -0.004861 0.025382
v -0.016293 -0.004886 0.025158
v -0.015003 -0.003486 0.025384
v -0.016219 -0.000759 0.025244
v -0.016292 -0.000728 0.025472
v -0.016454 0.000655 0.026135
v -0.016573 0.000509 0.025511
v -0.016738 0.001189 0.025121
v -0.015702 0.001286 0.025102
v -0.017742 0.001786 0.024210
v -0.017045 0.001109 0.024414
v -0.016169 -0.004329 0.022876
v -0.015517 -0.001817 0.024150
v -0.015881 -0.003544 0.023015
v -0.017070 0.001408 0.023813
v -0.017187 0.001692 0.022880
v -0.016446 0.001508 0.024407
v -0.015622 0.002173 0.022940
v -0.017332 0.001056 0.021946
v -0.016389 0.002117 0.021531
v -0.016648 0.002187 0.021176
v -0.016883 0.001340 0.022019
v -0.016302 0.001660 0.021732
v -0.016020 0.002077 0.022217
v -0.015947 0.002516 0.020755
v -0.015872 0.002998 0.019782
v -0.016293 0.002969 0.019162
v -0.017042 -0.002735 0.017650
v -0.015507 -0.002998 0.017829
v -0.016395 -0.003154 0.018602
v -0.016522 -0.001268 0.018218
v -0.016021 0.001252 0.018442
v -0.017247 0.001634 0.016407
v -0.017065 0.003330 0.015825
v -0.016909 -0.000656 0.014341
v -0.016077 -0.002560 0.013389
v -0.016363 0.001281 0.013889
v -0.016508 0.002865 0.015032
v -0.017456 0.003819 0.013703
v -0.017205 -0.002040 0.013261
v -0.016753 -0.000513 0.013029
v -0.017113 -0.001887 0.012361
v -0.017072 0.000611 0.011730
v -0.016946 0.003151 0.013129
v -0.017092 0.002352 0.011681
v -0.017518 0.003541 0.012222
v -0.017633 -0.001625 0.011505
v -0.017782 -0.000919 0.008924
v -0.016817 -0.001475 0.008294
v -0.016322 -0.003278 0.006794
v -0.015853 -0.014865 0.004243
v -0.016989 -0.002238 0.006634
v -0.015889 -0.010236 0.004909
v -0.013606 -0.019249 0.029668
v -0.014893 -0.005684 0.028787
v -0.014201 -0.005307 0.028332
v -0.014565 -0.003034 0.029872
v -0.013707 -0.004282 0.027928
v -0.014703 0.000007 0.029497
v -0.014086 0.001246 0.029009
v -0.014399 0.001189 0.028678
v -0.013919 0.000393 0.029586
v -0.014781 0.000545 0.026335
v -0.015354 0.000068 0.027386
v -0.013833 0.000578 0.027837
v -0.014827 0.000038 0.027268
v -0.013949 0.000536 0.026722
v -0.015067 -0.004664 0.024979
v -0.013816 -0.004822 0.025368
v -0.015041 -0.002303 0.025550
v -0.015478 -0.000433 0.025400
v -0.015012 0.000664 0.024800
v -0.013967 -0.000726 0.025763
v -0.014888 0.002201 0.024191
v -0.014893 -0.002741 0.022355
v -0.014656 -0.000664 0.023961
v -0.014193 -0.000519 0.022663
v -0.014241 0.000818 0.023568
v -0.015051 0.002391 0.023174
v -0.014591 0.002046 0.023454
v -0.015570 -0.004186 0.022336
v -0.015201 -0.004214 0.021843
v -0.015087 -0.003996 0.021249
v -0.014309 0.000118 0.021175
v -0.015314 0.001760 0.021300
v -0.015251 0.002322 0.020558
v -0.014723 0.001366 0.021198
v -0.015959 -0.003429 0.019141
v -0.015737 -0.001860 0.019131
v -0.015273 -0.003730 0.020193
v -0.014808 -0.002454 0.021093
v -0.015102 -0.000184 0.019469
v -0.015028 0.001460 0.019825
v -0.012449 -0.017580 0.019972
v -0.015249 -0.003994 0.013171
v -0.014933 -0.016157 0.011154
v -0.014815 -0.015498 0.009435
v -0.015774 -0.008054 0.005403
v -0.012259 -0.019044 0.028783
v -0.013627 -0.005311 0.028148
v -0.012636 -0.005199 0.029539
v -0.012599 -0.005226 0.026827
v -0.013321 -0.001992 0.029492
v -0.013456 -0.003088 0.028237
v -0.012920 -0.001156 0.029261
v -0.013331 0.000634 0.029134
v -0.011355 -0.018897 0.027953
v -0.013396 -0.005039 0.026745
v -0.013592 -0.003537 0.026690
v -0.012908 -0.001633 0.027450
v -0.012979 -0.000285 0.027344
v -0.014023 -0.003336 0.025854
v -0.013348 -0.001016 0.026327
v -0.014204 -0.004655 0.021654
v -0.013667 -0.005305 0.021129
v -0.013699 -0.006295 0.018622
v -0.012075 -0.006906 0.024305
v -0.012549 -0.015276 0.017565
v -0.012030 -0.017253 0.019605
v -0.014852 -0.003671 0.016630
v -0.013276 -0.016910 0.016310
v -0.013905 -0.015335 0.012705
v -0.014274 -0.011291 0.013186
v -0.013550 -0.016256 0.014304
v -0.012025 -0.005257 0.029212
v -0.011124 -0.006020 0.028347
v -0.010340 -0.018759 0.027322
v -0.012094 -0.005837 0.025976
v -0.010443 -0.018076 0.024297
v -0.009938 -0.018686 0.027011
v -0.011528 -0.016972 0.020722
v -0.011686 -0.008740 0.024019
v -0.011569 -0.014244 0.022177
v -0.009185 -0.018352 0.026594
v -0.009029 -0.017693 0.026455
v -0.009637 -0.013062 0.027062
v -0.010018 -0.010670 0.027437
v -0.010367 -0.008400 0.027744
v -0.010620 -0.007127 0.028003
v -0.009962 -0.017589 0.024631
v -0.019001 0.001463 0.017703
vn -0.8387 -0.0595 0.5413
vn -0.5486 -0.1722 0.8182
vn -0.3536 0.2766 0.8936
vn -0.8673 0.0411 0.4961
vn -0.9026 -0.1366 0.4083
vn -0.9126 -0.0088 0.4087
vn -0.8076 0.2849 0.5164
vn -0.7984 -0.3072 0.5179
vn -0.5898 -0.7637 0.2624
vn -0.8089 -0.3219 0.4920
vn -0.7903 0.1865 0.5837
vn -0.8675 0.1786 0.4643
vn -0.3296 -0.3768 0.8657
vn 0.0727 -0.3225 0.9438
vn 0.3121 -0.5102 0.8014
vn -0.1278 -0.3258 0.9367
vn 0.0869 -0.1732 0.9811
vn 0.1724 0.7760 0.6068
vn 0.2749 0.7247 0.6319
vn -0.8377 -0.1584 0.5226
vn -0.2297 0.9663 0.1166
vn -0.4606 0.8340 0.3036
vn -0.3135 0.9030 0.2937
vn 0.5322 -0.1953 0.8238
vn 0.5871 0.5280 0.6136
vn 0.7805 -0.3911 0.4877
vn 0.5264 -0.5649 0.6355
vn 0.9388 -0.0261 0.3436
vn -0.8515 0.1286 -0.5083
vn -0.9696 -0.2228 0.1007
vn -0.9824 0.1712 0.0742
vn -0.8888 0.0816 -0.4511
vn -0.2836 0.1859 -0.9408
vn -0.6791 -0.3869 -0.6237
vn -0.9274 -0.2973 0.2272
vn -0.9478 -0.0807 0.3084
vn -0.9801 -0.0491 0.1924
vn -0.9757 0.0094 0.2190
vn -0.9487 0.1387 0.2843
vn -0.9382 0.2440 0.2454
vn -0.7929 0.5469 0.2687
vn -0.8022 0.4823 0.3519
vn -0.7790 0.3605 0.5131
vn -0.9393 -0.3272 -0.1037
vn -0.9016 0.3637 0.2342
vn -0.7854 -0.3841 0.4854
vn -0.9212 -0.1628 0.3533
vn -0.7340 0.1442 0.6637
vn -0.8074 0.3701 0.4596
vn -0.2077 0.7110 0.6718
vn -0.9409 0.1978 0.2750
vn -0.6788 0.6683 0.3043
vn -0.6890 0.7091 -0.1497
vn -0.9032 -0.4260 0.0521
vn -0.7151 0.4002 0.5731
vn -0.6703 0.6851 -0.2853
vn -0.5294 0.6960 0.4852
vn -0.1890 0.8738 0.4481
vn -0.4494 -0.8894 -0.0835
vn -0.7166 -0.6905 0.0986
vn -0.8467 -0.5192 0.1163
vn -0.9108 0.4116 -0.0323
vn -0.5383 0.8298 0.1470
vn -0.8380 0.1461 -0.5257
vn -0.9845 -0.1566 -0.0785
vn -0.9523 0.2616 -0.1571
vn -0.4626 0.1158 -0.8790
vn -0.7938 0.0069 -0.6082
vn -0.5087 0.7920 -0.3377
vn -0.5712 0.4346 -0.6963
vn -0.7757 0.3977 -0.4900
vn -0.8078 0.5789 -0.1112
vn -0.3238 0.6070 -0.7258
vn -0.1898 0.2927 -0.9372
vn -0.2197 0.8822 -0.4164
vn -0.0354 -0.5054 -0.8621
vn 0.1226 -0.7919 -0.5982
vn -0.1953 -0.9156 -0.3516
vn -0.4532 0.2340 -0.8602
vn -0.9331 0.2312 -0.2755
vn -0.8689 0.3391 0.3605
vn -0.8510 0.0153 0.5249
vn -0.9376 0.1568 0.3102
vn -0.9667 -0.1979 0.1620
vn -0.8165 -0.2815 0.5041
vn -0.9963 -0.0528 -0.0685
vn -0.9653 -0.0070 0.2611
vn -0.8645 0.3729 0.3372
vn -0.8106 0.5831 0.0537
vn -0.2059 0.9586 0.1967
vn -0.5107 0.8536 0.1030
vn -0.2962 0.9374 0.1832
vn -0.9377 0.0467 -0.3443
vn -0.9732 0.1813 0.1412
vn -0.4827 0.6426 -0.5950
vn -0.8256 0.4113 -0.3862
vn -0.9653 -0.0617 0.2538
vn -0.9467 -0.0433 0.3191
vn -0.7514 0.6276 -0.2038
vn -0.7034 0.0962 -0.7043
vn -0.4926 0.1295 -0.8606
vn -0.5318 0.4154 0.7380
vn -0.1062 0.9826 0.1521
vn -0.0024 -0.5669 0.8238
vn -0.4831 -0.3908 0.7835
vn -0.1655 -0.1487 0.9749
vn -0.0421 -0.4040 0.9138
vn -0.3572 0.8868 0.2933
vn -0.4048 0.3645 0.8386
vn -0.0588 0.8160 0.5750
vn 0.5405 0.6396 0.5467
vn -0.1067 0.9700 -0.2184
vn -0.4957 0.4348 0.7518
vn -0.9438 0.3152 0.0996
vn 0.6261 0.7453 0.2292
vn 0.3744 0.8554 0.3579
vn 0.6954 0.6159 0.3703
vn 0.0785 0.9876 -0.1358
vn 0.0026 0.9192 -0.3938
vn -0.1112 0.3880 -0.9149
vn 0.2312 0.8549 0.4644
vn -0.1160 0.9867 0.1141
vn -0.2020 0.9135 -0.3532
vn -0.2822 0.0811 -0.9559
vn 0.0009 -0.9879 -0.1549
vn -0.0199 0.1750 -0.9844
vn -0.5339 0.4850 0.6926
vn -0.6945 -0.1270 0.7082
vn -0.3378 -0.0305 0.9407
vn -0.9206 -0.0511 0.3873
vn -0.9308 -0.0228 0.3648
vn -0.8955 -0.0767 0.4384
vn -0.6295 0.0822 0.7727
vn -0.8748 0.1808 0.4495
vn -0.5487 0.6865 0.4771
vn -0.1946 -0.4719 0.8599
vn -0.7311 0.2209 0.6455
vn -0.0477 0.9102 0.4115
vn -0.9074 -0.2641 0.3271
vn -0.8624 0.0838 0.4993
vn 0.3223 0.9111 -0.2569
vn 0.3046 0.9471 0.1010
vn -0.1227 0.9857 0.1151
vn 0.3160 0.9487 -0.0008
vn 0.0625 0.9829 0.1731
vn -0.0584 0.9270 -0.3705
vn 0.3470 0.7958 0.4963
vn -0.3480 0.1300 -0.9284
vn 0.1470 0.4602 0.8756
vn 0.1817 0.9523 0.2452
vn 0.1178 0.9753 0.1868
vn -0.2859 0.8996 -0.3301
vn 0.0064 0.9104 -0.4138
vn 0.1466 0.4939 0.8571
vn 0.2984 -0.6191 0.7264
vn 0.4094 -0.3724 0.8329
vn 0.2830 0.9194 0.2734
vn 0.4593 0.8883 0.0038
vn -0.0590 0.9974 -0.0405
vn 0.7097 0.7043 -0.0163
vn 0.3553 0.8171 0.4539
vn 0.1323 0.7887 0.6004
vn 0.4908 0.8635 0.1163
vn 0.2725 0.9529 -0.1332
vn 0.3678 0.8683 -0.3329
vn -0.1057 0.9944 -0.0022
vn 0.4667 0.8842 -0.0170
vn 0.0004 -0.9878 -0.1559
vn -0.1250 0.8882 0.4422
vn 0.2468 0.7366 0.6297
vn -0.3743 0.7280 0.5743
vn -0.1694 0.5987 0.7828
vn -0.0894 0.9693 -0.2291
vn -0.1237 0.9457 -0.3006
vn 0.0101 0.9446 0.3280
vn 0.2014 0.9769 0.0719
vn 0.0803 0.4481 -0.8904
vn 0.2864 0.7914 -0.5401
vn 0.1023 0.3261 -0.9398
vn 0.1486 0.9887 -0.0207
vn -0.9095 -0.0440 0.4134
vn -0.8688 -0.1440 0.4737
vn -0.8440 -0.2940 0.4486
vn -0.9948 0.0281 0.0980
vn -0.9911 -0.1011 -0.0869
vn -0.8818 0.4258 0.2028
vn -0.7132 0.3430 0.6114
vn -0.4347 0.9002 -0.0251
vn -0.3592 0.9075 0.2178
vn -0.9270 0.2345 0.2928
vn -0.7651 0.6406 -0.0659
vn -0.7473 -0.0518 -0.6624
vn -0.9139 0.1227 -0.3870
vn -0.6039 0.1813 -0.7762
vn -0.4567 -0.0852 -0.8855
vn -0.6401 0.6826 -0.3527
vn -0.6435 -0.7493 0.1564
vn -0.7594 -0.5121 0.4012
vn -0.3520 -0.9345 0.0525
vn -0.8748 -0.1219 0.4689
vn -0.0606 0.9786 0.1966
vn -0.4664 0.8359 -0.2894
vn -0.4204 -0.4114 0.8087
vn 0.1570 -0.6973 0.6994
vn 0.0795 -0.3992 0.9134
vn 0.1769 0.0149 0.9841
vn 0.3905 0.7135 0.5817
vn -0.1647 0.6742 0.7199
vn -0.2509 -0.9655 -0.0697
vn -0.1715 -0.9841 -0.0468
vn -0.0507 0.4522 0.8905
vn -0.0936 0.9526 0.2896
vn 0.1826 0.6261 0.7581
vn 0.0152 0.5018 0.8648
vn 0.3028 -0.5975 0.7425
vn 0.3995 0.8847 -0.2403
vn 0.3653 0.9308 0.0083
vn 0.4258 0.8631 -0.2717
vn 0.5694 0.7713 -0.2845
vn 0.0576 0.9953 0.0774
vn 0.2638 0.9320 0.2485
vn -0.2702 0.8809 0.3885
vn 0.0987 0.9631 -0.2504
vn -0.2942 0.8857 0.3591
vn -0.2037 -0.9737 -0.1022
vn 0.0759 0.9134 0.3999
vn -0.1735 0.9598 0.2204
vn 0.1367 0.1074 -0.9848
vn -0.0980 0.3461 -0.9331
vn 0.2411 0.1026 -0.9651
vn 0.2542 0.7822 0.5689
vn 0.1755 0.6047 -0.7769
vn 0.7311 -0.3469 0.5875
vn 0.7652 0.0093 0.6437
vn 0.3454 -0.3076 0.8866
vn -0.3517 0.8629 0.3630
vn -0.1983 0.9796 -0.0339
vn 0.3245 0.1765 0.9293
vn 0.2753 0.7250 0.6313
vn -0.5617 0.7675 0.3091
vn -0.2354 0.5624 0.7926
vn 0.5005 -0.4233 0.7552
vn 0.3903 0.7386 0.5497
vn 0.7004 -0.5239 0.4847
vn 0.3259 0.5447 0.7727
vn 0.5774 0.5592 0.5950
vn -0.4917 0.7008 0.5167
vn 0.2782 0.9109 0.3049
vn -0.4799 0.4352 0.7617
vn -0.1722 0.9645 -0.2000
vn -0.4900 0.8488 0.1986
vn -0.6460 0.7623 -0.0386
vn -0.1040 0.4543 0.8847
vn -0.2681 0.9241 0.2722
vn 0.7137 0.6402 0.2842
vn 0.5541 0.8287 0.0791
vn -0.1061 0.8910 -0.4415
vn 0.8555 0.3309 -0.3982
vn 0.7012 0.4329 -0.5665
vn 0.4489 0.8931 0.0288
vn 0.6301 -0.1084 -0.7689
vn 0.7496 -0.2081 -0.6283
vn 0.8495 -0.1596 -0.5029
vn 0.7149 0.2969 -0.6330
vn 0.3051 0.6004 -0.7392
vn 0.6644 -0.2541 -0.7028
vn 0.4117 0.1056 -0.9052
vn 0.3091 0.9425 0.1273
vn 0.3477 0.2554 -0.9022
vn -0.5606 -0.7702 0.3042
vn -0.2451 0.5428 0.8033
vn 0.0450 0.5988 0.7996
vn 0.5186 -0.2998 0.8008
vn 0.3397 0.9181 -0.2043
vn 0.3474 0.9096 0.2277
vn 0.2398 0.9279 -0.2855
vn 0.1828 0.9663 -0.1810
vn 0.3173 0.9451 0.0782
vn 0.0120 0.9261 -0.3771
vn -0.1944 0.9660 0.1707
vn -0.0098 -0.9890 -0.1479
vn -0.4606 0.1337 -0.8775
vn -0.3032 0.7224 -0.6215
vn -0.0589 0.9732 0.2224
vn 0.0330 0.9084 -0.4168
vn -0.7627 0.1381 -0.6318
vn 0.4329 -0.3309 0.8385
vn -0.1037 0.7141 -0.6923
vn 0.4325 0.1033 0.8957
vn 0.3672 0.8273 0.4251
vn 0.1937 0.9248 -0.3274
vn 0.3065 0.6553 0.6903
vn 0.5415 -0.4455 0.7130
vn 0.5523 -0.4990 0.6678
vn 0.0102 0.9871 0.1600
vn 0.1042 0.9863 0.1278
vn -0.3282 0.8873 0.3241
vn -0.3579 0.9223 0.1455
vn -0.2253 0.9572 -0.1819
vn -0.4648 0.8848 -0.0320
vn -0.4704 0.8539 0.2229
vn 0.2590 0.7003 0.6652
vn -0.1660 0.9597 0.2266
vn -0.2621 0.9294 -0.2598
vn -0.0774 0.9597 0.2703
vn 0.1506 0.8483 0.5076
vn 0.3065 0.9482 -0.0837
vn 0.4204 0.8299 -0.3668
vn 0.7315 0.6515 -0.2010
vn 0.4422 0.8819 0.1638
vn 0.5905 0.0087 -0.8070
vn 0.6070 0.1693 -0.7764
vn -0.2022 0.9793 -0.0019
vn 0.1845 0.9233 -0.3370
vn 0.0959 0.9858 0.1378
vn 0.4655 0.5723 0.6751
vn 0.8401 0.4853 0.2422
vn 0.6599 0.7506 0.0329
vn 0.8654 -0.4468 0.2268
vn 0.9994 -0.0348 -0.0006
vn 0.9476 0.2718 0.1682
vn 0.9664 -0.2036 -0.1572
vn 0.8081 0.5878 -0.0372
vn 0.9049 0.1522 -0.3974
vn 0.7408 0.6716 0.0082
vn 0.8678 0.4602 -0.1873
vn 0.5016 0.8569 -0.1190
vn 0.5944 0.7545 -0.2784
vn 0.7207 0.6799 -0.1355
vn 0.3072 -0.9251 -0.2233
vn 0.9381 0.3183 -0.1363
vn 0.8555 0.3001 -0.4218
vn 0.7066 0.1789 -0.6847
vn 0.6254 0.1435 -0.7670
vn 0.5269 0.5096 -0.6802
vn 0.7452 -0.4487 -0.4933
vn 0.3396 -0.1720 -0.9247
vn 0.1492 0.7446 0.6506
vn 0.6392 0.2489 0.7276
vn 0.8971 -0.1990 0.3945
vn 0.2174 0.8750 0.4325
vn -0.1349 0.8387 0.5276
vn 0.3967 0.8684 0.2976
vn -0.0653 0.7675 0.6377
vn 0.1488 0.9884 -0.0296
vn 0.1311 0.9470 0.2932
vn -0.2524 0.9495 -0.1863
vn 0.0137 0.6579 0.7530
vn 0.1571 0.9869 0.0370
vn -0.1627 0.9864 0.0247
vn -0.0074 0.9780 -0.2085
vn 0.0584 0.2323 -0.9709
vn 0.0630 0.0037 -0.9980
vn 0.6789 0.1054 -0.7266
vn 0.2011 0.4971 0.8441
vn 0.6626 -0.0148 0.7488
vn 0.4421 0.8584 0.2604
vn 0.5187 0.8185 -0.2470
vn 0.7934 -0.2954 0.5322
vn 0.9662 0.0953 0.2397
vn 0.3864 0.7804 0.4916
vn 0.6919 -0.4728 0.5457
vn 0.9589 -0.1823 -0.2173
vn 0.9840 -0.1595 0.0801
vn 0.8848 -0.3650 0.2896
vn 0.8381 0.5450 0.0239
vn 0.9702 0.0446 -0.2383
vn 0.3657 0.9177 0.1553
vn 0.1563 0.9876 -0.0176
vn 0.8647 0.4872 -0.1218
vn 0.8269 0.5519 -0.1079
vn 0.8915 0.4159 0.1797
vn 0.6077 0.7934 0.0355
vn 0.8618 0.2751 -0.4261
vn 0.8222 -0.0748 -0.5642
vn 0.7230 0.6641 0.1904
vn 0.2265 -0.9467 -0.2290
vn 0.7885 -0.1259 -0.6020
vn 0.5769 0.8160 0.0362
vn 0.8454 0.5294 -0.0710
vn 0.9489 0.2407 -0.2039
vn 0.9696 0.1192 -0.2138
vn -0.9815 0.1883 -0.0353
vn -0.0164 0.9987 0.0475
vn 0.6492 0.7597 0.0359
vn 0.8965 -0.3662 0.2494
vn 0.9770 -0.1392 -0.1616
vn 0.7499 0.5770 0.3237
vn 0.9020 0.3439 -0.2611
vn 0.0308 -0.9861 -0.1632
vn 0.9660 -0.0710 -0.2486
vn 0.4371 0.8174 -0.3753
vn 0.4414 0.8944 -0.0726
vn 0.8102 0.1097 -0.5758
vn 0.4952 0.2339 -0.8367
vn 0.8300 0.5439 -0.1235
vn 0.7562 0.6153 -0.2225
vn 0.9017 0.3349 -0.2735
vn 0.7156 -0.6234 -0.3151
vn 0.5010 -0.8178 -0.2831
vn 0.8295 -0.4563 -0.3220
vn 0.9665 0.0074 -0.2566
vn 0.9460 -0.0515 -0.3201
vn 0.9597 0.1104 -0.2585
vn 0.7942 -0.5614 -0.2325
vn 0.2783 0.9589 -0.0547
vn 0.8718 0.3679 -0.3233
vn 0.7097 0.6687 -0.2216
vn 0.9126 0.2215 -0.3438
vn 0.9117 0.1699 -0.3741
vn 0.9319 0.1878 -0.3102
vn 0.9434 0.1408 -0.3003
vn 0.8823 -0.1487 -0.4466
vn 0.5410 -0.7702 -0.3378
vn 0.5734 -0.7147 -0.4005
vn 0.1017 -0.9662 -0.2371
vn 0.0772 0.2943 -0.9526
vn -0.2572 0.0732 -0.9636
vn -0.8836 -0.2372 0.4037
vn -0.5735 0.6862 0.4474
vn -0.0996 0.9771 0.1881
vn -0.4848 0.6140 0.6229
vn -0.9891 0.1339 -0.0613
vn -0.7030 -0.7000 0.1260
vn -0.6231 -0.7798 0.0600
vn 0.4637 0.8762 -0.1316
vn 0.2110 0.0316 -0.9770
vn 0.1241 -0.9915 -0.0403
vn 0.0408 -0.9813 -0.1883
vn 0.8945 -0.0829 -0.4394
vn 0.8412 0.2075 -0.4993
s 1
usemtl Arch.016
f 2//1 1//2 18//3
f 10//4 4//5 6//6
f 6//6 11//7 10//4
f 7//8 22//9 24//10
f 12//11 194//12 11//7
f 281//13 15//14 17//15
f 17//15 16//16 281//13
f 16//16 17//15 19//17
f 18//3 16//16 19//17
f 21//18 18//3 29//19
f 7//8 24//10 8//20
f 26//21 13//22 25//23
f 28//24 19//17 17//15
f 18//3 19//17 29//19
f 28//24 29//19 19//17
f 29//19 28//24 32//25
f 393//26 28//24 347//27
f 32//25 28//24 395//28
f 33//29 65//30 55//31
f 36//32 65//30 33//29
f 36//32 33//29 37//33
f 35//34 36//32 37//33
f 104//35 89//36 47//37
f 54//38 98//39 39//40
f 98//39 99//41 40//42
f 99//41 41//43 40//42
f 42//44 114//45 107//46
f 43//47 110//48 111//49
f 45//50 44//51 111//49
f 56//52 114//45 120//53
f 42//44 43//47 48//54
f 49//55 56//52 120//53
f 52//56 51//57 53//58
f 66//59 46//60 67//61
f 54//38 39//40 55//31
f 58//62 49//55 48//54
f 57//63 56//52 58//62
f 61//64 60//65 50//66
f 63//67 62//68 61//64
f 59//69 58//62 62//68
f 64//70 50//66 52//56
f 65//30 67//61 47//37
f 70//71 55//31 68//72
f 71//73 74//74 70//71
f 68//72 57//63 72//75
f 35//34 66//59 65//30
f 75//76 132//77 69//78
f 33//29 73//79 37//33
f 73//79 34//80 70//71
f 73//79 70//71 74//74
f 75//76 69//78 35//34
f 37//33 75//76 35//34
f 82//81 151//82 83//83
f 84//84 151//82 76//85
f 84//84 83//83 151//82
f 91//86 84//84 77//87
f 77//87 78//88 86//89
f 87//90 86//89 79//91
f 88//92 86//89 87//90
f 93//93 92//94 91//86
f 82//81 83//83 92//94
f 157//95 94//96 86//89
f 38//97 89//36 90//98
f 38//97 90//98 98//39
f 90//98 82//81 98//39
f 82//81 92//94 98//39
f 98//39 92//94 99//41
f 100//99 92//94 93//93
f 102//100 100//99 93//93
f 102//100 93//93 94//96
f 103//101 102//100 94//96
f 105//102 99//41 100//99
f 105//102 100//99 101//103
f 108//104 107//46 105//102
f 107//46 108//104 106//105
f 167//106 110//48 106//105
f 167//106 106//105 109//107
f 112//108 110//48 113//109
f 114//45 40//42 41//43
f 111//49 116//110 45//50
f 45//50 116//110 118//111
f 116//110 111//49 119//112
f 114//45 42//44 120//53
f 121//113 122//114 48//54
f 120//53 42//44 122//114
f 49//55 120//53 121//113
f 53//58 118//111 123//115
f 184//116 123//115 182//117
f 124//118 123//115 184//116
f 124//118 53//58 123//115
f 64//70 63//67 61//64
f 126//119 131//120 64//70
f 126//119 124//118 183//121
f 126//119 52//56 124//118
f 59//69 57//63 58//62
f 129//122 59//69 127//123
f 129//122 57//63 59//69
f 63//67 130//124 62//68
f 62//68 127//123 59//69
f 63//67 64//70 131//120
f 69//78 125//125 66//59
f 133//126 37//33 73//79
f 73//79 74//74 133//126
f 139//127 138//128 140//129
f 135//130 142//131 80//132
f 151//82 143//133 76//85
f 136//134 212//135 143//133
f 76//85 143//133 145//136
f 146//137 138//128 139//127
f 149//138 146//137 139//127
f 89//36 141//139 135//130
f 81//140 80//132 142//131
f 152//141 87//90 79//91
f 88//92 87//90 153//142
f 87//90 152//141 153//142
f 152//141 79//91 148//143
f 152//141 148//143 150//144
f 157//95 158//145 162//146
f 88//92 153//142 158//145
f 158//145 155//147 162//146
f 160//148 102//100 103//101
f 113//109 167//106 161//149
f 162//146 235//150 164//151
f 101//103 100//99 159//152
f 101//103 159//152 237//153
f 108//104 105//102 165//154
f 108//104 168//155 109//107
f 168//155 108//104 166//156
f 113//109 161//149 171//157
f 169//158 161//149 163//159
f 169//158 170//160 161//149
f 177//161 170//160 169//158
f 171//157 161//149 170//160
f 173//162 165//154 101//103
f 166//156 165//154 173//162
f 115//163 117//164 174//165
f 175//166 174//165 176//167
f 118//111 117//164 115//163
f 119//112 112//108 170//160
f 119//112 170//160 174//165
f 174//165 170//160 176//167
f 125//125 172//168 66//59
f 115//163 175//166 180//169
f 179//170 115//163 180//169
f 123//115 118//111 182//117
f 118//111 115//163 182//117
f 183//121 184//116 185//171
f 179//170 180//169 186//172
f 187//173 183//121 185//171
f 188//174 185//171 189//175
f 128//176 127//123 190//177
f 193//178 276//179 71//73
f 72//75 129//122 192//180
f 204//181 5//182 10//4
f 1//2 196//183 281//13
f 197//184 196//183 2//1
f 195//185 196//183 197//184
f 197//184 2//1 198//186
f 3//187 198//186 2//1
f 198//186 3//187 283//188
f 200//189 198//186 283//188
f 204//181 194//12 136//134
f 205//190 194//12 12//11
f 205//190 12//11 195//185
f 195//185 12//11 196//183
f 213//191 205//190 195//185
f 207//192 195//185 209//193
f 209//193 197//184 198//186
f 209//193 210//194 207//192
f 210//194 208//195 207//192
f 210//194 209//193 199//196
f 134//197 202//198 141//139
f 201//199 202//198 134//197
f 135//130 203//200 204//181
f 215//201 213//191 214//202
f 137//203 145//136 216//204
f 140//129 138//128 137//203
f 140//129 137//203 218//205
f 140//129 218//205 220//206
f 221//207 139//127 219//208
f 156//209 23//210 201//199
f 215//201 144//211 213//191
f 223//212 222//213 215//201
f 222//213 223//212 224//214
f 143//133 144//211 145//136
f 145//136 224//214 225//215
f 150//144 149//138 221//207
f 226//216 150//144 300//217
f 226//216 300//217 227//218
f 228//219 226//216 227//218
f 231//220 233//221 234//222
f 233//221 226//216 230//223
f 233//221 230//223 309//224
f 233//221 309//224 234//222
f 172//168 156//209 97//225
f 155//147 232//226 235//150
f 232//226 234//222 235//150
f 236//227 235//150 234//222
f 160//148 237//153 159//152
f 238//228 160//148 431//229
f 239//230 238//228 431//229
f 163//159 161//149 240//231
f 431//229 162//146 241//232
f 244//233 323//234 246//235
f 257//236 169//158 247//237
f 240//231 248//238 249//239
f 240//231 249//239 247//237
f 248//238 246//235 323//234
f 247//237 249//239 250//240
f 251//241 257//236 250//240
f 253//242 166//156 252//243
f 166//156 245//244 168//155
f 166//156 253//242 245//244
f 245//244 253//242 254//245
f 255//246 245//244 254//245
f 176//167 177//161 178//247
f 261//248 258//249 251//241
f 259//250 260//251 261//248
f 180//169 175//166 256//252
f 181//253 180//169 262//254
f 180//169 256//252 259//250
f 263//255 186//172 262//254
f 264//256 186//172 263//255
f 262//254 259//250 265//257
f 266//258 267//259 268//260
f 266//258 272//261 269//262
f 333//263 269//262 272//261
f 272//261 274//264 333//263
f 270//265 188//174 264//256
f 274//264 270//265 264//256
f 274//264 264//256 263//255
f 188//174 189//175 264//256
f 190//177 271//266 128//176
f 128//176 266//258 192//180
f 266//258 268//260 192//180
f 273//267 131//120 270//265
f 274//264 273//267 270//265
f 192//180 338//268 193//178
f 75//76 133//126 275//269
f 276//179 275//269 133//126
f 278//270 7//8 202//198
f 278//270 22//9 7//8
f 203//200 8//20 5//182
f 279//271 13//22 280//272
f 281//13 12//11 279//271
f 15//14 281//13 279//271
f 282//273 17//15 15//14
f 287//274 283//188 286//275
f 284//276 287//274 286//275
f 288//277 287//274 290//278
f 289//279 287//274 284//276
f 211//280 200//189 287//274
f 211//280 288//277 199//196
f 156//209 172//168 23//210
f 172//168 344//281 23//210
f 217//282 291//283 214//202
f 292//284 214//202 291//283
f 358//285 215//201 292//284
f 217//282 206//286 207//192
f 206//286 217//282 214//202
f 220//206 218//205 294//287
f 296//288 199//196 288//277
f 221//207 220//206 297//289
f 221//207 297//289 298//290
f 296//288 288//277 353//291
f 223//212 215//201 224//214
f 224//214 215//201 302//292
f 302//292 215//201 358//285
f 225//215 224//214 304//293
f 224//214 302//292 304//293
f 216//204 303//294 294//287
f 305//295 300//217 301//296
f 307//297 301//296 298//290
f 308//298 305//295 307//297
f 230//223 228//219 229//299
f 230//223 229//299 306//300
f 234//222 312//301 310//302
f 230//223 306//300 309//224
f 306//300 312//301 309//224
f 234//222 310//302 311//303
f 312//301 306//300 314//304
f 313//305 312//301 314//304
f 306//300 308//298 314//304
f 311//303 310//302 315//306
f 316//307 311//303 315//306
f 318//308 320//309 319//310
f 320//309 318//308 321//311
f 321//311 318//308 237//153
f 238//228 321//311 237//153
f 322//312 239//230 241//232
f 241//232 164//151 242//313
f 242//313 317//314 241//232
f 237//153 318//308 243//315
f 249//239 248//238 323//234
f 324//316 249//239 323//234
f 254//245 252//243 255//246
f 255//246 252//243 243//315
f 330//317 255//246 243//315
f 326//318 330//317 243//315
f 243//315 319//310 326//318
f 245//244 325//319 244//233
f 327//320 244//233 325//319
f 328//321 323//234 244//233
f 328//321 324//316 323//234
f 328//321 244//233 327//320
f 261//248 324//316 328//321
f 331//322 245//244 330//317
f 331//322 330//317 332//323
f 269//262 333//263 331//322
f 335//324 336//325 334//326
f 334//326 328//321 335//324
f 265//257 329//327 336//325
f 268//260 337//328 338//268
f 337//328 269//262 332//323
f 338//268 326//318 339//329
f 274//264 335//324 333//263
f 263//255 336//325 335//324
f 274//264 263//255 335//324
f 132//77 386//330 125//125
f 339//329 385//331 340//332
f 193//178 338//268 339//329
f 275//269 388//333 343//334
f 275//269 340//332 388//333
f 340//332 275//269 342//335
f 193//178 342//335 276//179
f 341//336 132//77 277//337
f 23//210 22//9 278//270
f 282//273 345//338 346//339
f 282//273 346//339 348//340
f 285//341 20//342 21//18
f 284//276 286//275 285//341
f 285//341 21//18 30//343
f 285//341 30//343 349//344
f 30//343 31//345 349//344
f 285//341 349//344 350//346
f 351//347 285//341 350//346
f 352//348 349//344 32//25
f 290//278 287//274 289//279
f 353//291 354//349 356//350
f 355//351 289//279 351//347
f 354//349 355//351 356//350
f 291//283 358//285 292//284
f 293//352 360//353 402//354
f 299//355 294//287 362//356
f 294//287 303//294 362//356
f 302//292 358//285 372//357
f 372//357 358//285 359//358
f 362//356 303//294 366//359
f 368//360 362//356 366//359
f 368//360 364//361 362//356
f 308//298 307//297 364//361
f 304//293 302//292 371//362
f 381//363 367//364 365//365
f 370//366 368//360 374//367
f 374//367 368//360 367//364
f 315//306 310//302 313//305
f 375//368 369//369 377//370
f 369//369 370//366 377//370
f 377//370 370//366 374//367
f 380//371 373//372 404//373
f 373//372 372//357 404//373
f 380//371 404//373 319//310
f 377//370 374//367 383//374
f 383//374 374//367 382//375
f 315//306 375//368 376//376
f 316//307 383//374 322//312
f 316//307 376//376 383//374
f 376//376 377//370 383//374
f 125//125 384//377 172//168
f 320//309 379//378 380//371
f 320//309 378//379 319//310
f 410//380 319//310 404//373
f 322//312 382//375 379//378
f 316//307 322//312 317//314
f 410//380 406//381 385//331
f 385//331 326//318 410//380
f 343//334 413//382 341//336
f 340//332 413//382 388//333
f 341//336 386//330 132//77
f 390//383 345//338 26//21
f 26//21 391//384 398//385
f 395//28 393//26 394//386
f 400//387 395//28 394//386
f 350//346 352//348 396//388
f 355//351 351//347 350//346
f 355//351 350//346 396//388
f 32//25 395//28 396//388
f 401//389 396//388 395//28
f 384//377 344//281 172//168
f 397//390 344//281 384//377
f 398//385 346//339 390//383
f 348//340 346//339 398//385
f 399//391 400//387 394//386
f 353//291 355//351 357//392
f 357//392 355//351 396//388
f 401//389 357//392 396//388
f 404//373 359//358 392//393
f 402//354 398//385 359//358
f 402//354 403//394 399//391
f 357//392 401//389 363//395
f 405//396 418//397 407//398
f 405//396 407//398 406//381
f 409//399 384//377 411//400
f 410//380 405//396 406//381
f 411//400 384//377 386//330
f 414//401 412//402 421//403
f 408//404 421//403 412//402
f 413//382 408//404 412//402
f 414//401 411//400 386//330
f 387//405 412//402 414//401
f 392//393 391//384 415//406
f 418//397 429//407 407//398
f 418//397 392//393 416//408
f 428//409 427//410 422//411
f 423//412 430//413 421//403
f 409//399 419//414 384//377
f 414//401 421//403 409//399
f 424//415 420//416 419//414
f 419//414 430//413 424//415
f 423//412 427//410 430//413
f 121//113 120//53 122//114
f 361//417 295//418 296//288
f 210//194 296//288 295//418
f 239//230 431//229 241//232
f 157//95 431//229 103//101
f 248//238 167//106 246//235
f 3//187 2//1 18//3
f 10//4 5//182 4//5
f 4//5 5//182 9//419
f 5//182 8//20 9//419
f 14//420 12//11 11//7
f 13//22 12//11 14//420
f 16//16 1//2 281//13
f 18//3 1//2 16//16
f 20//342 3//187 18//3
f 20//342 18//3 21//18
f 25//23 13//22 14//420
f 27//421 26//21 25//23
f 347//27 28//24 17//15
f 30//343 21//18 29//19
f 31//345 30//343 29//19
f 32//25 31//345 29//19
f 349//344 31//345 32//25
f 55//31 65//30 47//37
f 34//80 33//29 55//31
f 36//32 35//34 65//30
f 54//38 38//97 98//39
f 39//40 98//39 40//42
f 42//44 107//46 43//47
f 111//49 44//51 43//47
f 45//50 51//57 44//51
f 54//38 47//37 38//97
f 114//45 56//52 40//42
f 60//65 48//54 43//47
f 60//65 43//47 50//66
f 50//66 43//47 44//51
f 50//66 44//51 51//57
f 52//56 50//66 51//57
f 104//35 67//61 46//60
f 47//37 67//61 104//35
f 55//31 47//37 54//38
f 39//40 40//42 56//52
f 68//72 39//40 56//52
f 58//62 56//52 49//55
f 62//68 58//62 60//65
f 48//54 49//55 121//113
f 61//64 62//68 60//65
f 60//65 58//62 48//54
f 64//70 61//64 50//66
f 66//59 67//61 65//30
f 55//31 39//40 68//72
f 57//63 68//72 56//52
f 70//71 34//80 55//31
f 71//73 70//71 68//72
f 71//73 68//72 72//75
f 35//34 69//78 66//59
f 73//79 33//29 34//80
f 77//87 76//85 138//128
f 77//87 146//137 78//88
f 146//137 77//87 138//128
f 78//88 146//137 147//422
f 81//140 90//98 80//132
f 82//81 90//98 81//140
f 151//82 82//81 81//140
f 77//87 84//84 76//85
f 91//86 77//87 85//423
f 85//423 77//87 86//89
f 86//89 78//88 79//91
f 95//424 141//139 104//35
f 90//98 89//36 80//132
f 91//86 92//94 84//84
f 92//94 83//83 84//84
f 85//423 93//93 91//86
f 94//96 93//93 85//423
f 86//89 94//96 85//423
f 157//95 86//89 88//92
f 96//425 156//209 95//424
f 96//425 97//225 156//209
f 89//36 104//35 141//139
f 100//99 99//41 92//94
f 157//95 103//101 94//96
f 104//35 96//425 95//424
f 38//97 47//37 89//36
f 41//43 99//41 105//102
f 106//105 43//47 107//46
f 110//48 43//47 106//105
f 111//49 110//48 112//108
f 119//112 111//49 112//108
f 46//60 96//425 104//35
f 114//45 41//43 107//46
f 107//46 41//43 105//102
f 51//57 45//50 118//111
f 119//112 117//164 116//110
f 117//164 118//111 116//110
f 97//225 96//425 46//60
f 46//60 66//59 97//225
f 122//114 42//44 48//54
f 53//58 51//57 118//111
f 52//56 53//58 124//118
f 126//119 64//70 52//56
f 128//176 129//122 127//123
f 62//68 130//124 127//123
f 131//120 126//119 187//173
f 132//77 125//125 69//78
f 129//122 72//75 57//63
f 37//33 133//126 75//76
f 136//134 135//130 204//181
f 142//131 135//130 136//134
f 81//140 142//131 136//134
f 143//133 151//82 81//140
f 81//140 136//134 143//133
f 143//133 212//135 144//211
f 145//136 137//203 76//85
f 138//128 76//85 137//203
f 79//91 78//88 147//422
f 148//143 79//91 147//422
f 147//422 146//137 149//138
f 148//143 147//422 149//138
f 150//144 148//143 149//138
f 141//139 95//424 134//197
f 80//132 89//36 135//130
f 153//142 154//426 155//147
f 156//209 134//197 95//424
f 157//95 88//92 158//145
f 158//145 153//142 155//147
f 159//152 100//99 102//100
f 102//100 160//148 159//152
f 431//229 160//148 103//101
f 113//109 110//48 167//106
f 157//95 162//146 431//229
f 105//102 101//103 165//154
f 106//105 108//104 109//107
f 108//104 165//154 166//156
f 167//106 109//107 168//155
f 171//157 112//108 113//109
f 170//160 112//108 171//157
f 66//59 172//168 97//225
f 175//166 115//163 174//165
f 176//167 170//160 177//161
f 175//166 176//167 178//247
f 174//165 117//164 119//112
f 179//170 182//117 115//163
f 183//121 124//118 184//116
f 184//116 182//117 179//170
f 185//171 184//116 179//170
f 185//171 179//170 186//172
f 181//253 186//172 180//169
f 126//119 183//121 187//173
f 188//174 187//173 185//171
f 189//175 185//171 186//172
f 127//123 130//124 190//177
f 192//180 129//122 128//176
f 130//124 191//427 190//177
f 63//67 131//120 130//124
f 131//120 191//427 130//124
f 131//120 273//267 191//427
f 187//173 188//174 131//120
f 270//265 131//120 188//174
f 72//75 193//178 71//73
f 193//178 72//75 192//180
f 71//73 276//179 74//74
f 204//181 203//200 5//182
f 194//12 204//181 10//4
f 281//13 196//183 12//11
f 2//1 196//183 1//2
f 200//189 199//196 198//186
f 202//198 8//20 203//200
f 8//20 202//198 7//8
f 206//286 213//191 195//185
f 207//192 206//286 195//185
f 195//185 197//184 209//193
f 199//196 209//193 198//186
f 211//280 199//196 200//189
f 135//130 141//139 202//198
f 135//130 202//198 203//200
f 136//134 194//12 205//190
f 212//135 136//134 205//190
f 213//191 144//211 212//135
f 213//191 212//135 205//190
f 214//202 213//191 206//286
f 137//203 216//204 218//205
f 139//127 140//129 219//208
f 219//208 140//129 220//206
f 221//207 149//138 139//127
f 156//209 201//199 134//197
f 215//201 222//213 144//211
f 145//136 144//211 222//213
f 216//204 145//136 225//215
f 145//136 222//213 224//214
f 150//144 221//207 300//217
f 229//299 228//219 227//218
f 153//142 152//141 231//220
f 231//220 154//426 153//142
f 155//147 154//426 231//220
f 233//221 152//141 150//144
f 231//220 152//141 233//221
f 226//216 233//221 150//144
f 235//150 162//146 155//147
f 232//226 155//147 231//220
f 232//226 231//220 234//222
f 164//151 235//150 236//227
f 160//148 238//228 237//153
f 240//231 161//149 248//238
f 162//146 164//151 241//232
f 242//313 164//151 236//227
f 101//103 237//153 243//315
f 245//244 244//233 168//155
f 167//106 168//155 246//235
f 246//235 168//155 244//233
f 247//237 169//158 163//159
f 257//236 177//161 169//158
f 247//237 163//159 240//231
f 252//243 173//162 101//103
f 252//243 166//156 173//162
f 254//245 253//242 252//243
f 243//315 252//243 101//103
f 178//247 177//161 257//236
f 178//247 257//236 258//249
f 257//236 247//237 250//240
f 260//251 256//252 178//247
f 260//251 178//247 258//249
f 256//252 260//251 259//250
f 258//249 257//236 251//241
f 260//251 258//249 261//248
f 175//166 178//247 256//252
f 262//254 180//169 259//250
f 262//254 186//172 181//253
f 336//325 262//254 265//257
f 336//325 263//255 262//254
f 267//259 266//258 269//262
f 269//262 337//328 267//259
f 264//256 189//175 186//172
f 128//176 271//266 266//258
f 338//268 192//180 268//260
f 190//177 272//261 271//266
f 191//427 272//261 190//177
f 271//266 272//261 266//258
f 191//427 273//267 272//261
f 273//267 274//264 272//261
f 75//76 275//269 343//334
f 74//74 276//179 133//126
f 343//334 277//337 75//76
f 11//7 194//12 10//4
f 279//271 12//11 13//22
f 283//188 3//187 20//342
f 200//189 283//188 287//274
f 285//341 286//275 20//342
f 283//188 20//342 286//275
f 201//199 278//270 202//198
f 288//277 211//280 287//274
f 201//199 23//210 278//270
f 292//284 215//201 214//202
f 208//195 217//282 207//192
f 217//282 208//195 293//352
f 217//282 293//352 291//283
f 216//204 294//287 218//205
f 295//418 360//353 208//195
f 298//290 297//289 299//355
f 221//207 219//208 220//206
f 300//217 221//207 298//290
f 301//296 300//217 298//290
f 307//297 298//290 299//355
f 225//215 303//294 216//204
f 304//293 303//294 225//215
f 227//218 300//217 305//295
f 229//299 227//218 305//295
f 306//300 229//299 305//295
f 305//295 301//296 307//297
f 308//298 306//300 305//295
f 230//223 226//216 228//219
f 234//222 309//224 312//301
f 313//305 310//302 312//301
f 311//303 236//227 234//222
f 317//314 242//313 236//227
f 316//307 236//227 311//303
f 317//314 236//227 316//307
f 321//311 379//378 320//309
f 238//228 322//312 321//311
f 238//228 239//230 322//312
f 322//312 379//378 321//311
f 241//232 317//314 322//312
f 243//315 318//308 319//310
f 324//316 250//240 249//239
f 251//241 250//240 324//316
f 329//327 259//250 261//248
f 334//326 329//327 261//248
f 261//248 251//241 324//316
f 334//326 261//248 328//321
f 245//244 255//246 330//317
f 331//322 332//323 269//262
f 331//322 325//319 245//244
f 332//323 330//317 326//318
f 333//263 335//324 327//320
f 331//322 327//320 325//319
f 327//320 331//322 333//263
f 335//324 328//321 327//320
f 329//327 265//257 259//250
f 336//325 329//327 334//326
f 268//260 267//259 337//328
f 338//268 337//328 332//323
f 338//268 332//323 326//318
f 342//335 193//178 339//329
f 342//335 339//329 340//332
f 342//335 275//269 276//179
f 75//76 277//337 132//77
f 15//14 279//271 282//273
f 280//272 282//273 279//271
f 26//21 280//272 13//22
f 26//21 345//338 280//272
f 282//273 280//272 345//338
f 348//340 17//15 282//273
f 348//340 347//27 17//15
f 289//279 284//276 285//341
f 289//279 285//341 351//347
f 350//346 349//344 352//348
f 354//349 290//278 289//279
f 288//277 290//278 353//291
f 353//291 290//278 354//349
f 355//351 354//349 289//279
f 291//283 293//352 358//285
f 293//352 359//358 358//285
f 360//353 293//352 208//195
f 293//352 402//354 359//358
f 361//417 360//353 295//418
f 361//417 402//354 360//353
f 363//395 402//354 361//417
f 294//287 299//355 297//289
f 296//288 353//291 361//417
f 353//291 363//395 361//417
f 357//392 363//395 353//291
f 364//361 299//355 362//356
f 365//365 303//294 304//293
f 365//365 366//359 303//294
f 365//365 367//364 366//359
f 368//360 366//359 367//364
f 364//361 307//297 299//355
f 369//369 308//298 364//361
f 370//366 369//369 364//361
f 368//360 370//366 364//361
f 372//357 371//362 302//292
f 371//362 365//365 304//293
f 373//372 371//362 372//357
f 373//372 365//365 371//362
f 373//372 381//363 365//365
f 381//363 374//367 367//364
f 375//368 313//305 314//304
f 375//368 315//306 313//305
f 369//369 314//304 308//298
f 369//369 375//368 314//304
f 381//363 380//371 379//378
f 380//371 381//363 373//372
f 379//378 382//375 381//363
f 381//363 382//375 374//367
f 376//376 316//307 315//306
f 377//370 376//376 375//368
f 320//309 380//371 378//379
f 319//310 378//379 380//371
f 410//380 404//373 405//396
f 382//375 322//312 383//374
f 410//380 326//318 319//310
f 125//125 386//330 384//377
f 385//331 406//381 413//382
f 387//405 414//401 386//330
f 339//329 326//318 385//331
f 341//336 413//382 412//402
f 387//405 341//336 412//402
f 340//332 385//331 413//382
f 343//334 388//333 413//382
f 386//330 341//336 387//405
f 277//337 343//334 341//336
f 397//390 389//428 344//281
f 390//383 346//339 345//338
f 391//384 26//21 27//421
f 348//340 394//386 347//27
f 394//386 393//26 347//27
f 393//26 395//28 28//24
f 396//388 352//348 32//25
f 399//391 348//340 398//385
f 398//385 390//383 26//21
f 392//393 398//385 391//384
f 399//391 394//386 348//340
f 399//391 403//394 400//387
f 401//389 395//28 400//387
f 403//394 401//389 400//387
f 353//291 356//350 355//351
f 359//358 398//385 392//393
f 405//396 404//373 392//393
f 418//397 405//396 392//393
f 402//354 399//391 398//385
f 363//395 403//394 402//354
f 363//395 401//389 403//394
f 404//373 372//357 359//358
f 408//404 406//381 422//411
f 407//398 422//411 406//381
f 411//400 414//401 409//399
f 408//404 413//382 406//381
f 416//408 392//393 415//406
f 384//377 417//429 397//390
f 418//397 416//408 429//407
f 407//398 429//407 428//409
f 419//414 417//429 384//377
f 419//414 420//416 417//429
f 422//411 407//398 428//409
f 422//411 427//410 423//412
f 409//399 421//403 419//414
f 419//414 421//403 430//413
f 408//404 422//411 423//412
f 421//403 408//404 423//412
f 424//415 430//413 425//430
f 430//413 426//431 425//430
f 427//410 426//431 430//413
f 210//194 295//418 208//195
f 199//196 296//288 210//194
f 220//206 294//287 297//289
f 248//238 161//149 167//106
