# Blender 4.3.2
# www.blender.org
mtllib Gum_Collision_Coarse1.mtl
o Gum_Collision_Coarse1
v -0.013298 -0.008454 0.030160
v -0.010046 -0.015230 0.027420
v -0.014526 -0.016406 0.030499
v -0.011511 -0.008221 0.028380
v -0.015733 -0.005678 0.030850
v -0.013748 -0.012432 0.030250
v -0.020187 -0.005517 0.010359
v -0.013409 -0.006599 0.026292
v -0.022817 -0.007899 0.017264
v -0.022336 -0.008695 0.016281
v -0.021638 -0.005689 0.009700
v -0.021212 -0.005223 0.008879
v -0.009261 -0.017553 0.025562
v -0.009749 -0.018540 0.025628
v -0.011287 -0.018576 0.027638
v -0.015626 -0.007571 0.005676
v -0.014015 -0.016000 0.011448
v -0.014063 -0.009013 0.013394
v -0.014995 -0.015802 0.008541
v -0.013075 -0.016553 0.014867
v -0.012266 -0.017363 0.018219
v -0.011980 -0.017048 0.018381
v -0.013979 -0.016456 0.012570
v -0.014484 -0.002845 0.019344
v -0.014566 -0.002670 0.021412
v -0.015416 -0.002682 0.019645
v -0.011662 -0.011506 0.021724
v -0.011301 -0.017568 0.020633
v -0.010358 -0.018044 0.023147
v -0.018134 -0.018674 0.026204
v -0.014710 -0.003158 0.023275
v -0.014287 -0.003431 0.024792
v -0.015405 -0.003230 0.023017
v -0.017377 -0.003629 0.025761
v -0.010580 -0.008251 0.026783
v -0.012202 -0.006997 0.023335
v -0.013446 -0.004328 0.023055
v -0.012017 -0.005071 0.027530
v -0.013311 -0.004007 0.025935
v -0.013712 -0.004107 0.025815
v -0.013565 -0.004608 0.027225
v -0.014679 -0.004020 0.025226
v -0.013674 -0.006660 0.025151
v -0.014521 -0.008602 0.024140
v -0.009779 -0.013128 0.025938
v -0.015071 -0.013068 0.023349
v -0.013961 -0.010535 0.024412
v -0.014177 -0.011781 0.025297
v -0.014857 -0.013776 0.023926
v -0.015511 -0.014441 0.024587
v -0.015453 -0.012032 0.026331
v -0.013516 -0.004393 0.028446
v -0.014773 -0.004520 0.029334
v -0.014167 -0.004610 0.028605
v -0.015172 -0.004636 0.029884
v -0.015538 -0.019072 0.029701
v -0.016883 -0.018988 0.028262
v -0.017001 -0.000794 0.006733
v -0.016349 -0.002294 0.006928
v -0.024879 -0.001846 0.006513
v -0.016096 -0.005405 0.005797
v -0.015722 -0.014170 0.004419
v -0.016031 -0.010120 0.004787
v -0.016080 -0.015067 0.004112
v -0.016361 -0.000845 0.013482
v -0.017556 0.000195 0.006887
v -0.016933 -0.000494 0.011630
v -0.017618 -0.000192 0.011403
v -0.019308 0.001106 0.006940
v -0.018924 0.000319 0.009864
v -0.019036 -0.001995 0.010733
v -0.018884 -0.002626 0.011149
v -0.019011 0.000787 0.009075
v -0.020196 -0.001812 0.008934
v -0.020800 0.000367 0.009251
v -0.019701 -0.002339 0.009680
v -0.021024 -0.002842 0.011670
v -0.018968 -0.005272 0.010762
v -0.018156 -0.005071 0.012152
v -0.020008 -0.006343 0.010818
v -0.020537 -0.006579 0.011600
v -0.017409 -0.016866 0.014076
v -0.018963 -0.016035 0.009216
v -0.022714 -0.016979 0.015847
v -0.023878 -0.016386 0.012403
v -0.015010 -0.003165 0.015318
v -0.016185 -0.001693 0.014857
v -0.015700 -0.002078 0.018602
v -0.017156 -0.000899 0.011979
v -0.016826 -0.000796 0.013701
v -0.017393 -0.001049 0.014686
v -0.016681 -0.001428 0.017369
v -0.017441 -0.002820 0.011892
v -0.018360 -0.001088 0.015723
v -0.018972 -0.004943 0.013318
v -0.020748 -0.001811 0.016001
v -0.020326 -0.001588 0.017252
v -0.021969 -0.004043 0.014706
v -0.020818 -0.007350 0.015779
v -0.019935 -0.007656 0.016074
v -0.015270 -0.004536 0.021031
v -0.016596 -0.001939 0.018063
v -0.017772 -0.001746 0.017466
v -0.017099 -0.004297 0.018378
v -0.020011 -0.002068 0.017620
v -0.015687 -0.004600 0.022274
v -0.018579 -0.006500 0.018402
v -0.016945 -0.006631 0.019475
v -0.019635 -0.010232 0.018330
v -0.019245 -0.010319 0.019045
v -0.017862 -0.008592 0.020736
v -0.019353 -0.009307 0.021496
v -0.018876 -0.006700 0.017408
v -0.019320 -0.007072 0.018624
v -0.019862 -0.006960 0.018611
v -0.020395 -0.008769 0.016567
v -0.020387 -0.006752 0.019430
v -0.021034 -0.010123 0.018502
v -0.020549 -0.010865 0.019568
v -0.020648 -0.010783 0.018865
v -0.020192 -0.018081 0.022963
v -0.017796 -0.003312 0.024172
v -0.017396 -0.009472 0.024981
v -0.017440 -0.003975 0.026076
v -0.019277 -0.007182 0.022717
v -0.019894 -0.004197 0.024029
v -0.018455 -0.004077 0.026482
v -0.018204 -0.008362 0.026552
v -0.020096 -0.003979 0.024344
v -0.018742 -0.004017 0.025533
v -0.019826 -0.005884 0.025308
v -0.020837 -0.009197 0.021622
v -0.016129 -0.013660 0.023329
v -0.016545 -0.013887 0.024980
v -0.016887 -0.011047 0.026820
v -0.016772 -0.013770 0.024145
v -0.020049 -0.010570 0.025398
v -0.019559 -0.018268 0.023937
v -0.019128 -0.018400 0.025475
v -0.019799 -0.017955 0.024439
v -0.016892 -0.007717 0.028927
v -0.016464 -0.005400 0.029620
v -0.017085 -0.005295 0.030220
v -0.018116 -0.007472 0.028035
v -0.018222 -0.005404 0.029040
v -0.017083 -0.008789 0.031205
v -0.018735 -0.004705 0.027585
v -0.018457 -0.005310 0.028259
v -0.019413 -0.006203 0.028200
v -0.016136 -0.011646 0.031448
v -0.016070 -0.014508 0.031177
v -0.015390 -0.018225 0.030312
v -0.016321 -0.017197 0.030399
v -0.016615 -0.018871 0.029317
v -0.016937 -0.011995 0.031072
v -0.018398 -0.018458 0.027063
v -0.016062 -0.008466 0.031501
v -0.024991 -0.007796 0.005380
v -0.025024 -0.014724 0.004287
v -0.025379 -0.011397 0.005090
v -0.024838 -0.015254 0.004770
v -0.024901 -0.015323 0.006747
v -0.022609 0.001257 0.007015
v -0.020667 -0.003780 0.008700
v -0.019968 -0.002829 0.010568
v -0.022909 0.000742 0.009715
v -0.021865 -0.003925 0.008336
v -0.022433 0.000511 0.009897
v -0.022793 -0.002445 0.011565
v -0.022599 -0.004788 0.008661
v -0.023308 -0.003753 0.009634
v -0.023179 -0.003759 0.010568
v -0.023804 0.000701 0.007177
v -0.023447 -0.001608 0.010571
v -0.023308 0.000213 0.010773
v -0.023972 0.000000 0.011392
v -0.023634 -0.000591 0.012175
v -0.024739 -0.002940 0.009537
v -0.024620 -0.003601 0.013565
v -0.021387 -0.006150 0.010816
v -0.022569 -0.005095 0.010242
v -0.024597 -0.015698 0.007834
v -0.024227 -0.016047 0.010923
v -0.022224 -0.002652 0.012374
v -0.022518 -0.002200 0.015545
v -0.022859 -0.002238 0.015843
v -0.022741 -0.003835 0.013454
v -0.022199 -0.002341 0.017068
v -0.022943 -0.001587 0.012806
v -0.023427 -0.000934 0.013736
v -0.023140 -0.002030 0.014488
v -0.023701 -0.001265 0.014408
v -0.022867 -0.003952 0.016820
v -0.021982 -0.005285 0.012439
v -0.022150 -0.006265 0.016574
v -0.021311 -0.009075 0.016150
v -0.023435 -0.007439 0.016159
v -0.023278 -0.016640 0.014554
v -0.021270 -0.002097 0.018416
v -0.021819 -0.002071 0.018608
v -0.022116 -0.003572 0.019209
v -0.021993 -0.003150 0.020456
v -0.022060 -0.003337 0.022306
v -0.021368 -0.003632 0.023032
v -0.022549 -0.003454 0.020714
v -0.022330 -0.007304 0.018462
v -0.021668 -0.005555 0.019856
v -0.021492 -0.006456 0.021098
v -0.021577 -0.008928 0.021048
v -0.021857 -0.009078 0.017490
v -0.022680 -0.007962 0.019777
v -0.021651 -0.009743 0.020013
v -0.020907 -0.017829 0.020939
v -0.021891 -0.017222 0.019345
v -0.021655 -0.004085 0.023392
v -0.021191 -0.010109 0.022832
v -0.020669 -0.017714 0.022463
v -0.025411 -0.005990 0.006090
v -0.025428 -0.012116 0.005817
vn 0.5877 -0.1664 0.7918
vn 0.5762 -0.0618 0.8150
vn 0.5948 0.3406 0.7281
vn 0.7716 -0.2480 0.5859
vn 0.9519 0.0865 0.2938
vn 0.6893 -0.2962 0.6612
vn 0.8902 0.1411 -0.4331
vn 0.8485 -0.4387 -0.2961
vn 0.8597 0.1114 0.4984
vn 0.5836 -0.0476 0.8107
vn 0.9712 0.1720 -0.1646
vn 0.9734 0.0675 -0.2187
vn 0.8520 -0.4177 -0.3155
vn 0.9551 0.0688 -0.2880
vn 0.7776 -0.5420 -0.3187
vn 0.9645 0.0769 -0.2528
vn 0.6789 -0.6722 -0.2955
vn 0.2864 0.8609 0.4204
vn 0.9525 0.2227 -0.2078
vn 0.9586 0.1048 -0.2648
vn 0.7758 -0.5220 -0.3543
vn 0.9638 0.0951 -0.2492
vn 0.0229 -0.9891 -0.1456
vn 0.0426 -0.9843 -0.1710
vn 0.6818 0.6929 0.2344
vn 0.6730 0.7376 -0.0552
vn 0.8729 0.4425 -0.2053
vn 0.9064 0.4132 -0.0884
vn 0.7089 0.6966 -0.1108
vn 0.6025 0.7896 -0.1162
vn -0.3243 0.8801 0.3467
vn -0.5036 -0.2157 0.8366
vn -0.9706 -0.0740 0.2291
vn -0.9920 -0.1081 0.0649
vn 0.9119 0.2107 -0.3522
vn -0.6083 -0.0652 0.7910
vn -0.9880 0.1517 -0.0273
vn -0.8466 0.1577 0.5084
vn -0.8138 0.4908 -0.3111
vn 0.9223 0.1029 -0.3725
vn 0.0021 -0.9805 -0.1966
vn 0.4908 0.8542 0.1714
vn 0.5968 0.3347 0.7292
vn -0.3452 0.9266 -0.1492
vn -0.9106 0.1147 -0.3970
vn -0.3771 0.8276 -0.4157
vn 0.7889 0.1319 0.6002
vn 0.4980 -0.3193 0.8062
vn 0.1680 -0.9795 0.1110
vn 0.0306 -0.9958 -0.0865
vn 0.7831 0.2677 -0.5613
vn 0.0115 0.1219 -0.9925
vn 0.8937 0.2157 -0.3935
vn 0.7336 0.1169 -0.6694
vn 0.6470 0.7604 -0.0556
vn 0.8743 0.4824 0.0533
vn 0.4195 0.9057 -0.0613
vn 0.0691 0.1905 -0.9793
vn 0.4619 0.8843 0.0679
vn -0.2862 0.8100 0.5119
vn -0.6816 0.2859 0.6735
vn -0.4667 -0.1132 0.8772
vn -0.8038 0.2428 0.5431
vn -0.3083 -0.2200 0.9255
vn -0.8413 -0.0259 0.5399
vn -0.6732 0.7141 0.1920
vn -0.1262 0.9860 -0.1093
vn -0.8380 0.3175 0.4439
vn -0.5174 0.8507 -0.0930
vn 0.9807 0.0228 -0.1944
vn 0.0287 -0.9849 -0.1706
vn 0.6922 0.6505 0.3127
vn 0.0699 0.9949 -0.0732
vn 0.2739 0.8816 0.3844
vn 0.4704 0.8824 -0.0001
vn 0.0295 0.6429 0.7654
vn -0.6220 0.2088 0.7547
vn -0.3594 0.4518 0.8165
vn -0.9534 0.3014 -0.0131
vn -0.6975 0.4721 -0.5391
vn -0.3073 0.9175 -0.2527
vn -0.0320 -0.9868 -0.1585
vn 0.7868 0.6160 -0.0386
vn -0.2390 0.7675 0.5949
vn -0.1747 0.7823 0.5978
vn -0.0505 0.9666 0.2513
vn -0.0480 0.4387 0.8974
vn 0.1136 -0.3426 0.9326
vn -0.8796 0.3881 -0.2752
vn -0.8226 0.2976 0.4845
vn -0.3513 -0.1179 0.9288
vn -0.8204 0.4837 0.3049
vn -0.5361 0.1358 0.8332
vn -0.8381 0.5247 0.1495
vn -0.6072 0.7942 0.0216
vn -0.8220 0.4771 0.3109
vn 0.2513 -0.3527 0.9014
vn 0.2053 0.9719 -0.1148
vn 0.5087 -0.3180 0.8001
vn -0.5423 0.7679 -0.3410
vn 0.0028 -0.9871 -0.1600
vn -0.2176 -0.9750 -0.0450
vn -0.0729 0.9941 -0.0804
vn -0.0015 0.9806 0.1960
vn 0.3265 -0.1820 0.9275
vn 0.2841 -0.2119 0.9351
vn -0.2925 0.7821 -0.5502
vn -0.2917 0.5017 -0.8144
vn 0.2335 0.6299 0.7407
vn -0.4280 0.4617 -0.7770
vn 0.8567 -0.0940 0.5072
vn -0.2550 0.7104 -0.6560
vn -0.2439 0.9200 0.3068
vn -0.8616 0.4803 0.1641
vn -0.0364 0.4988 -0.8660
vn -0.6296 0.2777 0.7256
vn -0.8679 0.4649 0.1751
vn 0.9413 0.2560 -0.2203
vn 0.9013 0.0470 0.4305
vn -0.2037 0.7836 0.5870
vn 0.4708 0.8822 -0.0046
vn -0.6767 -0.7251 0.1276
vn -0.8535 -0.0954 0.5122
vn -0.4747 0.3320 -0.8151
vn -0.4773 0.8632 -0.1643
vn 0.0414 0.9904 -0.1318
vn -0.7158 0.1891 0.6722
vn -0.3492 0.2520 0.9025
vn 0.1208 0.8490 0.5143
vn 0.8462 0.4961 -0.1944
vn 0.9560 0.1996 -0.2152
vn 0.9531 0.1374 -0.2699
vn 0.8703 0.3979 -0.2902
vn -0.2635 -0.0518 0.9633
vn -0.5931 -0.1721 0.7865
vn -0.8135 -0.0609 0.5784
vn -0.8570 -0.1175 0.5017
vn -0.9175 -0.1114 0.3819
vn -0.3731 -0.4564 0.8078
vn 0.1904 -0.1893 0.9633
vn -0.7829 -0.2348 0.5762
vn -0.8068 -0.1689 0.5662
vn -0.2376 -0.9570 0.1666
vn -0.4022 -0.9094 0.1056
vn 0.4307 0.1567 0.8888
vn 0.4405 -0.0295 0.8973
vn 0.4272 -0.0755 0.9010
vn -0.6188 0.1580 -0.7695
vn -0.0245 -0.9896 -0.1415
vn -0.0404 -0.6811 -0.7310
vn -0.7047 -0.7079 -0.0471
vn -0.8432 0.5359 0.0428
vn -0.0146 0.1701 -0.9853
vn 0.0197 0.9817 0.1893
vn -0.1259 -0.1768 0.9762
vn 0.2500 0.8627 0.4396
vn 0.3331 -0.2749 0.9020
vn 0.5853 -0.2015 0.7854
vn 0.2152 0.8388 0.5000
vn 0.5134 0.4177 -0.7497
vn -0.4035 0.9060 0.1278
vn 0.6903 -0.1847 0.6995
vn 0.7953 -0.1984 0.5728
vn 0.8698 0.1093 -0.4811
vn -0.2847 0.3526 -0.8914
vn -0.4178 0.8988 0.1329
vn 0.9803 -0.0942 0.1737
vn -0.9231 0.3459 0.1679
vn -0.9747 0.2141 0.0640
vn -0.8373 0.5299 -0.1346
vn -0.6135 0.5346 -0.5812
vn -0.3084 0.2309 0.9228
vn -0.0998 0.5806 -0.8080
vn 0.8916 0.4366 -0.1202
vn -0.9732 0.0011 0.2297
vn -0.7078 -0.7064 0.0051
vn -0.9802 -0.1722 0.0980
vn 0.2118 0.9722 0.0993
vn -0.1907 0.9771 -0.0941
vn 0.1310 0.4429 -0.8869
vn 0.7405 0.2466 0.6252
vn 0.7987 0.4299 -0.4211
vn 0.8732 0.4440 -0.2011
vn 0.7092 0.6172 -0.3407
vn 0.9801 0.1310 0.1491
vn 0.6556 0.5366 0.5312
vn 0.8076 0.5847 -0.0771
vn -0.8370 0.2739 0.4737
vn 0.6813 0.6948 0.2303
vn 0.8160 0.5777 0.0192
vn -0.8608 0.1648 0.4814
vn -0.9336 0.2927 0.2065
vn 0.5845 0.7852 -0.2046
vn 0.4211 -0.1405 0.8961
vn 0.8950 0.0155 0.4458
vn -0.8768 0.0523 0.4779
vn -0.9472 -0.0831 0.3098
vn -0.6872 -0.7178 0.1119
vn 0.3671 0.7056 0.6061
vn 0.2256 0.8122 0.5380
vn -0.2713 0.9615 0.0440
vn 0.3276 0.2951 0.8976
vn -0.3791 0.8946 0.2366
vn 0.9785 -0.2043 -0.0271
vn 0.7934 -0.2252 0.5655
vn 0.8796 0.0443 -0.4736
vn 0.9271 -0.2681 0.2620
vn -0.9688 0.1163 0.2189
vn 0.1439 0.5396 0.8295
vn -0.2701 0.9567 -0.1082
vn 0.6155 0.5971 -0.5144
vn 0.3607 0.9208 0.1488
vn -0.6937 -0.7021 0.1610
vn -0.5078 0.3304 0.7956
vn -0.9880 0.0498 0.1465
vn 0.6112 -0.0051 -0.7914
vn -0.9510 -0.0797 0.2987
vn -0.9158 -0.0820 0.3932
vn -0.9323 -0.0810 0.3525
vn -0.9159 -0.0819 0.3929
vn -0.9878 -0.0721 -0.1379
vn -0.9872 -0.1591 0.0106
vn -0.9981 0.0055 -0.0618
vn -0.9805 -0.0060 0.1963
vn -0.9668 -0.0894 0.2395
vn 0.8462 -0.1273 0.5175
vn 0.1695 0.8169 0.5514
vn 0.9444 0.1009 0.3129
vn 0.7014 0.0492 0.7110
vn 0.7132 -0.6409 -0.2839
vn 0.9703 0.2013 -0.1339
vn 0.7533 -0.5743 -0.3206
vn 0.8348 0.5504 -0.0136
vn 0.5880 0.7966 -0.1401
vn 0.1472 0.9860 -0.0777
vn 0.9507 0.1987 -0.2380
vn 0.9200 0.3625 -0.1490
vn 0.9371 0.1152 -0.3295
vn 0.9010 -0.2127 -0.3782
vn -0.1859 0.9539 0.2357
vn 0.2368 0.4689 0.8509
vn 0.8820 0.3822 -0.2758
vn -0.3626 0.6703 0.6475
vn -0.3287 0.6919 0.6428
vn -0.5208 -0.2219 0.8243
vn 0.9189 0.2256 -0.3237
vn -0.6703 -0.0908 0.7365
vn -0.9741 0.0296 0.2243
vn -0.9618 0.2484 0.1152
vn -0.6090 0.4747 -0.6354
vn 0.8357 0.2642 0.4816
vn 0.6550 0.2931 0.6964
vn -0.9382 0.3454 -0.0232
vn 0.4414 0.5561 0.7042
vn -0.8571 0.2169 -0.4674
vn -0.6336 0.3249 -0.7022
vn 0.0052 -0.9881 -0.1539
vn 0.4094 -0.5797 0.7045
vn 0.0008 0.1991 -0.9800
vn 0.6054 0.1746 -0.7765
vn 0.4631 0.1153 -0.8788
vn -0.0141 0.1353 -0.9907
vn 0.9221 -0.2756 -0.2717
vn 0.9177 0.3883 -0.0841
vn 0.4783 0.8744 0.0815
vn -0.1472 0.8436 0.5165
vn -0.4909 0.3942 0.7770
vn -0.2879 -0.1294 0.9489
vn -0.3590 0.3928 0.8466
vn -0.6770 0.6728 0.2984
vn 0.0276 -0.9838 -0.1771
vn -0.0326 -0.9868 -0.1589
vn 0.8914 0.4430 -0.0962
vn 0.5371 0.8434 0.0172
vn -0.6745 0.6589 0.3329
vn 0.3685 0.8115 0.4535
vn -0.9744 0.1364 0.1786
vn 0.0859 0.9894 0.1169
vn -0.5709 0.0474 0.8196
vn -0.8359 0.3974 -0.3787
vn -0.4125 0.4462 -0.7942
vn 0.2551 -0.3600 0.8974
vn -0.4275 0.8165 -0.3879
vn -0.0746 0.7552 -0.6512
vn 0.0428 -0.9844 -0.1706
vn -0.0304 -0.9876 -0.1541
vn -0.8744 0.2446 0.4190
vn -0.1909 0.8261 0.5302
vn -0.7207 0.2406 0.6502
vn -0.4549 -0.0208 0.8903
vn -0.0304 0.5957 0.8027
vn -0.7252 0.2531 0.6403
vn -0.8090 0.5347 -0.2440
vn -0.7685 0.2431 0.5918
vn -0.8219 0.5537 0.1340
vn -0.4963 0.3422 0.7978
vn -0.8369 0.4946 0.2346
vn 0.3715 -0.1227 0.9203
vn -0.7713 0.4260 0.4729
vn 0.1827 0.9194 0.3484
vn -0.6548 0.6425 -0.3980
vn 0.1131 -0.1032 0.9882
vn -0.4783 0.8041 -0.3532
vn -0.3338 0.8963 0.2918
vn -0.3279 0.9319 0.1552
vn 0.0114 -0.9910 -0.1332
vn -0.1802 -0.9816 -0.0627
vn 0.0022 0.9844 0.1761
vn -0.8726 0.3591 -0.3310
vn 0.2380 0.6287 0.7403
vn -0.3387 0.3191 -0.8852
vn -0.5733 0.5473 -0.6098
vn 0.7730 -0.0660 0.6310
vn -0.3039 0.9157 0.2629
vn -0.2930 0.9445 0.1483
vn -0.6536 0.7169 0.2428
vn 0.0957 0.4171 -0.9038
vn 0.0846 -0.1839 0.9793
vn 0.3416 -0.2536 0.9050
vn 0.0942 0.5493 -0.8303
vn 0.7856 -0.0064 0.6187
vn 0.8533 0.3832 -0.3536
vn -0.3167 0.5395 0.7802
vn 0.3289 0.8661 0.3764
vn 0.0060 0.5864 -0.8100
vn -0.9053 -0.1024 0.4123
vn -0.5705 -0.7914 0.2196
vn -0.3493 -0.9284 0.1267
vn -0.2593 -0.9658 -0.0102
vn -0.4676 0.7421 -0.4803
vn -0.4745 0.3317 -0.8154
vn -0.1223 0.7094 0.6941
vn -0.3587 0.7822 -0.5094
vn 0.3052 0.2206 -0.9264
vn -0.3431 0.2546 0.9041
vn 0.6025 0.1755 -0.7786
vn -0.6603 0.2342 0.7136
vn 0.9725 0.1698 -0.1594
vn -0.6970 0.5188 0.4950
vn 0.0788 0.5330 -0.8424
vn 0.5857 0.4340 -0.6845
vn -0.4221 -0.0055 0.9065
vn -0.3877 -0.0958 0.9168
vn -0.4484 -0.4701 0.7602
vn -0.1942 -0.2558 0.9470
vn -0.4699 -0.8563 0.2145
vn 0.4366 -0.0253 0.8993
vn 0.3841 -0.0174 0.9231
vn -0.0043 0.1871 -0.9823
vn -0.0104 0.2093 -0.9778
vn -0.0249 0.1560 -0.9874
vn -0.5953 0.1281 -0.7932
vn 0.0073 -0.9832 -0.1824
vn 0.0483 0.9888 0.1410
vn -0.7877 0.1164 0.6050
vn -0.2854 -0.0455 0.9573
vn 0.1587 -0.2799 0.9468
vn 0.1537 0.4517 -0.8788
vn 0.7234 -0.1306 0.6780
vn 0.9832 0.1229 -0.1348
vn 0.1890 0.8482 0.4948
vn 0.2243 0.8219 0.5236
vn -0.9680 0.2508 0.0032
vn 0.0680 0.4959 0.8657
vn 0.1284 0.9221 0.3649
vn -0.9174 0.3657 0.1572
vn 0.4635 -0.2689 0.8443
vn -0.0283 0.3737 0.9271
vn 0.5903 0.7945 0.1427
vn 0.8568 0.5091 0.0822
vn -0.9804 -0.0735 0.1830
vn -0.0235 -0.9891 -0.1452
vn -0.1976 0.5706 -0.7971
vn -0.2966 0.9525 -0.0697
vn -0.1893 0.9757 -0.1100
vn 0.9029 0.3778 0.2050
vn 0.8123 0.4144 -0.4105
vn 0.0193 0.9888 0.1480
vn 0.8599 0.4702 -0.1984
vn -0.4363 0.8649 0.2480
vn -0.6694 0.3703 0.6440
vn 0.4501 0.7820 -0.4311
vn -0.2215 0.2655 0.9383
vn -0.4912 0.5141 0.7032
vn 0.4552 -0.2691 0.8488
vn 0.1819 0.1572 0.9707
vn 0.9124 0.3893 0.1266
vn 0.7146 0.6117 -0.3393
vn -0.9621 -0.0889 0.2579
vn -0.9793 -0.0351 0.1993
vn -0.6705 -0.7351 0.1000
vn 0.4876 -0.4368 0.7559
vn 0.2938 0.9499 0.1066
vn -0.6380 -0.7160 0.2833
vn -0.9015 0.4053 0.1517
vn -0.4518 0.8891 0.0736
vn -0.9250 0.3791 0.0269
vn -0.4740 0.7170 -0.5111
vn -0.1128 0.9435 -0.3114
vn -0.0137 0.4779 -0.8783
vn 0.2440 0.5462 -0.8013
vn 0.6987 0.6226 0.3524
vn 0.8614 -0.2818 0.4226
vn 0.8851 -0.3312 0.3270
vn 0.9984 -0.0335 -0.0457
vn 0.9891 0.1428 -0.0368
vn 0.7806 0.6144 -0.1146
vn 0.7066 0.4758 -0.5238
vn 0.9734 0.1698 -0.1536
vn -0.9211 -0.1059 0.3746
vn 0.9218 0.0245 -0.3869
vn -0.9968 0.0123 0.0796
vn 0.0042 0.7765 -0.6301
vn 0.7326 0.6678 0.1315
vn 0.8769 0.4758 -0.0681
vn 0.5120 0.7005 -0.4971
vn -0.6288 -0.7718 0.0943
vn -0.9197 -0.0961 0.3808
vn -0.9593 -0.0942 0.2663
vn 0.6062 0.2493 -0.7552
vn 0.2197 0.8624 -0.4561
vn -0.9090 0.0512 0.4137
vn 0.9384 0.1663 -0.3029
vn -0.2081 0.6867 0.6966
vn -0.7710 -0.1177 0.6259
vn 0.9708 0.1052 -0.2158
vn -0.3441 0.7088 0.6157
vn -0.9505 -0.0367 0.3087
vn -0.7032 -0.6923 0.1617
vn -0.7421 -0.6217 0.2508
vn -0.6696 0.1311 -0.7311
vn -0.9301 -0.3649 -0.0423
vn -0.9891 0.1178 0.0884
vn -0.9975 0.0590 0.0392
s 0
f 15//1 2//1 3//1
f 6//2 3//2 2//2
f 1//3 38//3 5//3
f 15//4 14//4 2//4
f 45//5 2//5 13//5
f 13//6 2//6 14//6
f 29//7 45//7 13//7
f 14//8 29//8 13//8
f 4//9 2//9 35//9
f 2//10 1//10 6//10
f 16//11 59//11 18//11
f 62//12 18//12 17//12
f 19//13 62//13 17//13
f 20//14 18//14 22//14
f 21//15 20//15 22//15
f 17//16 18//16 20//16
f 23//17 17//17 20//17
f 24//18 88//18 26//18
f 18//19 86//19 27//19
f 22//20 27//20 28//20
f 22//21 28//21 21//21
f 18//22 27//22 22//22
f 21//23 29//23 30//23
f 23//24 21//24 82//24
f 37//25 25//25 31//25
f 37//26 31//26 32//26
f 37//27 38//27 35//27
f 24//28 37//28 36//28
f 38//29 37//29 39//29
f 37//30 32//30 39//30
f 39//31 40//31 41//31
f 43//32 42//32 44//32
f 43//33 8//33 40//33
f 40//34 8//34 41//34
f 36//35 35//35 45//35
f 44//36 46//36 47//36
f 47//37 48//37 8//37
f 47//38 46//38 49//38
f 49//39 50//39 48//39
f 27//40 45//40 29//40
f 29//41 14//41 30//41
f 38//42 39//42 52//42
f 38//43 52//43 5//43
f 41//44 54//44 52//44
f 8//45 54//45 41//45
f 54//46 53//46 52//46
f 53//47 55//47 5//47
f 15//48 3//48 152//48
f 14//49 15//49 56//49
f 14//50 56//50 57//50
f 61//51 58//51 59//51
f 60//52 69//52 58//52
f 61//53 59//53 16//53
f 63//54 16//54 62//54
f 65//55 58//55 67//55
f 58//56 66//56 68//56
f 58//57 68//57 67//57
f 69//58 66//58 58//58
f 66//59 69//59 73//59
f 68//60 73//60 70//60
f 70//61 71//61 68//61
f 78//62 93//62 72//62
f 74//63 71//63 70//63
f 70//64 75//64 74//64
f 76//65 71//65 74//65
f 76//66 165//66 71//66
f 165//67 77//67 72//67
f 78//68 79//68 93//68
f 80//69 81//69 79//69
f 16//70 18//70 62//70
f 64//71 19//71 83//71
f 86//72 65//72 87//72
f 65//73 89//73 90//73
f 65//74 90//74 91//74
f 87//75 91//75 92//75
f 67//76 68//76 89//76
f 89//77 68//77 71//77
f 71//78 72//78 93//78
f 93//79 79//79 90//79
f 79//80 95//80 91//80
f 96//81 94//81 91//81
f 83//82 82//82 84//82
f 86//83 87//83 88//83
f 88//84 92//84 102//84
f 92//85 103//85 102//85
f 94//86 97//86 92//86
f 92//87 97//87 103//87
f 103//88 105//88 99//88
f 101//89 106//89 25//89
f 108//90 101//90 26//90
f 102//91 99//91 100//91
f 104//92 100//92 113//92
f 108//93 107//93 109//93
f 110//94 111//94 101//94
f 113//95 114//95 107//95
f 100//96 116//96 113//96
f 105//97 195//97 99//97
f 115//98 117//98 114//98
f 114//99 117//99 118//99
f 110//100 112//100 111//100
f 213//101 21//101 30//101
f 213//102 138//102 121//102
f 33//103 122//103 31//103
f 122//104 34//104 32//104
f 124//105 123//105 44//105
f 44//106 42//106 124//106
f 33//107 126//107 122//107
f 126//108 33//108 106//108
f 34//109 127//109 124//109
f 112//110 125//110 106//110
f 123//111 124//111 128//111
f 126//112 129//112 122//112
f 122//113 129//113 130//113
f 130//114 131//114 147//114
f 125//115 112//115 132//115
f 129//116 131//116 130//116
f 131//117 149//117 147//117
f 134//118 136//118 135//118
f 136//119 123//119 128//119
f 133//120 50//120 49//120
f 136//121 134//121 50//121
f 138//122 139//122 140//122
f 137//123 140//123 139//123
f 141//124 54//124 51//124
f 53//125 142//125 55//125
f 142//126 145//126 143//126
f 143//127 145//127 146//127
f 143//128 157//128 5//128
f 127//129 147//129 124//129
f 148//130 145//130 141//130
f 128//131 147//131 148//131
f 148//132 147//132 145//132
f 135//133 128//133 144//133
f 146//134 155//134 157//134
f 155//135 153//135 151//135
f 146//136 149//136 155//136
f 149//137 156//137 155//137
f 149//138 137//138 156//138
f 153//139 154//139 56//139
f 151//140 152//140 3//140
f 153//141 156//141 154//141
f 155//142 156//142 153//142
f 57//143 56//143 154//143
f 30//144 57//144 156//144
f 157//145 1//145 5//145
f 150//146 6//146 1//146
f 150//147 151//147 6//147
f 218//148 60//148 158//148
f 161//149 83//149 182//149
f 159//150 64//150 161//150
f 161//151 182//151 162//151
f 164//152 165//152 76//152
f 163//153 69//153 60//153
f 163//154 166//154 73//154
f 74//155 75//155 167//155
f 166//156 168//156 75//156
f 167//157 75//157 168//157
f 168//158 170//158 167//158
f 166//159 175//159 168//159
f 169//160 181//160 172//160
f 173//161 166//161 163//161
f 170//162 168//162 171//162
f 171//163 168//163 174//163
f 172//164 174//164 169//164
f 173//165 163//165 60//165
f 173//166 176//166 166//166
f 174//167 175//167 177//167
f 173//168 60//168 178//168
f 178//169 179//169 176//169
f 12//170 11//170 165//170
f 11//171 77//171 165//171
f 167//172 12//172 164//172
f 77//173 11//173 181//173
f 171//174 172//174 181//174
f 219//175 183//175 85//175
f 182//176 85//176 183//176
f 219//177 182//177 183//177
f 169//178 184//178 77//178
f 96//179 185//179 186//179
f 185//180 96//180 98//180
f 184//181 189//181 187//181
f 98//182 187//182 185//182
f 169//183 174//183 189//183
f 169//184 189//184 184//184
f 189//185 191//185 187//185
f 191//186 190//186 192//186
f 191//187 192//187 186//187
f 186//188 193//188 188//188
f 177//189 176//189 192//189
f 189//190 177//190 190//190
f 179//191 193//191 192//191
f 176//192 179//192 192//192
f 81//193 180//193 194//193
f 99//194 195//194 10//194
f 180//195 184//195 187//195
f 179//196 197//196 193//196
f 179//197 85//197 197//197
f 198//198 84//198 214//198
f 97//199 199//199 105//199
f 97//200 200//200 199//200
f 97//201 186//201 200//201
f 199//202 200//202 201//202
f 188//203 205//203 202//203
f 201//204 200//204 202//204
f 117//205 208//205 212//205
f 206//206 201//206 207//206
f 9//207 195//207 201//207
f 197//208 211//208 193//208
f 109//209 118//209 120//209
f 116//210 196//210 210//210
f 132//211 212//211 209//211
f 196//212 10//212 210//212
f 214//213 213//213 217//213
f 129//214 215//214 131//214
f 131//215 137//215 149//215
f 209//216 208//216 132//216
f 205//217 215//217 203//217
f 137//218 217//218 140//218
f 216//219 214//219 217//219
f 216//220 217//220 137//220
f 160//221 159//221 219//221
f 219//222 159//222 162//222
f 218//223 160//223 219//223
f 178//224 218//224 219//224
f 219//225 162//225 182//225
f 9//226 10//226 195//226
f 11//227 12//227 170//227
f 35//228 2//228 45//228
f 4//229 1//229 2//229
f 17//230 23//230 19//230
f 59//231 86//231 18//231
f 23//232 20//232 21//232
f 25//233 37//233 24//233
f 86//234 88//234 24//234
f 24//235 26//235 25//235
f 86//236 36//236 27//236
f 24//237 36//237 86//237
f 27//238 29//238 28//238
f 28//239 29//239 21//239
f 25//240 33//240 31//240
f 32//241 34//241 42//241
f 37//242 35//242 36//242
f 32//243 40//243 39//243
f 32//244 42//244 40//244
f 40//245 42//245 43//245
f 36//246 45//246 27//246
f 43//247 44//247 47//247
f 47//248 8//248 43//248
f 49//249 48//249 47//249
f 51//250 48//250 50//250
f 38//251 4//251 35//251
f 38//252 1//252 4//252
f 41//253 52//253 39//253
f 53//254 5//254 52//254
f 48//255 54//255 8//255
f 51//256 54//256 48//256
f 14//257 57//257 30//257
f 15//258 152//258 56//258
f 58//259 61//259 60//259
f 61//260 16//260 63//260
f 63//261 62//261 64//261
f 64//262 159//262 63//262
f 64//263 62//263 19//263
f 58//264 65//264 59//264
f 66//265 73//265 68//265
f 73//266 75//266 70//266
f 165//267 72//267 71//267
f 72//268 7//268 78//268
f 7//269 80//269 78//269
f 80//270 79//270 78//270
f 19//271 82//271 83//271
f 83//272 84//272 85//272
f 65//273 86//273 59//273
f 87//274 92//274 88//274
f 67//275 89//275 65//275
f 65//276 91//276 87//276
f 93//277 90//277 89//277
f 91//278 94//278 92//278
f 89//279 71//279 93//279
f 79//280 91//280 90//280
f 95//281 96//281 91//281
f 77//282 7//282 72//282
f 81//283 95//283 79//283
f 98//284 95//284 81//284
f 19//285 23//285 82//285
f 82//286 213//286 84//286
f 101//287 25//287 26//287
f 88//288 102//288 26//288
f 104//289 26//289 102//289
f 103//290 99//290 102//290
f 97//291 105//291 103//291
f 26//292 104//292 108//292
f 111//293 106//293 101//293
f 100//294 104//294 102//294
f 104//295 113//295 107//295
f 107//296 108//296 104//296
f 110//297 101//297 108//297
f 107//298 114//298 109//298
f 109//299 110//299 108//299
f 113//300 115//300 114//300
f 116//301 115//301 113//301
f 114//302 118//302 109//302
f 119//303 112//303 110//303
f 109//304 120//304 110//304
f 120//305 119//305 110//305
f 82//306 21//306 213//306
f 30//307 138//307 213//307
f 122//308 32//308 31//308
f 106//309 33//309 25//309
f 34//310 124//310 42//310
f 126//311 106//311 125//311
f 112//312 106//312 111//312
f 124//313 147//313 128//313
f 122//314 130//314 34//314
f 34//315 130//315 127//315
f 130//316 147//316 127//316
f 126//317 125//317 132//317
f 133//318 46//318 44//318
f 123//319 133//319 44//319
f 135//320 51//320 134//320
f 133//321 123//321 136//321
f 136//322 128//322 135//322
f 133//323 49//323 46//323
f 133//324 136//324 50//324
f 50//325 134//325 51//325
f 137//326 139//326 156//326
f 138//327 140//327 121//327
f 30//328 156//328 139//328
f 30//329 139//329 138//329
f 142//330 53//330 54//330
f 142//331 54//331 141//331
f 55//332 143//332 5//332
f 142//333 143//333 55//333
f 141//334 145//334 142//334
f 146//335 157//335 143//335
f 148//336 141//336 144//336
f 145//337 149//337 146//337
f 128//338 148//338 144//338
f 149//339 145//339 147//339
f 141//340 51//340 135//340
f 135//341 144//341 141//341
f 155//342 150//342 157//342
f 155//343 151//343 150//343
f 153//344 56//344 152//344
f 153//345 152//345 151//345
f 57//346 154//346 156//346
f 157//347 150//347 1//347
f 151//348 3//348 6//348
f 60//349 61//349 158//349
f 158//350 61//350 63//350
f 63//351 159//351 158//351
f 159//352 160//352 158//352
f 64//353 83//353 161//353
f 163//354 73//354 69//354
f 164//355 76//355 74//355
f 74//356 167//356 164//356
f 166//357 75//357 73//357
f 77//358 181//358 169//358
f 168//359 175//359 174//359
f 171//360 174//360 172//360
f 176//361 175//361 166//361
f 175//362 176//362 177//362
f 173//363 178//363 176//363
f 7//364 180//364 80//364
f 180//365 81//365 80//365
f 12//366 165//366 164//366
f 7//367 77//367 180//367
f 167//368 170//368 12//368
f 170//369 181//369 11//369
f 170//370 171//370 181//370
f 219//371 85//371 179//371
f 83//372 85//372 182//372
f 96//373 95//373 98//373
f 96//374 97//374 94//374
f 96//375 186//375 97//375
f 189//376 190//376 191//376
f 191//377 185//377 187//377
f 191//378 186//378 185//378
f 174//379 177//379 189//379
f 177//380 192//380 190//380
f 193//381 186//381 192//381
f 81//382 194//382 98//382
f 99//383 196//383 100//383
f 196//384 116//384 100//384
f 184//385 180//385 77//385
f 99//386 10//386 196//386
f 180//387 187//387 194//387
f 194//388 187//388 98//388
f 85//389 198//389 211//389
f 85//390 211//390 197//390
f 84//391 198//391 85//391
f 199//392 195//392 105//392
f 202//393 203//393 204//393
f 186//394 188//394 200//394
f 188//395 202//395 200//395
f 202//396 205//396 203//396
f 193//397 205//397 188//397
f 210//398 115//398 116//398
f 115//399 206//399 117//399
f 115//400 210//400 206//400
f 117//401 206//401 207//401
f 207//402 208//402 117//402
f 117//403 212//403 118//403
f 195//404 199//404 201//404
f 208//405 209//405 212//405
f 207//406 202//406 208//406
f 10//407 9//407 210//407
f 9//408 206//408 210//408
f 201//409 202//409 207//409
f 211//410 216//410 215//410
f 9//411 201//411 206//411
f 211//412 205//412 193//412
f 132//413 112//413 119//413
f 118//414 212//414 119//414
f 118//415 119//415 120//415
f 119//416 212//416 132//416
f 213//417 214//417 84//417
f 211//418 214//418 216//418
f 198//419 214//419 211//419
f 126//420 132//420 204//420
f 126//421 215//421 129//421
f 131//422 216//422 137//422
f 208//423 204//423 132//423
f 204//424 215//424 126//424
f 216//425 131//425 215//425
f 202//426 204//426 208//426
f 204//427 203//427 215//427
f 205//428 211//428 215//428
f 121//429 217//429 213//429
f 217//430 121//430 140//430
f 158//431 160//431 218//431
f 161//432 162//432 159//432
f 60//433 218//433 178//433
f 219//434 179//434 178//434
