# Blender 4.3.2
# www.blender.org
mtllib WilliamsProbe.mtl
o WilliamsProbe
v -0.023383 0.015395 0.242952
v -0.023383 0.042427 0.242956
v 0.023438 0.042427 0.242956
v 0.023438 0.015395 0.242952
v 0.000027 0.001875 0.242950
v 0.000027 0.007303 0.242831
v -0.007819 0.008606 0.242831
v -0.014718 0.012358 0.242832
v -0.019839 0.018107 0.242833
v -0.022564 0.025159 0.242834
v -0.022564 0.032663 0.242835
v -0.019839 0.039715 0.242836
v -0.014718 0.045464 0.242837
v -0.007819 0.049216 0.242837
v 0.000027 0.050519 0.242837
v 0.007873 0.049216 0.242837
v 0.014773 0.045464 0.242837
v 0.019893 0.039715 0.242836
v 0.022618 0.032663 0.242835
v 0.022618 0.025159 0.242834
v 0.019894 0.018107 0.242833
v 0.014773 0.012358 0.242832
v 0.007873 0.008606 0.242831
v 0.000027 0.009210 0.237988
v -0.007126 0.010398 0.237988
v -0.013417 0.013819 0.237989
v -0.018086 0.019061 0.237990
v -0.020571 0.025490 0.237991
v -0.020571 0.032333 0.237992
v -0.018086 0.038763 0.237992
v -0.013417 0.044004 0.237993
v -0.007126 0.047425 0.237994
v 0.000027 0.048614 0.237994
v 0.007181 0.047425 0.237994
v 0.013472 0.044004 0.237993
v 0.018141 0.038763 0.237992
v 0.020625 0.032333 0.237992
v 0.020625 0.025490 0.237991
v 0.018141 0.019061 0.237990
v 0.013472 0.013819 0.237989
v 0.007181 0.010398 0.237988
v 0.000027 0.010789 0.232069
v -0.006553 0.011882 0.232069
v -0.012340 0.015029 0.232069
v -0.016636 0.019851 0.232070
v -0.018921 0.025765 0.232071
v -0.018921 0.032060 0.232072
v -0.016636 0.037974 0.232073
v -0.012340 0.042796 0.232073
v -0.006553 0.045943 0.232074
v 0.000027 0.047036 0.232074
v 0.006608 0.045943 0.232074
v 0.012395 0.042796 0.232073
v 0.016690 0.037974 0.232073
v 0.018976 0.032060 0.232072
v 0.018976 0.025765 0.232071
v 0.016690 0.019851 0.232070
v 0.012395 0.015029 0.232069
v 0.006608 0.011882 0.232069
v 0.000027 0.012401 0.226191
v -0.005968 0.013397 0.226191
v -0.011241 0.016264 0.226192
v -0.015154 0.020657 0.226192
v -0.017236 0.031781 0.226194
v -0.015154 0.037169 0.226195
v -0.011241 0.041563 0.226195
v 0.006023 0.044430 0.226196
v 0.011295 0.041563 0.226195
v 0.015209 0.037169 0.226195
v 0.017291 0.031781 0.226194
v 0.017291 0.026046 0.226193
v 0.015209 0.020657 0.226192
v 0.011295 0.016264 0.226192
v 0.006023 0.013397 0.226191
v 0.023437 0.015400 1.662897
v 0.023437 0.042432 1.662901
v 0.000026 0.055948 1.662903
v -0.023384 0.042432 1.662901
v 0.000027 0.055943 0.242958
v 0.023437 0.015396 0.532347
v 0.023437 0.015397 0.821743
v 0.023437 0.015398 1.111138
v 0.023437 0.015399 1.400534
v 0.000027 0.001883 1.400532
v 0.000027 0.001882 1.111136
v 0.000027 0.001881 0.821741
v 0.000027 0.001880 0.532345
v 0.023437 0.042428 0.532351
v 0.023437 0.042429 0.821747
v 0.023437 0.042430 1.111142
v 0.023437 0.042431 1.400538
v 0.000027 0.055944 0.532353
v 0.000027 0.055945 0.821748
v 0.000027 0.055946 1.111144
v 0.000027 0.055947 1.400540
v -0.023383 0.042428 0.532351
v -0.023383 0.042429 0.821747
v -0.023384 0.042430 1.111142
v -0.023384 0.042431 1.400538
v -0.023383 0.015396 0.532347
v -0.023383 0.015397 0.821743
v -0.023384 0.015398 1.111138
v -0.023384 0.015399 1.400534
v 0.000026 0.001884 1.662895
v -0.023384 0.015400 1.662897
v 0.000026 0.028913 1.683173
v 0.000026 0.007889 1.674159
v 0.000026 0.016899 1.680918
v 0.018234 0.018402 1.674161
v 0.010431 0.022906 1.680919
v 0.018234 0.039427 1.674164
v 0.010431 0.034920 1.680921
v 0.000026 0.049939 1.674165
v 0.000026 0.040927 1.680922
v -0.018182 0.039427 1.674164
v -0.010378 0.034920 1.680921
v -0.010378 0.022906 1.680919
v -0.018182 0.018402 1.674161
v -0.017236 0.026046 0.226193
v -0.005968 0.044430 0.226196
v 0.000027 0.045426 0.226196
v 0.000027 0.015227 0.202537
v -0.004688 0.016053 0.202537
v -0.008834 0.018430 0.202537
v -0.011911 0.022072 0.202538
v -0.013549 0.026540 0.202539
v -0.013549 0.031294 0.202539
v -0.011911 0.035762 0.202540
v -0.008834 0.039404 0.202541
v -0.004688 0.041782 0.202541
v 0.000027 0.042607 0.202541
v 0.004742 0.041782 0.202541
v 0.008888 0.039404 0.202541
v 0.011966 0.035762 0.202540
v 0.013603 0.031294 0.202539
v 0.013603 0.026540 0.202539
v 0.011966 0.022072 0.202538
v 0.008888 0.018430 0.202537
v 0.004742 0.016053 0.202537
v -0.002936 0.020834 0.195224
v -0.005541 0.022327 0.195224
v -0.005541 0.035508 0.195226
v -0.002936 0.037001 0.195226
v 0.000027 0.037520 0.195226
v 0.002990 0.037001 0.195226
v 0.005596 0.022327 0.195224
v -0.002765 0.035664 0.158466
v -0.005132 0.034082 0.158466
v -0.006714 0.031715 0.158465
v -0.007270 0.028923 0.158465
v -0.005132 0.023763 0.158464
v -0.002765 0.022181 0.158464
v 0.000027 0.021626 0.158464
v 0.005187 0.023763 0.158464
v 0.006769 0.026130 0.158465
v 0.006769 0.031715 0.158465
v 0.005187 0.034082 0.158466
v 0.002820 0.035664 0.158466
v 0.000027 0.035459 0.102898
v -0.002474 0.034961 0.102898
v -0.004594 0.033544 0.102897
v -0.006011 0.031424 0.102897
v -0.006509 0.028923 0.102897
v -0.006011 0.026421 0.102897
v -0.004594 0.024301 0.102896
v -0.002474 0.022884 0.102896
v 0.000027 0.022387 0.102896
v 0.002529 0.022884 0.102896
v 0.004649 0.024301 0.102896
v 0.006066 0.026421 0.102897
v 0.006563 0.028923 0.102897
v 0.006066 0.031424 0.102897
v 0.004649 0.033544 0.102897
v 0.002529 0.034961 0.102898
v 0.000027 0.020315 0.195224
v -0.007475 0.024616 0.195224
v -0.008504 0.027424 0.195225
v -0.008504 0.030411 0.195225
v -0.007475 0.033219 0.195225
v 0.005596 0.035508 0.195226
v 0.007529 0.033219 0.195226
v 0.008558 0.030411 0.195225
v 0.008558 0.027424 0.195225
v 0.007529 0.024616 0.195224
v 0.002990 0.020834 0.195224
v 0.000027 0.019689 0.203594
v -0.003277 0.020245 0.203594
v -0.006183 0.021848 0.203594
v -0.008340 0.024303 0.203595
v -0.009488 0.027314 0.203595
v -0.009488 0.030519 0.203596
v -0.008340 0.033530 0.203596
v -0.006183 0.035985 0.203596
v -0.003277 0.037587 0.203597
v 0.000027 0.038144 0.203597
v 0.003332 0.037587 0.203597
v 0.006238 0.035985 0.203596
v 0.008395 0.033530 0.203596
v 0.009542 0.030519 0.203596
v 0.009542 0.027314 0.203595
v 0.008395 0.024303 0.203595
v 0.006238 0.021848 0.203594
v 0.003332 0.020245 0.203594
v 0.000027 0.036220 0.158466
v -0.006714 0.026130 0.158465
v 0.002820 0.022181 0.158464
v 0.007324 0.028923 0.158465
v 0.000027 0.037271 0.195733
v -0.003169 0.036635 0.195733
v -0.005880 0.034824 0.195733
v -0.007690 0.032114 0.195733
v -0.008326 0.028917 0.195732
v -0.007690 0.025721 0.195732
v -0.005880 0.023011 0.195731
v -0.003169 0.021200 0.195731
v 0.000027 0.020564 0.195731
v 0.003224 0.021200 0.195731
v 0.005934 0.023011 0.195731
v 0.007745 0.025721 0.195732
v 0.008381 0.028917 0.195732
v 0.007745 0.032114 0.195733
v 0.005934 0.034824 0.195733
v 0.003224 0.036635 0.195733
v 0.000027 0.035581 0.101729
v -0.002474 0.035091 0.101643
v -0.004594 0.033696 0.101397
v -0.006011 0.031608 0.101028
v -0.006509 0.029144 0.100594
v -0.006011 0.026681 0.100160
v -0.004594 0.024593 0.099790
v -0.002474 0.023198 0.099544
v 0.000027 0.022708 0.099458
v 0.002529 0.023198 0.099544
v 0.004649 0.024593 0.099790
v 0.006066 0.026681 0.100160
v 0.006563 0.029144 0.100594
v 0.006066 0.031608 0.101028
v 0.004649 0.033696 0.101397
v 0.002529 0.035091 0.101643
v 0.000027 0.035904 0.100600
v -0.002474 0.035437 0.100430
v -0.004594 0.034106 0.099945
v -0.006011 0.032113 0.099220
v -0.006509 0.029763 0.098364
v -0.006011 0.027412 0.097509
v -0.004594 0.025420 0.096783
v -0.002474 0.024089 0.096298
v 0.000027 0.023621 0.096128
v 0.002529 0.024089 0.096298
v 0.004649 0.025420 0.096783
v 0.006066 0.027412 0.097509
v 0.006563 0.029763 0.098364
v 0.006066 0.032113 0.099220
v 0.004649 0.034106 0.099945
v 0.002529 0.035437 0.100430
v 0.000027 0.036419 0.099544
v -0.002474 0.035988 0.099296
v 0.002529 0.025530 0.093256
v 0.004649 0.026757 0.093964
v 0.006066 0.028593 0.095025
v 0.006563 0.030759 0.096276
v 0.006066 0.032925 0.097527
v 0.004649 0.034761 0.098587
v 0.002529 0.035988 0.099296
v -0.004625 0.034779 0.098574
v -0.006046 0.032946 0.097515
v -0.006548 0.030780 0.096264
v -0.006056 0.028614 0.095013
v -0.004643 0.026775 0.093951
v -0.002525 0.025545 0.093240
v -0.000025 0.025110 0.092989
v -0.000008 0.103919 -0.028645
v -0.001303 0.103725 -0.028761
v -0.002393 0.103166 -0.029096
v -0.003105 0.102328 -0.029597
v -0.003335 0.101339 -0.030189
v -0.003058 0.100349 -0.030782
v -0.002329 0.099509 -0.031285
v -0.001263 0.098946 -0.031621
v -0.000020 0.098747 -0.031741
v 0.001225 0.098942 -0.031624
v 0.002293 0.099501 -0.031290
v 0.003026 0.100339 -0.030788
v 0.003308 0.101328 -0.030196
v 0.003082 0.102318 -0.029604
v 0.002374 0.103158 -0.029101
v 0.001287 0.103720 -0.028764
v -0.000008 0.104882 -0.030889
v -0.001304 0.104663 -0.030950
v -0.002393 0.104037 -0.031128
v -0.003106 0.103098 -0.031396
v -0.003336 0.101989 -0.031711
v -0.003059 0.100879 -0.032028
v -0.002329 0.099937 -0.032296
v -0.001264 0.099307 -0.032476
v -0.000020 0.099085 -0.032541
v 0.001225 0.099303 -0.032479
v 0.002293 0.099930 -0.032301
v 0.003026 0.100869 -0.032034
v 0.003307 0.101978 -0.031718
v 0.003082 0.103087 -0.031402
v 0.002373 0.104029 -0.031133
v 0.001286 0.104659 -0.030953
v -0.000010 0.105230 -0.033306
v -0.001306 0.105003 -0.033308
v -0.002395 0.104352 -0.033317
v -0.003107 0.103375 -0.033332
v -0.003337 0.102222 -0.033350
v -0.003060 0.101069 -0.033368
v -0.002330 0.100090 -0.033384
v -0.001264 0.099435 -0.033396
v -0.000021 0.099203 -0.033401
v 0.001224 0.099431 -0.033398
v 0.002292 0.100082 -0.033389
v 0.003025 0.101058 -0.033374
v 0.003306 0.102211 -0.033357
v 0.003080 0.103365 -0.033338
v 0.002371 0.104344 -0.033322
v 0.001284 0.104999 -0.033311
v -0.000013 0.104942 -0.035730
v -0.001309 0.104721 -0.035673
v -0.002398 0.104089 -0.035513
v -0.003110 0.103142 -0.035274
v -0.003339 0.102024 -0.034993
v -0.003062 0.100905 -0.034712
v -0.002331 0.099955 -0.034475
v -0.001266 0.099320 -0.034317
v -0.000022 0.099095 -0.034262
v 0.001223 0.099316 -0.034319
v 0.002290 0.099948 -0.034479
v 0.003023 0.100895 -0.034718
v 0.003304 0.102013 -0.035000
v 0.003078 0.103132 -0.035280
v 0.002369 0.104081 -0.035518
v 0.001282 0.104717 -0.035676
v -0.000032 0.104035 -0.037998
v -0.001327 0.103837 -0.037885
v -0.002416 0.103268 -0.037566
v -0.003127 0.102415 -0.037090
v -0.003356 0.101407 -0.036528
v -0.003078 0.100399 -0.035968
v -0.002348 0.099543 -0.035493
v -0.001282 0.098971 -0.035176
v -0.000038 0.098768 -0.035066
v 0.001207 0.098966 -0.035179
v 0.002274 0.099535 -0.035498
v 0.003006 0.100389 -0.035974
v 0.003287 0.101396 -0.036535
v 0.003060 0.102404 -0.037096
v 0.002350 0.103260 -0.037571
v 0.001263 0.103832 -0.037887
v -0.000036 0.102573 -0.039953
v -0.001332 0.102410 -0.039792
v -0.002420 0.101943 -0.039336
v -0.003131 0.101242 -0.038655
v -0.003359 0.100414 -0.037852
v -0.003081 0.099585 -0.037050
v -0.002350 0.098882 -0.036370
v -0.001283 0.098411 -0.035917
v -0.000039 0.098244 -0.035758
v 0.001205 0.098406 -0.035919
v 0.002272 0.098874 -0.036375
v 0.003004 0.099575 -0.037056
v 0.003284 0.100403 -0.037859
v 0.003056 0.101231 -0.038661
v 0.002346 0.101935 -0.039341
v 0.001259 0.102406 -0.039795
v -0.000041 0.100541 -0.041361
v -0.001299 0.100433 -0.041170
v -0.002366 0.100124 -0.040631
v -0.003079 0.099660 -0.039824
v -0.003329 0.099112 -0.038874
v -0.003078 0.098562 -0.037924
v -0.002366 0.098096 -0.037119
v -0.001299 0.097783 -0.036581
v -0.000041 0.097672 -0.036394
v 0.001217 0.097779 -0.036584
v 0.002284 0.098088 -0.037123
v 0.002996 0.098552 -0.037930
v 0.003246 0.099101 -0.038881
v 0.002996 0.099650 -0.039831
v 0.002283 0.100117 -0.040636
v 0.001217 0.100429 -0.041173
v -0.000289 -0.013475 -0.102661
v -0.000868 -0.009524 -0.099000
v -0.000649 -0.012021 -0.100878
v 0.000001 -0.013502 -0.102609
v -0.000020 -0.009602 -0.098860
v -0.000016 -0.012087 -0.100771
v -0.000708 -0.012958 -0.103547
v -0.002068 -0.008177 -0.101395
v -0.001557 -0.010923 -0.102772
v -0.000290 -0.012748 -0.103915
v -0.000869 -0.007617 -0.102386
v -0.000655 -0.010462 -0.103562
v 0.000290 -0.013473 -0.102659
v 0.000828 -0.009522 -0.098999
v 0.000617 -0.012022 -0.100881
v 0.000708 -0.013261 -0.103024
v 0.002027 -0.008963 -0.099991
v 0.001517 -0.011568 -0.101661
v -0.000707 -0.013262 -0.103024
v -0.002068 -0.008967 -0.099993
v -0.001551 -0.011569 -0.101659
v 0.000710 -0.012957 -0.103547
v 0.002027 -0.008173 -0.101393
v 0.001523 -0.010923 -0.102773
v 0.000292 -0.012745 -0.103914
v 0.000827 -0.007615 -0.102385
v 0.000623 -0.010465 -0.103564
v 0.000539 -0.013389 -0.102804
v 0.001547 -0.009298 -0.099396
v 0.001155 -0.011841 -0.101193
v -0.000540 -0.012830 -0.103768
v -0.001587 -0.007841 -0.101989
v -0.001197 -0.010648 -0.103245
v -0.000767 -0.013110 -0.103286
v -0.002236 -0.008572 -0.100694
v -0.001681 -0.011247 -0.102214
v 0.000769 -0.013109 -0.103285
v 0.002196 -0.008567 -0.100692
v 0.001647 -0.011246 -0.102216
v -0.000538 -0.013389 -0.102804
v -0.001587 -0.009301 -0.099398
v -0.001188 -0.011841 -0.101190
v 0.000541 -0.012829 -0.103768
v 0.001546 -0.007838 -0.101988
v 0.001163 -0.010649 -0.103247
v 0.000001 -0.012716 -0.103965
v -0.000021 -0.007537 -0.102525
v -0.000002 -0.010401 -0.103676
v -0.000002 -0.013805 -0.103681
v 0.000016 0.075784 -0.054872
v 0.000006 0.073177 -0.056357
v 0.002136 0.072516 -0.055179
v 0.002157 0.075121 -0.053693
v -0.001624 0.071340 -0.053104
v -0.001623 0.073944 -0.051614
v -0.000871 0.073711 -0.051200
v -0.000876 0.071108 -0.052691
v 0.000016 0.073630 -0.051054
v 0.000006 0.071027 -0.052545
v -0.002124 0.071689 -0.053723
v -0.002125 0.074293 -0.052234
v -0.002300 0.072100 -0.054452
v -0.002302 0.074705 -0.052964
v -0.002124 0.072511 -0.055181
v -0.002126 0.075117 -0.053695
v -0.001624 0.072861 -0.055799
v -0.001623 0.075467 -0.054314
v -0.000877 0.073094 -0.056212
v -0.000871 0.075701 -0.054728
v 0.000903 0.073713 -0.051199
v 0.000888 0.071110 -0.052690
v 0.001636 0.071344 -0.053103
v 0.001655 0.073947 -0.051612
v 0.002136 0.071693 -0.053721
v 0.002157 0.074297 -0.052232
v 0.002311 0.072104 -0.054450
v 0.002333 0.074709 -0.052962
v 0.001654 0.075470 -0.054312
v 0.001636 0.072864 -0.055798
v 0.000902 0.075703 -0.054727
v 0.000888 0.073096 -0.056211
v -0.000017 0.067093 -0.059832
v -0.000006 0.064489 -0.061320
v 0.002124 0.063827 -0.060142
v 0.002113 0.066432 -0.058654
v -0.001636 0.062652 -0.058067
v -0.001647 0.065257 -0.056579
v -0.000899 0.065024 -0.056166
v -0.000888 0.062419 -0.057654
v -0.000017 0.064943 -0.056020
v -0.000005 0.062338 -0.057508
v -0.002136 0.063000 -0.058686
v -0.002147 0.065605 -0.057198
v -0.002311 0.063411 -0.059415
v -0.002322 0.066016 -0.057927
v -0.002136 0.063823 -0.060144
v -0.002147 0.066428 -0.058656
v -0.001636 0.064172 -0.060762
v -0.001647 0.066777 -0.059274
v -0.000888 0.064406 -0.061175
v -0.000899 0.067011 -0.059687
v 0.000865 0.065026 -0.056165
v 0.000877 0.062421 -0.057653
v 0.001625 0.062655 -0.058066
v 0.001613 0.065260 -0.056578
v 0.002124 0.063004 -0.058684
v 0.002113 0.065609 -0.057196
v 0.002300 0.063416 -0.059413
v 0.002288 0.066021 -0.057925
v 0.001613 0.066780 -0.059273
v 0.001624 0.064175 -0.060761
v 0.000865 0.067013 -0.059686
v 0.000876 0.064408 -0.061174
v -0.000010 0.058417 -0.064788
v -0.000024 0.055813 -0.066278
v 0.002106 0.055152 -0.065101
v 0.002120 0.057755 -0.063610
v -0.001654 0.053977 -0.063026
v -0.001640 0.056580 -0.061535
v -0.000892 0.056348 -0.061122
v -0.000906 0.053744 -0.062612
v -0.000009 0.056267 -0.060976
v -0.000024 0.053663 -0.062467
v -0.002154 0.054325 -0.063644
v -0.002140 0.056928 -0.062154
v -0.002329 0.054736 -0.064374
v -0.002315 0.057340 -0.062883
v -0.002154 0.055148 -0.065103
v -0.002140 0.057751 -0.063612
v -0.001654 0.055497 -0.065721
v -0.001640 0.058101 -0.064230
v -0.000906 0.055731 -0.066134
v -0.000892 0.058334 -0.064643
v 0.000873 0.056350 -0.061121
v 0.000859 0.053746 -0.062611
v 0.001607 0.053980 -0.063024
v 0.001621 0.056583 -0.061534
v 0.002106 0.054329 -0.063642
v 0.002120 0.056933 -0.062152
v 0.002282 0.054741 -0.064372
v 0.002296 0.057344 -0.062881
v 0.001620 0.058104 -0.064229
v 0.001606 0.055500 -0.065719
v 0.000872 0.058336 -0.064642
v 0.000858 0.055733 -0.066133
v -0.000017 0.049743 -0.069762
v -0.000007 0.047141 -0.071255
v 0.002123 0.046479 -0.070078
v 0.002113 0.049081 -0.068585
v -0.001637 0.045304 -0.068003
v -0.001647 0.047906 -0.066510
v -0.000899 0.047674 -0.066096
v -0.000889 0.045071 -0.067589
v -0.000017 0.047593 -0.065951
v -0.000006 0.044991 -0.067444
v -0.002137 0.045652 -0.068621
v -0.002147 0.048254 -0.067128
v -0.002312 0.046063 -0.069351
v -0.002322 0.048665 -0.067857
v -0.002137 0.046475 -0.070080
v -0.002147 0.049077 -0.068587
v -0.001637 0.046824 -0.070698
v -0.001647 0.049426 -0.069205
v -0.000889 0.047058 -0.071111
v -0.000899 0.049660 -0.069617
v 0.000866 0.047675 -0.066095
v 0.000876 0.045073 -0.067588
v 0.001624 0.045307 -0.068001
v 0.001614 0.047909 -0.066508
v 0.002123 0.045656 -0.068619
v 0.002113 0.048258 -0.067126
v 0.002299 0.046068 -0.069348
v 0.002289 0.048670 -0.067855
v 0.001613 0.049429 -0.069203
v 0.001623 0.046827 -0.070696
v 0.000865 0.049662 -0.069617
v 0.000875 0.047060 -0.071110
v -0.000022 0.032397 -0.079716
v -0.000032 0.029795 -0.081209
v 0.002098 0.029133 -0.080031
v 0.002108 0.031735 -0.078538
v -0.001662 0.027958 -0.077956
v -0.001652 0.030560 -0.076463
v -0.000904 0.030328 -0.076050
v -0.000914 0.027726 -0.077543
v -0.000022 0.030247 -0.075904
v -0.000032 0.027645 -0.077397
v -0.002162 0.028306 -0.078575
v -0.002152 0.030908 -0.077082
v -0.002338 0.028718 -0.079304
v -0.002327 0.031320 -0.077811
v -0.002162 0.029129 -0.080033
v -0.002152 0.031731 -0.078540
v -0.001663 0.029478 -0.080652
v -0.001652 0.032080 -0.079158
v -0.000915 0.029712 -0.081064
v -0.000904 0.032314 -0.079571
v 0.000860 0.030329 -0.076049
v 0.000850 0.027727 -0.077542
v 0.001598 0.027961 -0.077955
v 0.001608 0.030563 -0.076462
v 0.002098 0.028310 -0.078573
v 0.002108 0.030912 -0.077080
v 0.002273 0.028722 -0.079302
v 0.002283 0.031324 -0.077809
v 0.001608 0.032084 -0.079157
v 0.001598 0.029481 -0.080650
v 0.000860 0.032316 -0.079570
v 0.000850 0.029714 -0.081063
v 0.000020 0.015051 -0.089670
v 0.000009 0.012449 -0.091162
v 0.002140 0.011787 -0.089985
v 0.002150 0.014389 -0.088492
v -0.001620 0.010612 -0.087910
v -0.001610 0.013214 -0.086417
v -0.000862 0.012982 -0.086003
v -0.000872 0.010380 -0.087496
v 0.000020 0.012901 -0.085858
v 0.000010 0.010299 -0.087351
v -0.002120 0.010960 -0.088528
v -0.002110 0.013563 -0.087035
v -0.002296 0.011372 -0.089258
v -0.002286 0.013974 -0.087765
v -0.002120 0.011783 -0.089987
v -0.002110 0.014385 -0.088494
v -0.001621 0.012132 -0.090605
v -0.001610 0.014735 -0.089112
v -0.000873 0.012366 -0.091018
v -0.000863 0.014968 -0.089525
v 0.000902 0.012984 -0.086003
v 0.000892 0.010381 -0.087495
v 0.001640 0.010615 -0.087908
v 0.001650 0.013217 -0.086415
v 0.002140 0.010964 -0.088526
v 0.002150 0.013567 -0.087033
v 0.002315 0.011376 -0.089255
v 0.002325 0.013978 -0.087763
v 0.001650 0.014738 -0.089111
v 0.001640 0.012136 -0.090603
v 0.000902 0.014970 -0.089524
v 0.000892 0.012368 -0.091017
v 0.001606 0.003461 -0.095578
v 0.001616 0.006063 -0.094086
v 0.000868 0.006296 -0.094499
v 0.000858 0.003693 -0.095991
v 0.002106 0.003113 -0.094960
v 0.002116 0.005715 -0.093467
v -0.001655 0.003458 -0.095580
v -0.001644 0.006060 -0.094087
v -0.002144 0.005711 -0.093469
v -0.002154 0.003109 -0.094961
v -0.000025 0.003774 -0.096137
v -0.000014 0.006377 -0.094645
v -0.000897 0.006294 -0.094500
v -0.000907 0.003692 -0.095992
v -0.001654 0.001938 -0.092884
v -0.001644 0.004540 -0.091392
v -0.000896 0.004308 -0.090978
v -0.000906 0.001705 -0.092471
v 0.001606 0.001941 -0.092883
v 0.001616 0.004543 -0.091390
v 0.002116 0.004892 -0.092008
v 0.002106 0.002290 -0.093501
v 0.000858 0.001707 -0.092470
v 0.000868 0.004309 -0.090978
v -0.002320 0.005300 -0.092740
v -0.002330 0.002697 -0.094232
v 0.002291 0.005304 -0.092738
v 0.002281 0.002702 -0.094230
v -0.000024 0.001624 -0.092325
v -0.000014 0.004227 -0.090833
v -0.002144 0.004888 -0.092010
v -0.002154 0.002286 -0.093503
v -0.000012 -0.002298 -0.099619
v -0.000022 -0.004913 -0.101086
v 0.002080 -0.005566 -0.099924
v 0.002118 -0.002959 -0.098442
v -0.001631 -0.006726 -0.097876
v -0.001641 -0.004134 -0.096367
v -0.000894 -0.004367 -0.095953
v -0.000893 -0.006955 -0.097468
v -0.000011 -0.004448 -0.095808
v -0.000022 -0.007035 -0.097324
v -0.002124 -0.006382 -0.098486
v -0.002141 -0.003786 -0.096985
v -0.002297 -0.005977 -0.099206
v -0.002317 -0.003375 -0.097714
v -0.002124 -0.005570 -0.099926
v -0.002141 -0.002963 -0.098444
v -0.001631 -0.005226 -0.100536
v -0.001642 -0.002614 -0.099062
v -0.000893 -0.004995 -0.100943
v -0.000894 -0.002380 -0.099475
v 0.000871 -0.004365 -0.095952
v 0.000849 -0.006954 -0.097467
v 0.001587 -0.006723 -0.097874
v 0.001619 -0.004131 -0.096365
v 0.002081 -0.006378 -0.098484
v 0.002119 -0.003782 -0.096983
v 0.002254 -0.005972 -0.099204
v 0.002294 -0.003370 -0.097712
v 0.001619 -0.002611 -0.099060
v 0.001587 -0.005222 -0.100534
v 0.000871 -0.002379 -0.099474
v 0.000849 -0.004993 -0.100943
vn -0.0000 -0.0282 -0.9996
vn -0.0282 -0.0518 -0.9983
vn -0.0000 -0.0219 -0.9998
vn -0.1292 0.0014 -0.9916
vn -0.1292 -0.0012 -0.9916
vn -0.0286 -0.0174 -0.9994
vn -0.0286 0.0177 -0.9994
vn -0.0232 -0.0136 -0.9996
vn -0.0309 -0.0516 -0.9982
vn -1.0000 -0.0000 -0.0000
vn -0.0232 0.0139 -0.9996
vn -0.0309 0.0519 -0.9982
vn 0.0309 0.0519 -0.9982
vn 0.0282 0.0521 -0.9982
vn -0.0000 0.0286 -0.9996
vn 0.0286 0.0177 -0.9994
vn -0.0000 0.0223 -0.9998
vn -0.0282 0.0521 -0.9982
vn 0.1290 -0.0012 -0.9916
vn 0.1290 0.0014 -0.9916
vn 0.0286 -0.0174 -0.9994
vn 0.0232 0.0139 -0.9996
vn 0.0280 -0.0515 -0.9983
vn 0.0309 -0.0516 -0.9982
vn 0.0232 -0.0136 -0.9996
vn -0.0000 0.9494 -0.3141
vn -0.3084 0.8972 -0.3160
vn -0.3037 0.8787 -0.3683
vn -0.0000 0.9306 -0.3661
vn -0.3083 -0.8972 -0.3163
vn -0.0000 -0.9493 -0.3144
vn -0.0000 -0.9305 -0.3664
vn -0.3037 -0.8786 -0.3685
vn -0.5882 0.7423 -0.3210
vn -0.8063 0.4929 -0.3270
vn -0.7902 0.4804 -0.3804
vn -0.5779 0.7254 -0.3739
vn -0.8063 -0.4928 -0.3271
vn -0.5882 -0.7422 -0.3213
vn -0.5780 -0.7253 -0.3741
vn -0.7902 -0.4803 -0.3806
vn -0.9276 0.1732 -0.3311
vn -0.9074 0.1685 -0.3849
vn -0.9275 -0.1731 -0.3312
vn -0.9074 -0.1684 -0.3850
vn -0.8660 0.5000 -0.0000
vn -0.0000 1.0000 -0.0000
vn 0.3083 -0.8972 -0.3163
vn 0.3036 -0.8786 -0.3685
vn 0.5882 -0.7422 -0.3213
vn 0.5780 -0.7253 -0.3741
vn 0.8063 -0.4928 -0.3272
vn 0.7903 -0.4802 -0.3806
vn 0.9276 -0.1731 -0.3311
vn 0.9074 -0.1683 -0.3850
vn 0.9276 0.1732 -0.3311
vn 0.8063 0.4929 -0.3270
vn 0.7903 0.4804 -0.3804
vn 0.9075 0.1685 -0.3849
vn 0.5882 0.7423 -0.3210
vn 0.5780 0.7254 -0.3738
vn 0.3084 0.8972 -0.3160
vn 0.3036 0.8787 -0.3683
vn 0.3138 0.9125 -0.2624
vn -0.0000 0.9654 -0.2608
vn -0.3139 0.9125 -0.2624
vn -0.5988 0.7552 -0.2666
vn -0.5988 -0.7551 -0.2669
vn -0.3138 -0.9124 -0.2627
vn -0.8213 0.5017 -0.2718
vn -0.9451 0.1763 -0.2753
vn -0.9451 -0.1762 -0.2753
vn -0.8213 -0.5016 -0.2719
vn 0.3138 -0.9124 -0.2627
vn 0.5989 -0.7551 -0.2669
vn 0.8213 -0.5016 -0.2719
vn 0.9451 -0.1763 -0.2753
vn 0.9451 0.1763 -0.2752
vn 0.8213 0.5017 -0.2718
vn 0.5989 0.7552 -0.2667
vn -0.0000 -0.9653 -0.2610
vn -0.2680 0.9450 -0.1877
vn -0.5709 0.7857 -0.2381
vn -0.8057 0.5388 -0.2460
vn -0.9433 0.2165 -0.2515
vn -0.9480 -0.1677 -0.2704
vn -0.8088 -0.5304 -0.2541
vn -0.5771 -0.7787 -0.2463
vn -0.2842 -0.9287 -0.2382
vn -0.0018 0.9904 -0.1380
vn -0.0063 -0.9685 -0.2491
vn 0.2757 -0.9330 -0.2312
vn 0.5710 -0.7856 -0.2383
vn 0.8057 -0.5388 -0.2462
vn 0.8281 0.4931 -0.2666
vn 0.5771 0.7787 -0.2461
vn 0.9434 -0.2164 -0.2514
vn 0.9480 0.1678 -0.2703
vn 0.2839 0.9286 -0.2390
vn 0.5000 -0.8660 -0.0000
vn 0.8660 0.5000 -0.0000
vn -0.5000 -0.8660 -0.0000
vn -0.5000 0.8660 -0.0000
vn 1.0000 -0.0000 -0.0000
vn 0.5000 0.8660 -0.0000
vn 0.8661 -0.4999 -0.0000
vn -0.0000 -1.0000 -0.0000
vn 0.8660 -0.5000 -0.0000
vn 0.7641 -0.4412 0.4705
vn 0.6808 -0.3931 0.6180
vn -0.0000 -0.7862 0.6180
vn -0.0000 -0.8824 0.4705
vn -0.8661 -0.4999 -0.0000
vn -0.8660 -0.5000 -0.0000
vn -0.3998 0.2307 0.8871
vn -0.0000 -0.0002 1.0000
vn -0.0000 0.4615 0.8871
vn 0.3998 0.2307 0.8871
vn 0.3998 -0.2310 0.8870
vn -0.7641 0.4411 0.4706
vn -0.6808 0.3930 0.6181
vn -0.0000 0.7860 0.6182
vn -0.0000 0.8823 0.4707
vn -0.7641 -0.4413 0.4705
vn -0.6808 -0.3931 0.6180
vn -0.0000 -0.4618 0.8870
vn 0.7641 0.4411 0.4707
vn 0.6808 0.3930 0.6182
vn -0.3998 -0.2310 0.8870
vn -0.8065 0.1433 -0.5736
vn -0.8065 -0.1432 -0.5736
vn -0.8066 -0.1430 -0.5736
vn -0.8066 0.1431 -0.5736
vn 0.8065 -0.1432 -0.5736
vn 0.8065 0.1433 -0.5736
vn 0.8065 0.1431 -0.5736
vn 0.8066 -0.1429 -0.5736
vn -0.3339 0.9343 -0.1249
vn -0.6306 0.7640 -0.1365
vn -0.8531 0.5001 -0.1485
vn -0.9725 0.1736 -0.1552
vn 0.3349 0.9343 -0.1220
vn -0.0000 0.9929 -0.1193
vn -0.6312 -0.7643 -0.1321
vn -0.3350 -0.9342 -0.1223
vn -0.8534 -0.5008 -0.1445
vn -0.9726 -0.1747 -0.1536
vn 0.6306 -0.7640 -0.1367
vn 0.8532 -0.5000 -0.1486
vn 0.3339 -0.9342 -0.1253
vn -0.0000 -0.9928 -0.1196
vn 0.9726 0.1748 -0.1535
vn 0.8534 0.5009 -0.1443
vn 0.6312 0.7643 -0.1319
vn 0.2788 0.7720 -0.5713
vn -0.0000 0.8210 -0.5710
vn 0.2793 0.7718 -0.5713
vn -0.2788 -0.7719 -0.5714
vn -0.0000 -0.8209 -0.5711
vn -0.2793 -0.7717 -0.5714
vn 0.7084 0.4121 -0.5730
vn 0.5249 0.6303 -0.5720
vn 0.5254 0.6299 -0.5720
vn 0.7087 0.4116 -0.5730
vn -0.5249 0.6303 -0.5720
vn -0.7084 0.4122 -0.5729
vn -0.7087 0.4117 -0.5729
vn -0.5254 0.6299 -0.5720
vn -0.7085 -0.4120 -0.5730
vn -0.7088 -0.4114 -0.5730
vn -0.2789 0.7719 -0.5713
vn -0.2793 0.7718 -0.5713
vn 0.2788 -0.7719 -0.5714
vn 0.2792 -0.7717 -0.5714
vn 0.5249 -0.6302 -0.5722
vn 0.5254 -0.6298 -0.5722
vn 0.7085 -0.4119 -0.5730
vn 0.7087 -0.4117 -0.5730
vn -0.5249 -0.6302 -0.5722
vn -0.5254 -0.6297 -0.5722
vn 0.9725 -0.1736 -0.1553
vn -0.3343 -0.9411 -0.0503
vn -0.0000 -0.9993 -0.0387
vn -0.0000 -0.9998 -0.0211
vn -0.3826 -0.9236 -0.0237
vn 0.9266 -0.3751 -0.0254
vn 0.9999 -0.0077 -0.0104
vn 0.9998 -0.0000 -0.0210
vn 0.9237 -0.3826 -0.0211
vn -0.6768 -0.7350 -0.0404
vn -0.7070 -0.7069 -0.0211
vn -0.9158 0.4014 -0.0119
vn -0.9999 -0.0077 -0.0104
vn -0.9998 -0.0000 -0.0210
vn -0.9236 0.3827 -0.0210
vn 0.0209 0.9996 -0.0200
vn -0.3867 0.9218 0.0264
vn -0.3822 0.9238 -0.0210
vn -0.0000 0.9998 -0.0210
vn -0.9217 -0.3875 -0.0179
vn -0.9239 -0.3821 -0.0211
vn -0.6897 0.7239 -0.0166
vn -0.7070 0.7069 -0.0210
vn 0.9225 0.3857 -0.0166
vn 0.7126 0.7014 0.0176
vn 0.7072 0.7067 -0.0210
vn 0.9237 0.3826 -0.0210
vn 0.4230 -0.9047 -0.0502
vn 0.7040 -0.7096 -0.0291
vn 0.7066 -0.7073 -0.0211
vn 0.3826 -0.9236 -0.0238
vn 0.3960 0.9180 -0.0210
vn 0.3827 0.9236 -0.0210
vn 0.8594 -0.5107 0.0268
vn 0.6283 -0.7724 0.0924
vn 0.6322 -0.7692 0.0926
vn 0.8118 -0.5744 0.1048
vn -0.5656 -0.8196 0.0908
vn -0.8575 -0.5027 0.1091
vn -0.8564 -0.5056 0.1043
vn -0.6379 -0.7700 0.0125
vn 0.3347 -0.9389 0.0804
vn 0.3317 -0.9400 0.0803
vn -0.8118 0.5744 0.1050
vn -0.9769 0.1787 0.1171
vn -0.9776 0.1760 0.1153
vn -0.8593 0.5107 0.0270
vn -0.9774 -0.1770 0.1155
vn -0.9777 -0.1745 0.1171
vn 0.9773 0.1776 0.1154
vn 0.8625 0.5055 0.0245
vn 0.8111 0.5754 0.1048
vn 0.9777 0.1744 0.1172
vn 0.9769 -0.1788 0.1171
vn 0.9776 -0.1760 0.1152
vn 0.0780 0.9942 0.0746
vn -0.3304 0.9304 0.1585
vn -0.4065 0.9100 0.0815
vn -0.0010 0.9881 0.1539
vn -0.0000 -0.9971 0.0756
vn -0.3347 -0.9389 0.0804
vn -0.3316 -0.9400 0.0803
vn -0.0000 0.0002 -1.0000
vn -0.0000 0.0001 -1.0000
vn -0.0001 0.0002 -1.0000
vn 0.0001 0.0001 -1.0000
vn -0.0001 0.0001 -1.0000
vn 0.0001 0.0002 -1.0000
vn -0.7068 0.7068 -0.0282
vn -0.3826 0.9235 -0.0282
vn -0.9996 -0.0000 -0.0283
vn -0.9235 0.3826 -0.0283
vn -0.3825 -0.9235 -0.0285
vn -0.7068 -0.7068 -0.0284
vn -0.9235 -0.3826 -0.0284
vn -0.0000 0.9996 -0.0282
vn -0.0000 -0.9996 -0.0285
vn 0.7068 -0.7068 -0.0284
vn 0.3825 -0.9235 -0.0285
vn 0.3826 0.9235 -0.0282
vn 0.7068 0.7068 -0.0282
vn 0.9235 0.3826 -0.0283
vn 0.9996 -0.0000 -0.0283
vn 0.9235 -0.3825 -0.0284
vn -0.0000 -0.0001 1.0000
vn -0.0000 -0.0000 1.0000
vn 0.0001 -0.0002 1.0000
vn -0.0001 -0.0002 1.0000
vn 0.6323 0.7691 0.0928
vn 0.6284 0.7724 0.0926
vn 0.3347 0.9389 0.0806
vn 0.3317 0.9399 0.0806
vn -0.6323 0.7691 0.0929
vn -0.6284 0.7723 0.0927
vn -0.3323 -0.9278 -0.1694
vn -0.0000 -0.9863 -0.1650
vn -0.9174 0.3948 0.0501
vn -0.9999 -0.0121 -0.0051
vn 0.9252 -0.3732 -0.0687
vn 0.9999 -0.0121 -0.0051
vn 0.3972 0.9107 0.1131
vn -0.0646 0.9835 0.1687
vn -0.3885 0.9074 0.1602
vn 0.3799 -0.9173 -0.1195
vn -0.9202 -0.3863 -0.0634
vn 0.9166 0.3917 0.0804
vn -0.7029 -0.7055 -0.0909
vn -0.7442 0.6606 0.0990
vn 0.7022 -0.7023 -0.1172
vn 0.7152 0.6886 0.1200
vn -0.6906 0.6886 0.2211
vn -0.9368 0.3323 0.1097
vn 0.7097 -0.6604 -0.2453
vn 0.9204 -0.3709 -0.1239
vn -0.9999 -0.0145 0.0006
vn 0.9999 -0.0110 -0.0071
vn -0.9199 -0.3722 -0.1237
vn 0.9166 0.3718 0.1472
vn -0.7023 -0.6807 -0.2083
vn 0.7152 0.6573 0.2378
vn -0.3795 -0.8841 -0.2727
vn 0.3298 0.8869 0.3234
vn 0.0001 -0.9426 -0.3338
vn 0.0211 0.9548 0.2965
vn -0.3874 0.8654 0.3178
vn 0.3794 -0.8826 -0.2775
vn -0.3464 -0.8290 -0.4390
vn -0.0030 -0.8870 -0.4618
vn -0.0039 0.9075 0.4200
vn -0.3926 0.8214 0.4138
vn 0.4079 0.8023 0.4358
vn 0.3460 -0.8250 -0.4469
vn -0.7298 0.6034 0.3215
vn 0.6878 -0.6452 -0.3326
vn -0.9329 0.3218 0.1619
vn 0.9116 -0.3595 -0.1992
vn -1.0000 0.0046 -0.0073
vn 0.9999 0.0089 -0.0118
vn -0.9205 -0.3537 -0.1661
vn 0.9255 0.3493 0.1462
vn -0.7011 -0.6447 -0.3045
vn 0.7233 0.6163 0.3115
vn -0.8938 -0.4002 -0.2023
vn -0.6915 -0.6675 -0.2764
vn 0.3615 0.8263 0.4320
vn 0.6487 0.6839 0.3340
vn -0.3739 -0.8435 -0.3856
vn 0.9320 -0.3184 -0.1729
vn 1.0000 0.0061 -0.0026
vn 0.9215 0.3412 0.1856
vn -0.0024 -0.8941 -0.4479
vn -0.9997 -0.0173 -0.0157
vn 0.0004 0.9017 0.4324
vn -0.3594 0.8253 0.4356
vn -0.6849 0.6343 0.3586
vn -0.9228 0.3539 0.1522
vn 0.3683 -0.8439 -0.3902
vn 0.7245 -0.6142 -0.3129
vn 0.0010 0.9621 0.2726
vn -0.3486 0.8908 0.2915
vn -0.0005 -0.9643 -0.2648
vn 0.3627 -0.9060 -0.2180
vn -0.6734 0.6949 0.2523
vn 0.3134 0.9138 0.2584
vn 0.6783 -0.7204 -0.1449
vn -0.9123 0.3881 0.1307
vn 0.9103 -0.4090 -0.0639
vn -0.9998 -0.0029 0.0194
vn 1.0000 0.0037 0.0082
vn -0.9120 -0.4055 -0.0616
vn 0.9168 0.3764 0.1337
vn -0.6828 -0.7169 -0.1406
vn 0.6775 0.6945 0.2424
vn -0.3681 -0.9050 -0.2132
vn -0.9178 0.3970 -0.0004
vn -0.9998 0.0020 0.0199
vn 0.9293 -0.3691 -0.0121
vn 1.0000 0.0059 0.0065
vn -0.9119 -0.4078 0.0459
vn 0.9167 0.3983 0.0313
vn -0.6827 -0.7290 0.0500
vn 0.6773 0.7337 0.0541
vn -0.3679 -0.9294 0.0284
vn 0.3500 0.9356 0.0470
vn -0.0019 -1.0000 -0.0049
vn 0.0008 0.9999 0.0143
vn -0.3488 0.9358 0.0512
vn 0.3630 -0.9315 0.0238
vn -0.6735 0.7364 0.0642
vn 0.6785 -0.7332 0.0461
vn 0.0011 -0.9675 0.2528
vn 0.3640 -0.8940 0.2612
vn -0.3808 0.8955 -0.2304
vn -0.6733 0.7285 -0.1263
vn 0.6790 -0.6972 0.2298
vn -0.9122 0.4025 -0.0769
vn 0.9106 -0.3874 0.1437
vn -0.9997 0.0085 0.0233
vn 1.0000 0.0060 0.0002
vn -0.9116 -0.3807 0.1549
vn 0.9169 0.3917 -0.0764
vn -0.6821 -0.6902 0.2416
vn 0.6776 0.7220 -0.1400
vn -0.3669 -0.8899 0.2709
vn 0.3501 0.9156 -0.1979
vn 0.0008 0.9695 -0.2450
vn 0.8974 0.3883 -0.2094
vn 0.6767 0.6618 -0.3228
vn -0.6409 -0.6620 0.3886
vn -0.3674 -0.7892 0.4921
vn 0.3492 0.8334 -0.4284
vn -0.0021 -0.8684 0.4958
vn -0.0002 0.8730 -0.4876
vn -0.3496 0.8364 -0.4222
vn 0.3634 -0.7962 0.4837
vn -0.6741 0.6705 -0.3098
vn 0.6794 -0.6139 0.4019
vn -0.9128 0.3678 -0.1774
vn 0.9111 -0.3363 0.2382
vn -0.9997 0.0131 0.0214
vn 1.0000 0.0070 -0.0024
vn -0.9111 -0.3284 0.2490
vn -0.9159 0.2698 -0.2973
vn -1.0000 0.0095 0.0027
vn 0.9282 -0.2813 0.2435
vn 0.9999 0.0032 -0.0126
vn -0.9104 -0.2681 0.3151
vn 0.9143 0.2941 -0.2785
vn -0.6743 -0.5101 0.5340
vn 0.6746 0.5413 -0.5019
vn -0.3571 -0.6860 0.6339
vn 0.3480 0.6755 -0.6501
vn -0.0008 -0.7660 0.6428
vn -0.0005 0.6960 -0.7181
vn -0.3492 0.6785 -0.6463
vn 0.3541 -0.6904 0.6308
vn -0.6727 0.5502 -0.4948
vn 0.6717 -0.5154 0.5321
vn -0.0017 -0.6345 0.7729
vn 0.3469 -0.5797 0.7373
vn -0.3326 0.5063 -0.7957
vn -0.6430 0.3968 -0.6551
vn 0.6628 -0.4437 0.6031
vn -0.9006 0.2153 -0.3777
vn 0.9045 -0.2491 0.3461
vn -0.9994 -0.0152 -0.0310
vn 0.9997 -0.0193 -0.0160
vn -0.9226 -0.2413 0.3011
vn 0.9132 0.2062 -0.3516
vn -0.6992 -0.4394 0.5640
vn 0.6801 0.3897 -0.6210
vn -0.3707 -0.5738 0.7303
vn 0.3643 0.4863 -0.7942
vn 0.0017 0.5259 -0.8505
vn -0.3670 0.4616 -0.8076
vn -0.0000 0.4954 -0.8687
vn -0.0005 0.4960 -0.8683
vn -0.3677 0.4612 -0.8075
vn 0.9327 -0.2547 0.2552
vn 0.9988 -0.0421 -0.0232
vn 0.9999 -0.0144 -0.0081
vn 0.9169 -0.2124 0.3379
vn 0.0003 0.4868 -0.8735
vn -0.3590 0.4531 -0.8160
vn -0.6903 0.3605 -0.6274
vn -0.3673 0.4630 -0.8067
vn -0.3667 0.4589 -0.8093
vn -0.6899 0.3563 -0.6301
vn 0.6898 0.3582 -0.6292
vn 0.9172 0.1955 -0.3471
vn 0.9170 0.1956 -0.3475
vn 0.6897 0.3582 -0.6293
vn -0.9940 -0.1096 -0.0061
vn -0.9179 -0.2362 0.3190
vn -0.9170 -0.2099 0.3392
vn -0.9999 -0.0117 -0.0065
vn 0.6900 -0.3621 0.6267
vn 0.3669 -0.4639 0.8064
vn 0.3670 -0.4638 0.8063
vn 0.3282 0.3970 -0.8571
vn 0.0003 0.4686 -0.8834
vn -0.0005 0.4850 -0.8745
vn 0.3668 0.4497 -0.8144
vn -0.6901 0.3621 -0.6266
vn -0.3673 0.4638 -0.8062
vn -0.6897 -0.3582 0.6292
vn -0.9171 -0.1956 0.3474
vn -0.6897 -0.3582 0.6293
vn -0.9131 0.1876 -0.3619
vn -0.9998 -0.0159 -0.0094
vn -0.9330 0.0894 -0.3486
vn -0.9172 0.1864 -0.3522
vn -0.6809 -0.3780 0.6273
vn -0.3590 -0.4764 0.8026
vn 0.0004 -0.5091 0.8607
vn 0.3596 -0.4768 0.8021
vn 0.9998 -0.0170 -0.0100
vn 0.9133 0.1865 -0.3622
vn -0.6805 0.3515 -0.6430
vn 0.6807 0.3506 -0.6431
vn -0.9133 -0.2177 0.3441
vn 0.9135 -0.2186 0.3431
vn 0.6812 -0.3787 0.6265
vn 0.3595 0.4526 -0.8161
vn -1.0000 0.0010 0.0008
vn -0.9169 0.1989 -0.3460
vn -0.9172 0.1975 -0.3461
vn -1.0000 -0.0002 -0.0001
vn -0.6895 0.3600 -0.6285
vn -0.6901 0.3588 -0.6285
vn 1.0000 -0.0046 -0.0025
vn 0.9170 -0.2020 0.3439
vn 0.9171 -0.1975 0.3463
vn 1.0000 0.0003 0.0001
vn 0.3671 -0.4632 0.8067
vn 0.0001 -0.4966 0.8680
vn -0.0003 -0.4960 0.8683
vn 0.3668 -0.4613 0.8079
vn -0.9169 -0.1968 0.3471
vn -0.9172 -0.1978 0.3458
vn 0.6893 0.3562 -0.6308
vn 0.9170 0.1937 -0.3487
vn 0.9171 0.1980 -0.3461
vn 0.6895 0.3594 -0.6289
vn -0.3668 -0.4611 0.8080
vn -0.3675 -0.4613 0.8075
vn -0.6894 -0.3584 0.6295
vn -0.6900 -0.3591 0.6285
vn 0.3667 0.4596 -0.8089
vn 0.3667 0.4615 -0.8078
vn 0.6895 -0.3624 0.6271
vn 0.6897 -0.3590 0.6289
vn 0.9171 0.1990 -0.3455
vn 1.0000 0.0014 0.0008
vn 1.0000 -0.0023 -0.0013
vn 0.9170 0.1959 -0.3474
vn -0.9171 0.1965 -0.3468
vn -0.6897 0.3582 -0.6293
vn -0.6897 0.3611 -0.6276
vn -0.9172 0.1999 -0.3447
vn 0.0002 0.4960 -0.8683
vn 0.3673 0.4618 -0.8073
vn 0.3673 0.4609 -0.8079
vn 0.0002 0.4964 -0.8681
vn -0.6896 -0.3601 0.6283
vn -0.9172 -0.1989 0.3454
vn -0.9171 -0.1958 0.3472
vn -0.6895 -0.3580 0.6296
vn 0.9172 -0.1963 0.3467
vn 0.6899 -0.3581 0.6292
vn 0.6899 -0.3610 0.6275
vn 0.9172 -0.1999 0.3447
vn 0.3677 -0.4607 0.8078
vn 0.3672 -0.4627 0.8069
vn -1.0000 -0.0014 -0.0007
vn -1.0000 0.0023 0.0013
vn -0.3672 0.4609 -0.8079
vn -0.3670 0.4626 -0.8070
vn 0.0004 -0.4960 0.8683
vn 0.0004 -0.4964 0.8681
vn -0.6565 -0.4486 0.6064
vn -0.3713 -0.4893 0.7892
vn -0.3671 -0.4745 0.8000
vn -0.6899 -0.3717 0.6212
vn 0.6899 0.3600 -0.6281
vn 0.6899 0.3578 -0.6293
vn -0.3669 -0.4619 0.8075
vn -0.3668 -0.4610 0.8081
vn 0.7259 -0.4149 0.5486
vn 0.6895 -0.3736 0.6204
vn 0.6897 0.3590 -0.6289
vn 0.9169 0.1971 -0.3472
vn 0.9168 0.2004 -0.3453
vn 0.6898 0.3617 -0.6272
vn -0.0004 -0.4973 0.8676
vn -0.3673 -0.4619 0.8073
vn -0.3671 -0.4636 0.8064
vn -0.0003 -0.4977 0.8673
vn -0.6899 -0.3589 0.6287
vn -0.6898 -0.3616 0.6272
vn 0.3667 0.4621 -0.8075
vn 0.3667 0.4637 -0.8066
vn 1.0000 -0.0016 -0.0009
vn 1.0000 0.0019 0.0011
vn -0.9173 0.1995 -0.3447
vn -0.6900 0.3611 -0.6274
vn -0.6898 0.3591 -0.6287
vn -0.9172 0.1966 -0.3465
vn -0.0005 0.4973 -0.8676
vn -0.0004 0.4977 -0.8673
vn -0.9172 -0.1967 0.3466
vn -0.9171 -0.2001 0.3447
vn 0.9171 -0.1997 0.3451
vn 0.6899 -0.3610 0.6274
vn 0.6898 -0.3590 0.6287
vn 0.9171 -0.1967 0.3467
vn 0.3667 -0.4632 0.8068
vn 0.3667 -0.4624 0.8073
vn -1.0000 0.0016 0.0010
vn -1.0000 -0.0019 -0.0010
vn -0.3673 0.4631 -0.8066
vn -0.3675 0.4621 -0.8071
vn 0.6900 -0.3595 0.6282
vn 0.3675 -0.4625 0.8069
vn 0.3673 -0.4636 0.8063
vn 0.6900 -0.3615 0.6271
vn -1.0000 -0.0011 -0.0006
vn -0.9171 0.1974 -0.3463
vn -0.9171 0.2001 -0.3447
vn -1.0000 0.0019 0.0010
vn -0.6896 0.3597 -0.6285
vn -0.3671 0.4637 -0.8064
vn -0.6898 0.3617 -0.6272
vn 1.0000 0.0012 0.0003
vn 0.9172 -0.1974 0.3462
vn 0.9172 -0.2000 0.3446
vn 1.0000 -0.0018 -0.0011
vn 0.0002 -0.4977 0.8674
vn -0.0000 -0.4977 0.8674
vn -0.9171 -0.1994 0.3452
vn -0.9171 -0.1967 0.3467
vn -0.6900 -0.3597 0.6282
vn -0.9170 -0.1979 0.3464
vn -0.9171 -0.2019 0.3438
vn -0.6897 -0.3639 0.6260
vn 0.6899 0.3610 -0.6274
vn 0.9170 0.1995 -0.3454
vn 0.9172 0.1966 -0.3466
vn 0.6898 0.3590 -0.6287
vn -0.3667 -0.4634 0.8067
vn -0.3668 -0.4623 0.8073
vn -0.6896 -0.3611 0.6277
vn -0.6896 -0.3592 0.6289
vn 0.3674 0.4633 -0.8065
vn 0.3672 0.4622 -0.8071
vn 0.0004 0.4977 -0.8673
vn 0.0001 0.4977 -0.8673
vn -0.0002 0.4974 -0.8675
vn 0.0002 0.4933 -0.8698
vn 0.3670 0.4617 -0.8075
vn 0.3671 0.4616 -0.8076
vn -0.7257 0.2619 -0.6363
vn -0.6900 0.3481 -0.6345
vn -0.0001 0.4975 -0.8674
vn -0.0000 0.4974 -0.8675
vn 0.0484 -0.5625 0.8254
vn 0.3716 -0.4887 0.7894
vn 0.3668 -0.4755 0.7996
vn -0.0003 -0.5096 0.8604
vn 0.6587 0.2949 -0.6922
vn 0.6898 0.3465 -0.6357
vn 0.9170 -0.2011 0.3444
vn 0.9172 -0.2010 0.3441
vn -1.0000 0.0030 0.0015
vn -0.9170 0.2012 -0.3444
vn -0.9170 0.2011 -0.3444
vn -1.0000 0.0030 0.0016
vn 1.0000 -0.0029 -0.0017
vn 0.0001 -0.4975 0.8674
vn 0.0001 -0.4974 0.8675
vn -0.3670 -0.4618 0.8075
vn -0.3670 -0.4617 0.8076
vn 0.9185 0.1550 -0.3638
vn 0.9171 0.1840 -0.3537
vn 0.3667 0.4625 -0.8072
vn 0.6897 0.3597 -0.6284
vn 0.6901 0.3553 -0.6305
vn 0.3672 0.4583 -0.8094
vn 0.9171 0.1978 -0.3462
vn 1.0000 -0.0006 -0.0005
vn 1.0000 -0.0048 -0.0032
vn 0.9171 0.1933 -0.3486
vn 0.9171 -0.1989 0.3454
vn 0.9172 -0.2031 0.3428
vn 0.6896 -0.3608 0.6279
vn 0.6900 -0.3648 0.6252
vn 0.3670 -0.4630 0.8068
vn 0.3675 -0.4670 0.8043
vn -0.0002 -0.4974 0.8675
vn 0.0004 -0.5016 0.8651
vn -0.3675 -0.4624 0.8069
vn -0.3667 -0.4667 0.8048
vn -1.0000 0.0006 0.0004
vn -1.0000 -0.0037 -0.0020
vn -0.0025 -0.8698 -0.4934
vn -0.8415 -0.4687 -0.2687
vn -0.7778 -0.3097 -0.5469
vn 0.3257 -0.0833 -0.9418
vn 0.0027 -0.0521 -0.9986
vn 0.0022 0.2537 -0.9673
vn 0.3677 0.2166 -0.9044
vn -0.3226 -0.0860 -0.9426
vn -0.3660 0.2145 -0.9055
vn -0.3274 0.3963 -0.8577
vn -0.3229 -0.8563 0.4030
vn 0.0022 -0.8875 0.4609
vn 0.0005 -0.7046 0.7096
vn -0.3648 -0.6716 0.6449
vn 0.5985 -0.1718 -0.7825
vn 0.6784 0.1087 -0.7266
vn -0.5969 -0.7638 0.2455
vn -0.6752 -0.5758 0.4610
vn 0.7806 -0.3055 -0.5453
vn 0.8880 -0.0521 -0.4568
vn -0.7778 -0.6284 0.0095
vn -0.8847 -0.4274 0.1859
vn 0.8447 -0.4646 -0.2659
vn 0.9616 -0.2393 -0.1343
vn -0.9594 -0.2457 -0.1382
vn 0.3255 -0.8542 0.4054
vn 0.3656 -0.6696 0.6465
vn -0.5973 -0.1750 -0.7827
vn -0.6775 0.1036 -0.7282
vn 0.5989 -0.7615 0.2478
vn 0.6768 -0.5716 0.4639
vn -0.8863 -0.0587 -0.4594
vn 0.7811 -0.6243 0.0121
vn 0.8868 -0.4214 0.1896
vn -0.9172 0.1988 -0.3453
vn -0.9171 0.1946 -0.3478
vn -0.3673 -0.4629 0.8067
vn -0.6898 -0.3602 0.6280
vn -0.6895 -0.3604 0.6283
vn -0.3666 -0.4630 0.8070
vn -0.0004 -0.4977 0.8673
vn 0.0006 -0.4977 0.8674
vn 0.6895 0.3604 -0.6282
vn 0.9170 0.1984 -0.3460
vn 0.9171 0.1982 -0.3458
vn 0.6899 0.3601 -0.6279
vn -0.3674 0.4506 -0.8136
vn -0.9171 -0.1983 0.3459
vn -1.0000 0.0002 0.0001
vn -1.0000 0.0002 -0.0000
vn -0.9171 -0.1983 0.3458
vn 0.3668 -0.4631 0.8069
vn 0.3673 -0.4629 0.8067
vn 1.0000 -0.0001 -0.0001
vn 0.9171 -0.1985 0.3457
vn 0.9173 -0.1983 0.3454
vn -0.6902 0.3603 -0.6275
vn -0.3676 0.4630 -0.8065
vn -0.3669 0.4630 -0.8068
vn -0.6898 0.3604 -0.6279
vn -0.9172 0.1985 -0.3455
vn -0.9171 0.1986 -0.3456
vn 0.6895 -0.3605 0.6281
vn 0.6899 -0.3603 0.6279
vn 0.3668 0.4630 -0.8069
vn 0.3674 0.4628 -0.8068
vn 0.0004 0.4976 -0.8674
vt 0.489825 0.268239
vt 0.504737 0.262999
vt 0.497011 0.272389
vt 0.547853 0.261870
vt 0.537923 0.256135
vt 0.525630 0.247575
vt 0.561413 0.268239
vt 0.526509 0.254350
vt 0.514982 0.256734
vt 0.616195 0.452843
vt 0.599340 0.435990
vt 0.779763 0.255550
vt 0.796617 0.272403
vt 0.555106 0.270864
vt 0.558802 0.282039
vt 0.536257 0.321083
vt 0.546501 0.314818
vt 0.561413 0.309578
vt 0.525610 0.330241
vt 0.554227 0.305428
vt 0.558497 0.294044
vt 0.503384 0.315948
vt 0.513315 0.321682
vt 0.489826 0.309581
vt 0.524731 0.323467
vt 0.492741 0.283774
vt 0.492436 0.295779
vt 0.496133 0.306955
vt 0.389476 0.179144
vt 0.404963 0.179146
vt 0.404962 0.196775
vt 0.389476 0.196772
vt 0.554460 0.179172
vt 0.572587 0.179175
vt 0.572584 0.196814
vt 0.554457 0.196809
vt 0.427838 0.179151
vt 0.443325 0.179153
vt 0.443323 0.196784
vt 0.427837 0.196780
vt 0.501618 0.179163
vt 0.518908 0.179166
vt 0.518906 0.196801
vt 0.501616 0.196797
vt 0.460615 0.179156
vt 0.460613 0.196788
vt 0.483490 0.179160
vt 0.483489 0.196793
vt 0.762908 0.238697
vt 0.943330 0.058256
vt 0.960185 0.075109
vt 0.206365 0.179112
vt 0.224493 0.179115
vt 0.224496 0.196734
vt 0.206368 0.196730
vt 0.260045 0.179121
vt 0.260047 0.196742
vt 0.277335 0.179124
vt 0.277336 0.196746
vt 0.295462 0.179127
vt 0.295464 0.196750
vt 0.318338 0.179132
vt 0.335628 0.179134
vt 0.335629 0.196760
vt 0.318339 0.196755
vt 0.351114 0.179137
vt 0.351115 0.196763
vt 0.373990 0.179141
vt 0.373990 0.196768
vt 0.373990 0.158437
vt 0.389477 0.158439
vt 0.404963 0.158440
vt 0.427839 0.158443
vt 0.518911 0.158453
vt 0.554464 0.158456
vt 0.443326 0.158445
vt 0.460617 0.158446
vt 0.483493 0.158449
vt 0.501621 0.158451
vt 0.224490 0.158421
vt 0.260042 0.158425
vt 0.277333 0.158426
vt 0.295461 0.158428
vt 0.318337 0.158431
vt 0.335627 0.158433
vt 0.351114 0.158435
vt 0.206362 0.158419
vt 0.572591 0.158458
vt 0.404964 0.137840
vt 0.427841 0.137841
vt 0.443328 0.137841
vt 0.460618 0.137842
vt 0.483495 0.137843
vt 0.501623 0.137844
vt 0.518914 0.137845
vt 0.554467 0.137846
vt 0.389477 0.137839
vt 0.206358 0.137831
vt 0.224487 0.137832
vt 0.260040 0.137833
vt 0.277331 0.137834
vt 0.335626 0.137837
vt 0.351113 0.137837
vt 0.295459 0.137835
vt 0.318336 0.137836
vt 0.373990 0.137838
vt 0.572595 0.137847
vt 0.350744 0.548263
vt 0.368354 0.565872
vt 0.187931 0.746312
vt 0.170321 0.728703
vt 0.746053 0.221844
vt 0.926476 0.041403
vt 0.633050 0.469696
vt 0.452627 0.650137
vt 0.435773 0.633284
vt 0.548776 0.385431
vt 0.531166 0.367822
vt 0.711589 0.187382
vt 0.729199 0.204991
vt 0.402063 0.599578
vt 0.418918 0.616431
vt 0.238495 0.796872
vt 0.221641 0.780019
vt 0.204786 0.763165
vt 0.041217 0.926751
vt 0.024362 0.909898
vt 0.255350 0.813725
vt 0.272205 0.830578
vt 0.108635 0.994164
vt 0.091781 0.977311
vt 0.006752 0.892289
vt 0.385208 0.582725
vt 0.565631 0.402284
vt 0.892011 0.006941
vt 0.909621 0.024550
vt 0.582486 0.419137
vt 0.074926 0.960458
vt 0.058071 0.943605
vt 0.205022 0.319224
vt 0.224169 0.323859
vt 0.224169 0.356308
vt 0.205022 0.360943
vt 0.977040 0.091962
vt 0.813472 0.289255
vt 0.993894 0.108815
vt 0.272216 0.349354
vt 0.256159 0.340083
vt 0.272216 0.330812
vt 0.256158 0.321541
vt 0.240101 0.330812
vt 0.307296 0.360942
vt 0.288148 0.356307
vt 0.288148 0.323859
vt 0.307296 0.319223
vt 0.263663 0.394799
vt 0.258103 0.375899
vt 0.286204 0.359675
vt 0.299792 0.373939
vt 0.240101 0.349354
vt 0.248655 0.285368
vt 0.254214 0.304268
vt 0.226113 0.320492
vt 0.212525 0.306228
vt 0.226114 0.359675
vt 0.256159 0.358625
vt 0.254215 0.375899
vt 0.212525 0.373939
vt 0.248655 0.394799
vt 0.299792 0.306227
vt 0.286203 0.320492
vt 0.258103 0.304268
vt 0.263662 0.285368
vt 0.389140 0.243014
vt 0.383868 0.242065
vt 0.383897 0.232302
vt 0.392418 0.233786
vt 0.378449 0.272394
vt 0.383721 0.273344
vt 0.383689 0.283108
vt 0.375169 0.281621
vt 0.404967 0.044667
vt 0.427845 0.044661
vt 0.443334 0.044658
vt 0.460626 0.044653
vt 0.373990 0.044675
vt 0.389478 0.044671
vt 0.518927 0.044639
vt 0.554484 0.044630
vt 0.501635 0.044643
vt 0.483505 0.044648
vt 0.260029 0.044703
vt 0.277321 0.044699
vt 0.224473 0.044712
vt 0.206343 0.044716
vt 0.318330 0.044688
vt 0.335622 0.044684
vt 0.351111 0.044680
vt 0.397094 0.265524
vt 0.398912 0.260409
vt 0.408730 0.262162
vt 0.405616 0.270572
vt 0.370498 0.249888
vt 0.368685 0.255001
vt 0.358870 0.253249
vt 0.361978 0.244844
vt 0.388998 0.272400
vt 0.393640 0.269687
vt 0.399865 0.277323
vt 0.392233 0.281650
vt 0.397179 0.249880
vt 0.393755 0.245726
vt 0.399995 0.238121
vt 0.405676 0.244850
vt 0.378592 0.243011
vt 0.375354 0.233763
vt 0.398976 0.254981
vt 0.408730 0.253191
vt 0.368617 0.260426
vt 0.358867 0.262213
vt 0.370413 0.265526
vt 0.361916 0.270553
vt 0.373835 0.269681
vt 0.367593 0.277283
vt 0.373950 0.245725
vt 0.367725 0.238093
vt 0.295452 0.044694
vt 0.572613 0.044625
vt 0.036670 0.148380
vt 0.033090 0.148349
vt 0.030905 0.066383
vt 0.035110 0.066177
vt 0.084873 0.149227
vt 0.080996 0.149839
vt 0.081739 0.065867
vt 0.085971 0.066010
vt 0.040327 0.148624
vt 0.039326 0.066002
vt 0.051967 0.150452
vt 0.047963 0.149707
vt 0.047785 0.065746
vt 0.052024 0.065664
vt 0.064483 0.151955
vt 0.060268 0.151741
vt 0.060513 0.065583
vt 0.064762 0.065585
vt 0.044085 0.149075
vt 0.043554 0.065859
vt 0.056080 0.151186
vt 0.056267 0.065609
vt 0.076994 0.150561
vt 0.072884 0.151266
vt 0.073257 0.065670
vt 0.077501 0.065754
vt 0.092281 0.148575
vt 0.088628 0.148797
vt 0.090196 0.066183
vt 0.094414 0.066387
vt 0.095854 0.148569
vt 0.098620 0.066623
vt 0.068698 0.151781
vt 0.069011 0.065614
vt 0.372190 0.348118
vt 0.371854 0.352740
vt 0.358890 0.351722
vt 0.359246 0.346681
vt 0.371854 0.371325
vt 0.372190 0.375947
vt 0.359246 0.377384
vt 0.358890 0.372343
vt 0.358690 0.356850
vt 0.371667 0.357381
vt 0.361491 0.392130
vt 0.360532 0.387239
vt 0.373393 0.385112
vt 0.374276 0.389651
vt 0.359787 0.382339
vt 0.372698 0.380543
vt 0.360532 0.336826
vt 0.361491 0.331935
vt 0.374276 0.334414
vt 0.373393 0.338953
vt 0.359787 0.341726
vt 0.372698 0.343522
vt 0.365465 0.406971
vt 0.363985 0.402004
vt 0.376532 0.398650
vt 0.377859 0.403109
vt 0.358626 0.362033
vt 0.371607 0.362033
vt 0.358690 0.367215
vt 0.371667 0.366684
vt 0.391279 0.371002
vt 0.397306 0.354284
vt 0.397306 0.381096
vt 0.393372 0.376618
vt 0.408633 0.384677
vt 0.402606 0.383894
vt 0.419961 0.380069
vt 0.425988 0.369429
vt 0.423895 0.375235
vt 0.391278 0.364924
vt 0.393372 0.359118
vt 0.423895 0.357735
vt 0.425988 0.363351
vt 0.414660 0.350458
vt 0.402606 0.351005
vt 0.408633 0.349676
vt 0.414660 0.383348
vt 0.419961 0.353257
vt 0.055383 0.010308
vt 0.060178 0.010257
vt 0.045793 0.010553
vt 0.050588 0.010405
vt 0.031422 0.011286
vt 0.036210 0.010992
vt 0.041001 0.010747
vt 0.064974 0.010252
vt 0.026634 0.011633
vt 0.093725 0.011221
vt 0.098508 0.011552
vt 0.103288 0.011934
vt 0.069769 0.010295
vt 0.074564 0.010385
vt 0.079357 0.010523
vt 0.084149 0.010707
vt 0.088938 0.010940
vt 0.481953 0.355354
vt 0.475346 0.339404
vt 0.479633 0.343691
vt 0.481953 0.349292
vt 0.475346 0.365241
vt 0.479633 0.360954
vt 0.463683 0.367561
vt 0.469746 0.367561
vt 0.453796 0.360954
vt 0.458083 0.365241
vt 0.458083 0.339404
vt 0.463683 0.337084
vt 0.469746 0.337084
vt 0.451476 0.355354
vt 0.451476 0.349292
vt 0.453796 0.343691
vt 0.362650 0.327016
vt 0.375330 0.329902
vt 0.363985 0.322061
vt 0.376532 0.325415
vt 0.377859 0.320956
vt 0.365465 0.317094
vt 0.362650 0.397049
vt 0.375330 0.394163
vt 0.036581 0.152946
vt 0.033143 0.152959
vt 0.051624 0.153478
vt 0.047584 0.153266
vt 0.085190 0.153249
vt 0.081356 0.153397
vt 0.068809 0.153921
vt 0.064473 0.153942
vt 0.060138 0.153882
vt 0.095767 0.153163
vt 0.092342 0.153129
vt 0.043746 0.153100
vt 0.077319 0.153587
vt 0.040095 0.152994
vt 0.055832 0.153700
vt 0.088836 0.153159
vt 0.073113 0.153782
vt 0.055852 0.156229
vt 0.051664 0.156511
vt 0.088727 0.157435
vt 0.085093 0.157213
vt 0.047645 0.156803
vt 0.081276 0.156933
vt 0.043826 0.157068
vt 0.077260 0.156620
vt 0.040186 0.157281
vt 0.073075 0.156317
vt 0.036672 0.157429
vt 0.068788 0.156085
vt 0.033213 0.157520
vt 0.064464 0.155966
vt 0.060139 0.156047
vt 0.095668 0.157702
vt 0.092230 0.157587
vt 0.037030 0.162038
vt 0.033407 0.162236
vt 0.064453 0.157972
vt 0.060286 0.158155
vt 0.068633 0.158210
vt 0.095626 0.162359
vt 0.091943 0.162172
vt 0.056131 0.158760
vt 0.088295 0.161783
vt 0.052093 0.159522
vt 0.084577 0.161194
vt 0.048173 0.160330
vt 0.080756 0.160443
vt 0.044374 0.161062
vt 0.076816 0.159603
vt 0.040672 0.161643
vt 0.072766 0.158802
vt 0.047221 0.378893
vt 0.043259 0.380260
vt 0.067636 0.375857
vt 0.070927 0.376231
vt 0.039059 0.381474
vt 0.081353 0.378948
vt 0.077687 0.377768
vt 0.074247 0.376862
vt 0.034718 0.382144
vt 0.050917 0.377695
vt 0.064346 0.375731
vt 0.061047 0.375822
vt 0.057735 0.376170
vt 0.054387 0.376787
vt 0.093809 0.382076
vt 0.089476 0.381453
vt 0.085292 0.380282
vt 0.064327 0.381374
vt 0.061356 0.381453
vt 0.093577 0.385383
vt 0.088803 0.384882
vt 0.058380 0.381666
vt 0.067295 0.381468
vt 0.084260 0.384082
vt 0.055342 0.382015
vt 0.080144 0.383247
vt 0.052095 0.382523
vt 0.076520 0.382558
vt 0.048452 0.383221
vt 0.073288 0.382050
vt 0.044319 0.384079
vt 0.070263 0.381693
vt 0.039760 0.384913
vt 0.034976 0.385452
vt 0.055863 0.386921
vt 0.052752 0.387182
vt 0.079434 0.387557
vt 0.075869 0.387198
vt 0.049178 0.387548
vt 0.072765 0.386939
vt 0.044997 0.388032
vt 0.069899 0.386752
vt 0.040268 0.388557
vt 0.067107 0.386628
vt 0.035236 0.388985
vt 0.064319 0.386569
vt 0.061531 0.386620
vt 0.093338 0.388910
vt 0.088319 0.388517
vt 0.058734 0.386738
vt 0.083603 0.388022
vt 0.093091 0.392530
vt 0.088003 0.392238
vt 0.061607 0.391553
vt 0.058891 0.391596
vt 0.083249 0.392009
vt 0.056097 0.391653
vt 0.079089 0.391845
vt 0.053057 0.391728
vt 0.075572 0.391739
vt 0.049537 0.391843
vt 0.072533 0.391665
vt 0.045372 0.392026
vt 0.069739 0.391606
vt 0.040608 0.392287
vt 0.067023 0.391559
vt 0.035504 0.392617
vt 0.064315 0.391527
vt 0.072546 0.396335
vt 0.069753 0.396398
vt 0.045479 0.395997
vt 0.040794 0.396003
vt 0.067029 0.396423
vt 0.035778 0.396239
vt 0.064311 0.396415
vt 0.061593 0.396414
vt 0.092844 0.396135
vt 0.087844 0.395947
vt 0.058873 0.396383
vt 0.083164 0.395978
vt 0.056085 0.396317
vt 0.079057 0.396102
vt 0.053063 0.396217
vt 0.075574 0.396233
vt 0.049585 0.396098
vt 0.055801 0.401006
vt 0.052743 0.400692
vt 0.079352 0.400328
vt 0.075906 0.400728
vt 0.049310 0.400310
vt 0.072832 0.401045
vt 0.045304 0.399885
vt 0.069963 0.401259
vt 0.040814 0.399606
vt 0.067137 0.401377
vt 0.036062 0.399761
vt 0.064302 0.401395
vt 0.061470 0.401359
vt 0.092599 0.399639
vt 0.087858 0.399545
vt 0.058655 0.401227
vt 0.083367 0.399871
vt 0.092344 0.402819
vt 0.087911 0.402928
vt 0.061140 0.406792
vt 0.058074 0.406437
vt 0.083744 0.403633
vt 0.055067 0.405912
vt 0.080010 0.404528
vt 0.052023 0.405247
vt 0.076650 0.405327
vt 0.048686 0.404480
vt 0.073566 0.406006
vt 0.044965 0.403635
vt 0.070522 0.406520
vt 0.040800 0.402991
vt 0.067426 0.406840
vt 0.036366 0.402957
vt 0.064279 0.406946
vt 0.061706 0.498599
vt 0.064430 0.498590
vt 0.064434 0.519743
vt 0.061737 0.519753
vt 0.077001 0.777020
vt 0.074523 0.776988
vt 0.074671 0.768023
vt 0.077189 0.768048
vt 0.064448 0.489435
vt 0.061687 0.489429
vt 0.059053 0.738318
vt 0.061699 0.738316
vt 0.061712 0.759150
vt 0.059086 0.759156
vt 0.069727 0.708366
vt 0.072326 0.708346
vt 0.072314 0.729292
vt 0.069717 0.729311
vt 0.054216 0.777047
vt 0.051737 0.777074
vt 0.051551 0.768100
vt 0.054070 0.768081
vt 0.080047 0.708305
vt 0.082698 0.708306
vt 0.082683 0.729263
vt 0.080032 0.729258
vt 0.066967 0.776978
vt 0.064368 0.776988
vt 0.064371 0.768035
vt 0.067006 0.768024
vt 0.059051 0.708407
vt 0.061702 0.708408
vt 0.061698 0.729351
vt 0.059049 0.729351
vt 0.048732 0.708340
vt 0.051330 0.708362
vt 0.051333 0.729312
vt 0.048735 0.729293
vt 0.056293 0.489433
vt 0.053663 0.489457
vt 0.056693 0.777028
vt 0.056586 0.768068
vt 0.048372 0.489577
vt 0.045662 0.489683
vt 0.085853 0.489765
vt 0.083128 0.489659
vt 0.042911 0.489828
vt 0.075181 0.489484
vt 0.072571 0.489461
vt 0.058963 0.489427
vt 0.069918 0.489448
vt 0.051035 0.489502
vt 0.077788 0.489521
vt 0.080432 0.489579
vt 0.067205 0.489441
vt 0.053795 0.498633
vt 0.056387 0.498618
vt 0.056468 0.519758
vt 0.053900 0.519753
vt 0.059019 0.498608
vt 0.059076 0.519758
vt 0.075060 0.498590
vt 0.077646 0.498610
vt 0.077538 0.519691
vt 0.074970 0.519694
vt 0.082928 0.498686
vt 0.085622 0.498739
vt 0.085486 0.519731
vt 0.082797 0.519710
vt 0.051208 0.498653
vt 0.051333 0.519746
vt 0.069840 0.498579
vt 0.072470 0.498580
vt 0.072401 0.519703
vt 0.069793 0.519716
vt 0.043237 0.498766
vt 0.045926 0.498720
vt 0.046076 0.519732
vt 0.043388 0.519730
vt 0.048589 0.498682
vt 0.048729 0.519738
vt 0.067154 0.498583
vt 0.067132 0.519730
vt 0.080264 0.498642
vt 0.080142 0.519696
vt 0.072386 0.528706
vt 0.074951 0.528694
vt 0.074939 0.549647
vt 0.072376 0.549663
vt 0.056482 0.528761
vt 0.059085 0.528764
vt 0.059085 0.549723
vt 0.056484 0.549716
vt 0.064434 0.528751
vt 0.067127 0.528738
vt 0.067121 0.549699
vt 0.064430 0.549713
vt 0.048752 0.528726
vt 0.051353 0.528740
vt 0.051359 0.549687
vt 0.048759 0.549668
vt 0.077516 0.528687
vt 0.080117 0.528687
vt 0.080102 0.549632
vt 0.077502 0.549636
vt 0.082770 0.528695
vt 0.082754 0.549635
vt 0.053917 0.528752
vt 0.053921 0.549704
vt 0.061741 0.528760
vt 0.061739 0.549722
vt 0.085459 0.528709
vt 0.085442 0.549645
vt 0.049222 0.777113
vt 0.046655 0.777170
vt 0.046370 0.768171
vt 0.048989 0.768129
vt 0.069783 0.528722
vt 0.069775 0.549682
vt 0.043413 0.528703
vt 0.046100 0.528713
vt 0.046107 0.549650
vt 0.043420 0.549636
vt 0.079515 0.777072
vt 0.079749 0.768092
vt 0.069772 0.558671
vt 0.072373 0.558651
vt 0.072363 0.579614
vt 0.069763 0.579635
vt 0.043421 0.558615
vt 0.046108 0.558630
vt 0.046109 0.579586
vt 0.043421 0.579571
vt 0.048760 0.558649
vt 0.048761 0.579607
vt 0.067118 0.558690
vt 0.067111 0.579655
vt 0.074935 0.558633
vt 0.074924 0.579594
vt 0.056484 0.558704
vt 0.059084 0.558712
vt 0.059082 0.579676
vt 0.056483 0.579667
vt 0.064428 0.558704
vt 0.064423 0.579670
vt 0.051359 0.558670
vt 0.051360 0.579629
vt 0.077497 0.558620
vt 0.080097 0.558614
vt 0.080085 0.579571
vt 0.077486 0.579579
vt 0.082749 0.558616
vt 0.082737 0.579572
vt 0.053921 0.558690
vt 0.053921 0.579650
vt 0.061738 0.558712
vt 0.061734 0.579677
vt 0.085436 0.558626
vt 0.085425 0.579581
vt 0.080082 0.588553
vt 0.082733 0.588554
vt 0.082719 0.639448
vt 0.080068 0.639448
vt 0.053920 0.588633
vt 0.056481 0.588650
vt 0.056468 0.639545
vt 0.053907 0.639528
vt 0.059081 0.588659
vt 0.061732 0.588660
vt 0.061719 0.639555
vt 0.059068 0.639554
vt 0.074921 0.588577
vt 0.077483 0.588561
vt 0.077469 0.639456
vt 0.074907 0.639471
vt 0.085422 0.588563
vt 0.085407 0.639457
vt 0.051358 0.588612
vt 0.051346 0.639506
vt 0.048749 0.738271
vt 0.051345 0.738286
vt 0.051424 0.759163
vt 0.048837 0.759169
vt 0.069761 0.588618
vt 0.072360 0.588597
vt 0.072346 0.639492
vt 0.069747 0.639513
vt 0.043420 0.588552
vt 0.046108 0.588568
vt 0.046095 0.639462
vt 0.043407 0.639446
vt 0.048759 0.588589
vt 0.048747 0.639483
vt 0.067109 0.588638
vt 0.067095 0.639533
vt 0.064421 0.588653
vt 0.064407 0.639548
vt 0.064380 0.738308
vt 0.064373 0.759139
vt 0.067076 0.708386
vt 0.067068 0.729329
vt 0.059206 0.777012
vt 0.059136 0.768058
vt 0.064389 0.708400
vt 0.064383 0.729343
vt 0.084677 0.777246
vt 0.082080 0.777146
vt 0.082367 0.768158
vt 0.085028 0.768245
vt 0.069532 0.776972
vt 0.069606 0.768015
vt 0.077448 0.708312
vt 0.077434 0.729263
vt 0.053891 0.708383
vt 0.056452 0.708398
vt 0.056452 0.729344
vt 0.053893 0.729330
vt 0.074887 0.708326
vt 0.074873 0.729275
vt 0.085387 0.708316
vt 0.085372 0.729275
vt 0.043392 0.708305
vt 0.046080 0.708320
vt 0.046084 0.729276
vt 0.043395 0.729263
vt 0.072046 0.776974
vt 0.072155 0.768014
vt 0.067062 0.738295
vt 0.069708 0.738278
vt 0.069660 0.759115
vt 0.067034 0.759127
vt 0.072301 0.738261
vt 0.074858 0.738246
vt 0.074776 0.759105
vt 0.072235 0.759106
vt 0.077416 0.738238
vt 0.077321 0.759114
vt 0.080013 0.738237
vt 0.079907 0.759136
vt 0.082664 0.738246
vt 0.082555 0.759172
vt 0.085352 0.738263
vt 0.085246 0.759220
vt 0.043410 0.738250
vt 0.046098 0.738258
vt 0.046190 0.759182
vt 0.043500 0.759203
vt 0.044052 0.777246
vt 0.043704 0.768230
vt 0.053903 0.738301
vt 0.053969 0.759161
vt 0.065588 0.804135
vt 0.061479 0.800620
vt 0.062435 0.799871
vt 0.066653 0.799045
vt 0.065584 0.798940
vt 0.065574 0.792415
vt 0.067701 0.792535
vt 0.065684 0.785513
vt 0.068655 0.785598
vt 0.064517 0.799043
vt 0.063454 0.792567
vt 0.062699 0.785650
vt 0.059525 0.804246
vt 0.059384 0.805910
vt 0.048687 0.803539
vt 0.050715 0.800475
vt 0.039368 0.794490
vt 0.043580 0.792103
vt 0.067714 0.799360
vt 0.069843 0.792943
vt 0.071600 0.785912
vt 0.059967 0.802808
vt 0.052744 0.798112
vt 0.047326 0.790123
vt 0.068738 0.799883
vt 0.072020 0.793682
vt 0.074528 0.786467
vt 0.060639 0.801597
vt 0.054830 0.796261
vt 0.050687 0.788581
vt 0.069693 0.800635
vt 0.074211 0.794777
vt 0.077479 0.787293
vt 0.056976 0.794801
vt 0.053807 0.787413
vt 0.071709 0.805859
vt 0.071612 0.804245
vt 0.080448 0.800732
vt 0.082312 0.803937
vt 0.087642 0.792122
vt 0.091915 0.794812
vt 0.063458 0.799346
vt 0.061316 0.792994
vt 0.059730 0.785992
vt 0.071192 0.802820
vt 0.078442 0.798221
vt 0.083913 0.790052
vt 0.059157 0.793725
vt 0.056782 0.786573
vt 0.070530 0.801615
vt 0.076352 0.796268
vt 0.080575 0.788470
vt 0.056460 0.738312
vt 0.056511 0.759159
vt 0.046093 0.648444
vt 0.048744 0.648465
vt 0.048732 0.699358
vt 0.046081 0.699338
vt 0.043405 0.648428
vt 0.043392 0.699322
vt 0.069745 0.648495
vt 0.072344 0.648473
vt 0.072329 0.699365
vt 0.069730 0.699386
vt 0.061770 0.776998
vt 0.061736 0.768048
vt 0.051343 0.648488
vt 0.053905 0.648510
vt 0.053893 0.699402
vt 0.051331 0.699381
vt 0.082717 0.648430
vt 0.085405 0.648439
vt 0.085391 0.699333
vt 0.082702 0.699323
vt 0.074905 0.648453
vt 0.077466 0.648438
vt 0.077452 0.699330
vt 0.074890 0.699345
vt 0.059065 0.648536
vt 0.061717 0.648537
vt 0.061704 0.699428
vt 0.059052 0.699427
vt 0.056466 0.648526
vt 0.056454 0.699418
vt 0.080065 0.648430
vt 0.080051 0.699323
vt 0.064405 0.648530
vt 0.067093 0.648515
vt 0.067079 0.699406
vt 0.064391 0.699421
s 1
usemtl Material.010
f 5/1/1 7/2/2 6/3/3
f 11/4/4 10/5/5 1/6/6 2/7/7
f 1/6/6 9/8/8 8/9/9
f 1/6/6 10/5/5 9/8/8
f 101/10/10 97/11/10 96/12/10 100/13/10
f 2/7/7 12/14/11 11/4/4
f 2/7/7 13/15/12 12/14/11
f 17/16/13 16/17/14 79/18/15 3/19/16
f 79/18/15 15/20/17 14/21/18
f 79/18/15 16/17/14 15/20/17
f 20/22/19 19/23/20 3/19/16 4/24/21
f 3/19/16 18/25/22 17/16/13
f 3/19/16 19/23/20 18/25/22
f 23/26/23 22/27/24 4/24/21 5/1/1
f 4/24/21 21/28/25 20/22/19
f 4/24/21 22/27/24 21/28/25
f 8/9/9 7/2/2 5/1/1 1/6/6
f 5/1/1 6/3/3 23/26/23
f 33/29/26 32/30/27 14/31/28 15/32/29
f 25/33/30 24/34/31 6/35/32 7/36/33
f 31/37/34 30/38/35 12/39/36 13/40/37
f 27/41/38 26/42/39 8/43/40 9/44/41
f 30/38/35 29/45/42 11/46/43 12/39/36
f 28/47/44 27/41/38 9/44/41 10/48/45
f 32/30/27 31/37/34 13/40/37 14/31/28
f 96/12/46 92/49/47 79/50/47 2/51/46
f 24/52/31 41/53/48 23/54/49 6/55/32
f 41/53/48 40/56/50 22/57/51 23/54/49
f 40/56/50 39/58/52 21/59/53 22/57/51
f 39/58/52 38/60/54 20/61/55 21/59/53
f 37/62/56 36/63/57 18/64/58 19/65/59
f 36/63/57 35/66/60 17/67/61 18/64/58
f 35/66/60 34/68/62 16/69/63 17/67/61
f 34/68/62 33/29/26 15/32/29 16/69/63
f 52/70/64 51/71/65 33/29/26 34/68/62
f 50/72/66 49/73/67 31/37/34 32/30/27
f 44/74/68 43/75/69 25/33/30 26/42/39
f 49/73/67 48/76/70 30/38/35 31/37/34
f 48/76/70 47/77/71 29/45/42 30/38/35
f 46/78/72 45/79/73 27/41/38 28/47/44
f 45/79/73 44/74/68 26/42/39 27/41/38
f 51/71/65 50/72/66 32/30/27 33/29/26
f 29/45/42 28/47/44 10/48/45 11/46/43
f 26/42/39 25/33/30 7/36/33 8/43/40
f 59/80/74 58/81/75 40/56/50 41/53/48
f 58/81/75 57/82/76 39/58/52 40/56/50
f 57/82/76 56/83/77 38/60/54 39/58/52
f 55/84/78 54/85/79 36/63/57 37/62/56
f 54/85/79 53/86/80 35/66/60 36/63/57
f 53/86/80 52/70/64 34/68/62 35/66/60
f 42/87/81 59/80/74 41/53/48 24/52/31
f 38/60/54 37/62/56 19/65/59 20/61/55
f 43/75/69 42/88/81 24/34/31 25/33/30
f 120/89/82 66/90/83 49/73/67 50/72/66
f 66/90/83 65/91/84 48/76/70 49/73/67
f 65/91/84 64/92/85 47/77/71 48/76/70
f 119/93/86 63/94/87 45/79/73 46/78/72
f 63/94/87 62/95/88 44/74/68 45/79/73
f 62/95/88 61/96/89 43/75/69 44/74/68
f 121/97/90 120/89/82 50/72/66 51/71/65
f 47/77/71 46/78/72 28/47/44 29/45/42
f 60/98/91 74/99/92 59/80/74 42/87/81
f 74/99/92 73/100/93 58/81/75 59/80/74
f 73/100/93 72/101/94 57/82/76 58/81/75
f 69/102/95 68/103/96 53/86/80 54/85/79
f 72/101/94 71/104/97 56/83/77 57/82/76
f 70/105/98 69/102/95 54/85/79 55/84/78
f 68/103/96 67/106/99 52/70/64 53/86/80
f 56/83/77 55/84/78 37/62/56 38/60/54
f 61/96/89 60/107/91 42/88/81 43/75/69
f 64/92/85 119/93/86 46/78/72 47/77/71
f 67/106/99 121/97/90 51/71/65 52/70/64
f 85/108/100 82/109/100 83/110/100 84/111/100
f 92/49/47 88/112/101 3/113/101 79/50/47
f 14/21/18 13/15/12 2/7/7 79/18/15
f 101/10/102 86/114/102 85/115/102 102/116/102
f 81/117/100 86/118/100 87/119/100 80/120/100
f 94/121/103 98/122/103 99/123/103 95/124/103
f 83/110/104 91/125/104 76/126/104 75/127/104
f 103/128/102 84/129/102 104/130/102 105/131/102
f 102/116/102 85/115/102 84/129/102 103/128/102
f 71/104/97 70/105/98 55/84/78 56/83/77
f 84/111/100 83/110/100 75/127/100 104/132/100
f 90/133/105 94/121/105 95/124/105 91/125/105
f 81/117/104 89/134/104 90/133/104 82/109/104
f 80/120/106 87/119/107 5/135/107 4/136/108
f 93/137/105 89/134/105 88/112/105 92/49/105
f 95/124/103 99/123/103 78/138/103 77/139/103
f 93/137/103 97/11/103 98/122/103 94/121/103
f 88/112/101 80/120/106 4/136/108 3/113/101
f 82/109/104 90/133/104 91/125/104 83/110/104
f 75/140/109 109/141/110 107/142/111 104/143/112
f 89/134/105 93/137/105 94/121/105 90/133/105
f 100/13/113 96/12/46 2/51/46 1/144/114
f 86/114/102 101/10/102 100/13/102 87/145/102
f 91/125/105 95/124/105 77/139/105 76/126/105
f 97/11/10 101/10/10 102/116/10 98/122/10
f 97/11/103 93/137/103 92/49/103 96/12/103
f 99/123/10 103/128/10 105/131/10 78/138/10
f 98/122/10 102/116/10 103/128/10 99/123/10
f 89/134/104 81/117/104 80/120/104 88/112/104
f 87/145/107 100/13/113 1/144/114 5/146/107
f 116/147/115 106/148/116 114/149/117
f 112/150/118 106/148/116 110/151/119
f 78/152/120 115/153/121 113/154/122 77/155/123
f 105/156/124 118/157/125 115/158/121 78/159/120
f 110/151/119 106/148/116 108/160/126
f 76/161/127 111/162/128 109/163/110 75/164/109
f 109/141/110 110/151/119 108/160/126 107/142/111
f 107/165/111 108/160/126 117/166/129 118/167/125
f 104/168/112 107/165/111 118/167/125 105/169/124
f 118/157/125 117/166/129 116/147/115 115/158/121
f 106/148/116 112/150/118 114/149/117
f 111/162/128 112/150/118 110/151/119 109/163/110
f 106/148/116 117/166/129 108/160/126
f 77/170/123 113/171/122 111/172/128 76/173/127
f 113/171/122 114/149/117 112/150/118 111/172/128
f 117/166/129 106/148/116 116/147/115
f 115/153/121 116/147/115 114/149/117 113/154/122
f 178/174/130 177/175/131 126/176/132 127/177/133
f 183/178/134 182/179/135 135/180/136 136/181/137
f 130/182/138 129/183/139 66/90/83 120/89/82
f 129/183/139 128/184/140 65/91/84 66/90/83
f 128/184/140 127/185/141 64/92/85 65/91/84
f 132/186/142 131/187/143 121/97/90 67/106/99
f 124/188/144 123/189/145 61/96/89 62/95/88
f 125/190/146 124/188/144 62/95/88 63/94/87
f 126/191/147 125/190/146 63/94/87 119/93/86
f 131/187/143 130/182/138 120/89/82 121/97/90
f 138/192/148 137/193/149 72/101/94 73/100/93
f 139/194/150 138/192/148 73/100/93 74/99/92
f 122/195/151 139/194/150 74/99/92 60/98/91
f 135/196/152 134/197/153 69/102/95 70/105/98
f 134/197/153 133/198/154 68/103/96 69/102/95
f 133/198/154 132/186/142 67/106/99 68/103/96
f 145/199/155 144/200/156 131/201/156 132/202/157
f 140/203/158 175/204/159 122/205/159 123/206/160
f 181/207/161 180/208/162 133/209/163 134/210/164
f 142/211/165 179/212/166 128/213/167 129/214/168
f 179/212/166 178/174/130 127/177/133 128/213/167
f 177/175/131 176/215/169 125/216/170 126/176/132
f 143/217/171 142/211/165 129/214/168 130/218/172
f 175/204/159 185/219/173 139/220/174 122/205/159
f 185/219/173 146/221/175 138/222/176 139/220/174
f 180/208/162 145/199/155 132/202/157 133/209/163
f 146/221/175 184/223/177 137/224/178 138/222/176
f 184/223/177 183/178/134 136/181/137 137/224/178
f 182/179/135 181/207/161 134/210/164 135/180/136
f 176/215/169 141/225/179 124/226/180 125/216/170
f 141/225/179 140/203/158 123/206/160 124/226/180
f 144/200/156 143/217/171 130/218/172 131/201/156
f 137/193/149 136/227/181 71/104/97 72/101/94
f 127/185/141 126/191/147 119/93/86 64/92/85
f 136/227/181 135/196/152 70/105/98 71/104/97
f 123/189/145 122/228/151 60/107/91 61/96/89
f 166/229/182 167/230/183 153/231/184 152/232/185
f 170/233/186 171/234/187 207/235/188 155/236/189
f 165/237/190 166/229/182 152/232/185 151/238/191
f 162/239/192 163/240/193 150/241/194 149/242/195
f 159/243/196 160/244/197 147/245/198 204/246/199
f 163/240/193 164/247/200 205/248/201 150/241/194
f 161/249/202 162/239/192 149/242/195 148/250/203
f 164/247/200 165/237/190 151/238/191 205/248/201
f 160/244/197 161/249/202 148/250/203 147/245/198
f 172/251/204 173/252/205 157/253/206 156/254/207
f 171/234/187 172/251/204 156/254/207 207/235/188
f 168/255/208 169/256/209 154/257/210 206/258/211
f 167/259/183 168/255/208 206/258/211 153/260/184
f 174/261/212 159/243/196 204/246/199 158/262/213
f 173/252/205 174/261/212 158/262/213 157/253/206
f 169/256/209 170/233/186 155/236/189 154/257/210
f 179/263/214 142/264/215 193/265/216 192/266/217
f 180/267/218 181/268/219 198/269/220 197/270/221
f 194/271/222 193/265/216 142/264/215 143/272/223
f 201/273/224 200/274/225 183/275/226 184/276/227
f 199/277/228 198/269/220 181/268/219 182/278/229
f 190/279/230 189/280/231 176/281/232 177/282/233
f 192/266/217 191/283/234 178/284/235 179/263/214
f 191/283/234 190/279/230 177/282/233 178/284/235
f 186/285/236 203/286/237 185/287/238 175/288/239
f 195/289/240 194/271/222 143/272/223 144/290/240
f 197/270/221 196/291/241 145/292/242 180/267/218
f 192/293/243 195/294/244 190/295/243 191/296/243
f 190/295/243 195/294/244 188/297/243 189/298/243
f 186/299/243 195/294/244 202/300/243 203/301/245
f 193/302/246 194/303/246 195/294/244 192/293/243
f 202/300/243 195/294/244 200/304/243 201/305/243
f 198/306/243 195/294/244 196/307/247 197/308/247
f 188/297/243 195/294/244 186/299/243 187/309/248
f 200/304/243 195/294/244 198/306/243 199/310/243
f 210/311/249 209/312/250 147/245/198 148/250/203
f 212/313/251 211/314/252 149/242/195 150/241/194
f 215/315/253 214/316/254 151/238/191 152/232/185
f 214/316/254 213/317/255 205/248/201 151/238/191
f 209/312/250 208/318/256 204/246/199 147/245/198
f 216/319/257 215/315/253 152/232/185 153/231/184
f 213/317/255 212/313/251 150/241/194 205/248/201
f 218/320/258 217/321/259 206/258/211 154/257/210
f 217/321/259 216/322/257 153/260/184 206/258/211
f 208/318/256 223/323/260 158/262/213 204/246/199
f 222/324/261 221/325/262 156/254/207 157/253/206
f 223/323/260 222/324/261 157/253/206 158/262/213
f 220/326/263 219/327/264 155/236/189 207/235/188
f 219/327/264 218/320/258 154/257/210 155/236/189
f 211/328/265 208/329/265 209/330/266 210/331/266
f 200/274/225 199/277/228 182/278/229 183/275/226
f 211/314/252 210/311/249 148/250/203 149/242/195
f 221/325/262 220/326/263 207/235/188 156/254/207
f 213/332/267 208/329/265 211/328/265 212/333/116
f 215/334/265 208/329/265 213/332/267 214/335/267
f 217/336/265 208/329/265 215/334/265 216/337/265
f 208/329/265 221/338/265 222/339/266 223/340/266
f 218/341/268 219/342/268 208/329/265 217/336/265
f 219/342/268 220/343/116 221/338/265 208/329/265
f 196/291/241 195/289/240 144/290/240 145/292/242
f 189/280/231 188/344/269 141/345/270 176/281/232
f 188/344/269 187/346/271 140/347/272 141/345/270
f 175/348/239 140/347/272 187/346/271 186/349/236
f 203/286/237 202/350/273 146/351/274 185/287/238
f 184/276/227 146/351/274 202/350/273 201/273/224
f 81/117/100 82/109/100 85/108/100 86/118/100
f 167/230/183 166/229/182 231/352/275 232/353/276
f 163/240/193 162/239/192 227/354/277 228/355/278
f 171/234/187 170/233/186 235/356/279 236/357/280
f 159/243/196 174/261/212 239/358/281 224/359/282
f 160/244/197 159/243/196 224/359/282 225/360/283
f 168/255/208 167/259/183 232/361/276 233/362/284
f 164/247/200 163/240/193 228/355/278 229/363/285
f 172/251/204 171/234/187 236/357/280 237/364/286
f 165/237/190 164/247/200 229/363/285 230/365/287
f 161/249/202 160/244/197 225/360/283 226/366/288
f 169/256/209 168/255/208 233/362/284 234/367/289
f 173/252/205 172/251/204 237/364/286 238/368/290
f 166/229/182 165/237/190 230/365/287 231/352/275
f 162/239/192 161/249/202 226/366/288 227/354/277
f 170/233/186 169/256/209 234/367/289 235/356/279
f 174/261/212 173/252/205 238/368/290 239/358/281
f 227/354/277 226/366/288 242/369/291 243/370/292
f 235/356/279 234/367/289 250/371/293 251/372/294
f 228/355/278 227/354/277 243/370/292 244/373/295
f 236/357/280 235/356/279 251/372/294 252/374/296
f 229/363/285 228/355/278 244/373/295 245/375/297
f 237/364/286 236/357/280 252/374/296 253/376/298
f 230/365/287 229/363/285 245/375/297 246/377/299
f 238/368/290 237/364/286 253/376/298 254/378/300
f 231/352/275 230/365/287 246/377/299 247/379/301
f 239/358/281 238/368/290 254/378/300 255/380/302
f 232/353/276 231/352/275 247/379/301 248/381/303
f 225/360/283 224/359/282 240/382/304 241/383/305
f 224/359/282 239/358/281 255/380/302 240/382/304
f 233/362/284 232/361/276 248/384/303 249/385/306
f 226/366/288 225/360/283 241/383/305 242/369/291
f 234/367/289 233/362/284 249/385/306 250/371/293
f 248/381/303 247/379/301 270/386/307 271/387/308
f 241/383/305 240/382/304 256/388/309 257/389/310
f 240/382/304 255/380/302 264/390/311 256/388/309
f 249/385/306 248/384/303 271/391/308 258/392/312
f 242/369/291 241/383/305 257/389/310 265/393/313
f 250/371/293 249/385/306 258/392/312 259/394/314
f 243/370/292 242/369/291 265/393/313 266/395/315
f 251/372/294 250/371/293 259/394/314 260/396/316
f 244/373/295 243/370/292 266/395/315 267/397/317
f 252/374/296 251/372/294 260/396/316 261/398/318
f 245/375/297 244/373/295 267/397/317 268/399/319
f 253/376/298 252/374/296 261/398/318 262/400/320
f 246/377/299 245/375/297 268/399/319 269/401/321
f 254/378/300 253/376/298 262/400/320 263/402/322
f 247/379/301 246/377/299 269/401/321 270/386/307
f 255/380/302 254/378/300 263/402/322 264/390/311
f 277/403/323 278/404/324 269/401/321 268/399/319
f 287/405/325 264/390/311 263/402/322 286/406/326
f 278/404/324 279/407/327 270/386/307 269/401/321
f 283/408/328 284/409/329 261/398/318 260/396/316
f 284/409/329 285/410/330 262/400/320 261/398/318
f 279/407/327 280/411/331 271/387/308 270/386/307
f 276/412/332 277/403/323 268/399/319 267/397/317
f 286/406/326 263/402/322 262/400/320 285/410/330
f 272/413/333 273/414/334 257/389/310 256/388/309
f 273/414/334 274/415/335 265/393/313 257/389/310
f 275/416/336 276/412/332 267/397/317 266/395/315
f 280/417/331 281/418/337 258/392/312 271/391/308
f 272/413/333 256/388/309 264/390/311 287/405/325
f 282/419/338 283/408/328 260/396/316 259/394/314
f 275/416/336 266/395/315 265/393/313 274/415/335
f 281/418/337 282/419/338 259/394/314 258/392/312
f 273/414/334 272/413/333 288/420/339 289/421/340
f 281/418/337 280/417/331 296/422/341 297/423/342
f 274/415/335 273/414/334 289/421/340 290/424/343
f 272/413/333 287/405/325 303/425/344 288/420/339
f 282/419/338 281/418/337 297/423/342 298/426/345
f 275/416/336 274/415/335 290/424/343 291/427/346
f 283/408/328 282/419/338 298/426/345 299/428/347
f 276/412/332 275/416/336 291/427/346 292/429/348
f 284/409/329 283/408/328 299/428/347 300/430/349
f 277/403/323 276/412/332 292/429/348 293/431/350
f 285/410/330 284/409/329 300/430/349 301/432/351
f 278/404/324 277/403/323 293/431/350 294/433/352
f 286/406/326 285/410/330 301/432/351 302/434/353
f 279/407/327 278/404/324 294/433/352 295/435/354
f 287/405/325 286/406/326 302/434/353 303/425/344
f 280/411/331 279/407/327 295/435/354 296/436/341
f 292/429/348 291/427/346 307/437/355 308/438/356
f 300/430/349 299/428/347 315/439/357 316/440/358
f 293/431/350 292/429/348 308/438/356 309/441/359
f 301/432/351 300/430/349 316/440/358 317/442/360
f 294/433/352 293/431/350 309/441/359 310/443/361
f 302/434/353 301/432/351 317/442/360 318/444/362
f 295/435/354 294/433/352 310/443/361 311/445/363
f 303/425/344 302/434/353 318/444/362 319/446/364
f 296/436/341 295/435/354 311/445/363 312/447/365
f 289/421/340 288/420/339 304/448/366 305/449/367
f 288/420/339 303/425/344 319/446/364 304/448/366
f 297/423/342 296/422/341 312/450/365 313/451/368
f 290/424/343 289/421/340 305/449/367 306/452/369
f 298/426/345 297/423/342 313/451/368 314/453/370
f 291/427/346 290/424/343 306/452/369 307/437/355
f 299/428/347 298/426/345 314/453/370 315/439/357
f 313/451/368 312/450/365 328/454/371 329/455/372
f 306/452/369 305/449/367 321/456/373 322/457/374
f 314/453/370 313/451/368 329/455/372 330/458/375
f 307/437/355 306/452/369 322/457/374 323/459/376
f 315/439/357 314/453/370 330/458/375 331/460/377
f 308/438/356 307/437/355 323/459/376 324/461/378
f 316/440/358 315/439/357 331/460/377 332/462/379
f 309/441/359 308/438/356 324/461/378 325/463/380
f 317/442/360 316/440/358 332/462/379 333/464/381
f 310/443/361 309/441/359 325/463/380 326/465/382
f 318/444/362 317/442/360 333/464/381 334/466/383
f 311/445/363 310/443/361 326/465/382 327/467/384
f 319/446/364 318/444/362 334/466/383 335/468/385
f 312/447/365 311/445/363 327/467/384 328/469/371
f 305/449/367 304/448/366 320/470/386 321/456/373
f 304/448/366 319/446/364 335/468/385 320/470/386
f 334/466/383 333/464/381 349/471/387 350/472/388
f 327/467/384 326/465/382 342/473/389 343/474/390
f 335/468/385 334/466/383 350/472/388 351/475/391
f 328/469/371 327/467/384 343/474/390 344/476/392
f 321/456/373 320/470/386 336/477/393 337/478/394
f 320/470/386 335/468/385 351/475/391 336/477/393
f 329/455/372 328/454/371 344/479/392 345/480/395
f 322/457/374 321/456/373 337/478/394 338/481/396
f 330/458/375 329/455/372 345/480/395 346/482/397
f 323/459/376 322/457/374 338/481/396 339/483/398
f 331/460/377 330/458/375 346/482/397 347/484/399
f 324/461/378 323/459/376 339/483/398 340/485/400
f 332/462/379 331/460/377 347/484/399 348/486/401
f 325/463/380 324/461/378 340/485/400 341/487/402
f 333/464/381 332/462/379 348/486/401 349/471/387
f 326/465/382 325/463/380 341/487/402 342/473/389
f 340/485/400 339/483/398 355/488/403 356/489/404
f 348/486/401 347/484/399 363/490/405 364/491/406
f 341/487/402 340/485/400 356/489/404 357/492/407
f 349/471/387 348/486/401 364/491/406 365/493/408
f 342/473/389 341/487/402 357/492/407 358/494/409
f 350/472/388 349/471/387 365/493/408 366/495/410
f 343/474/390 342/473/389 358/494/409 359/496/411
f 351/475/391 350/472/388 366/495/410 367/497/412
f 344/476/392 343/474/390 359/496/411 360/498/413
f 337/478/394 336/477/393 352/499/414 353/500/415
f 336/477/393 351/475/391 367/497/412 352/499/414
f 345/480/395 344/479/392 360/501/413 361/502/416
f 338/481/396 337/478/394 353/500/415 354/503/417
f 346/482/397 345/480/395 361/502/416 362/504/418
f 339/483/398 338/481/396 354/503/417 355/488/403
f 347/484/399 346/482/397 362/504/418 363/490/405
f 361/502/416 360/501/413 376/505/419 377/506/420
f 354/503/417 353/500/415 369/507/421 370/508/422
f 362/504/418 361/502/416 377/506/420 378/509/423
f 355/488/403 354/503/417 370/508/422 371/510/424
f 363/490/405 362/504/418 378/509/423 379/511/425
f 356/489/404 355/488/403 371/510/424 372/512/426
f 364/491/406 363/490/405 379/511/425 380/513/427
f 357/492/407 356/489/404 372/512/426 373/514/428
f 365/493/408 364/491/406 380/513/427 381/515/429
f 358/494/409 357/492/407 373/514/428 374/516/430
f 366/495/410 365/493/408 381/515/429 382/517/431
f 359/496/411 358/494/409 374/516/430 375/518/432
f 367/497/412 366/495/410 382/517/431 383/519/433
f 360/498/413 359/496/411 375/518/432 376/520/419
f 353/500/415 352/499/414 368/521/434 369/507/421
f 352/499/414 367/497/412 383/519/433 368/521/434
f 451/522/435 434/523/436 465/524/437 484/525/438
f 400/526/439 421/527/440 683/528/441 681/529/442
f 369/507/421 368/521/434 433/530/443 452/531/444
f 631/532/445 638/533/446 676/534/447 674/535/448
f 622/536/449 595/537/450 630/538/451 626/539/452
f 418/540/453 403/541/454 667/542/455 669/543/456
f 615/544/457 614/545/458 648/546/459 644/547/457
f 409/548/460 430/549/461 658/550/462 688/551/463
f 609/552/464 611/553/465 637/554/465 632/555/464
f 597/556/466 603/557/467 655/558/467 640/559/468
f 372/512/426 371/510/424 448/560/469 446/561/470
f 391/562/471 418/540/453 669/543/456 671/563/472
f 375/518/432 374/516/430 438/564/473 439/565/474
f 377/506/420 376/505/419 441/566/475 453/567/476
f 376/520/419 375/518/432 439/565/474 441/568/475
f 381/515/429 380/513/427 460/569/477 436/570/478
f 370/508/422 369/507/421 452/531/444 450/571/479
f 382/517/431 381/515/429 436/570/478 461/572/480
f 374/516/430 373/514/428 444/573/481 438/564/473
f 380/513/427 379/511/425 458/574/482 460/569/477
f 379/511/425 378/509/423 456/575/483 458/574/482
f 371/510/424 370/508/422 450/571/479 448/560/469
f 378/509/423 377/506/420 453/567/476 456/575/483
f 383/519/433 382/517/431 461/572/480 463/576/484
f 373/514/428 372/512/426 446/561/470 444/573/481
f 445/577/485 447/578/486 480/579/487 478/580/488
f 449/581/489 451/522/435 484/525/438 482/582/490
f 459/583/491 457/584/492 490/585/493 492/586/494
f 454/587/495 442/588/496 473/589/497 485/590/498
f 443/591/499 445/577/485 478/580/488 476/592/500
f 462/593/501 435/594/502 468/595/503 493/596/504
f 442/597/496 440/598/505 471/599/506 473/600/497
f 440/598/505 437/601/507 470/602/508 471/599/506
f 464/603/509 462/593/501 493/596/504 495/604/510
f 435/594/502 459/583/491 492/586/494 468/595/503
f 447/578/486 449/581/489 482/582/490 480/579/487
f 434/523/436 464/603/509 495/604/510 465/524/437
f 437/601/507 443/591/499 476/592/500 470/602/508
f 457/584/492 455/605/511 488/606/512 490/585/493
f 455/605/511 454/587/495 485/590/498 488/606/512
f 467/607/513 491/608/514 524/609/515 500/610/516
f 479/611/517 481/612/518 514/613/519 512/614/520
f 466/615/521 496/616/522 527/617/523 497/618/524
f 469/619/525 475/620/526 508/621/527 502/622/528
f 489/623/529 487/624/530 520/625/531 522/626/532
f 487/624/530 486/627/533 517/628/534 520/625/531
f 477/629/535 479/611/517 512/614/520 510/630/536
f 481/612/518 483/631/537 516/632/538 514/613/519
f 491/608/514 489/623/529 522/626/532 524/609/515
f 486/627/533 474/633/539 505/634/540 517/628/534
f 475/620/526 477/629/535 510/630/536 508/621/527
f 424/635/541 385/636/542 664/637/543 661/638/544
f 494/639/545 467/607/513 500/610/516 525/640/546
f 474/641/539 472/642/547 503/643/548 505/644/540
f 472/642/547 469/619/525 502/622/528 503/643/548
f 496/616/522 494/639/545 525/640/546 527/617/523
f 412/645/549 400/526/439 681/529/442 679/646/550
f 526/647/551 499/648/552 532/649/553 557/650/554
f 506/651/555 504/652/556 535/653/557 537/654/558
f 504/652/556 501/655/559 534/656/560 535/653/557
f 528/657/561 526/647/551 557/650/554 559/658/562
f 499/648/552 523/659/563 556/660/564 532/649/553
f 511/661/565 513/662/566 546/663/567 544/664/568
f 498/665/569 528/657/561 559/658/562 529/666/570
f 501/655/559 507/667/571 540/668/572 534/656/560
f 521/669/573 519/670/574 552/671/575 554/672/576
f 519/670/574 518/673/577 549/674/578 552/671/575
f 509/675/579 511/661/565 544/664/568 542/676/580
f 513/662/566 515/677/581 548/678/582 546/663/567
f 523/659/563 521/669/573 554/672/576 556/660/564
f 518/673/577 506/679/555 537/680/558 549/674/578
f 507/667/571 509/675/579 542/676/580 540/668/572
f 551/681/583 550/682/584 581/683/585 584/684/586
f 541/685/587 543/686/588 576/687/589 574/688/590
f 545/689/591 547/690/538 580/691/592 578/692/593
f 555/693/594 553/694/595 586/695/596 588/696/597
f 550/682/584 538/697/598 569/698/599 581/683/585
f 539/699/600 541/685/587 574/688/590 572/700/601
f 639/701/602 656/702/603 668/703/604 662/704/605
f 558/705/606 531/706/607 564/707/608 589/708/609
f 538/709/598 536/710/610 567/711/611 569/712/599
f 536/710/610 533/713/612 566/714/613 567/711/611
f 560/715/614 558/705/606 589/708/609 591/716/615
f 531/706/607 555/693/594 588/696/597 564/707/608
f 543/686/588 545/689/591 578/692/593 576/687/589
f 530/717/616 560/715/614 591/716/615 561/718/617
f 533/713/612 539/699/600 572/700/601 566/714/613
f 553/694/595 551/681/583 584/684/586 586/695/596
f 638/533/446 635/719/618 657/720/619 676/534/447
f 624/721/620 622/536/449 626/539/452 627/722/621
f 415/723/622 391/562/471 671/563/472 673/724/623
f 611/553/465 594/725/624 636/726/625 637/554/465
f 388/727/626 397/728/627 678/729/628 666/730/629
f 427/731/630 409/548/460 688/551/463 686/732/631
f 617/733/632 615/544/457 644/547/457 645/734/633
f 605/735/634 607/736/635 633/737/636 649/738/637
f 607/736/635 609/552/464 632/555/464 633/737/636
f 619/739/638 617/733/632 645/734/633 651/740/638
f 614/545/458 602/741/639 654/742/640 648/546/459
f 603/557/467 605/735/634 649/738/637 655/558/467
f 594/725/624 624/721/620 627/722/621 636/726/625
f 595/537/450 619/739/638 651/740/638 630/538/451
f 602/743/639 600/744/641 641/745/642 654/746/640
f 600/744/641 597/556/466 640/559/468 641/745/642
f 421/527/440 406/747/643 659/748/644 683/528/441
f 628/749/645 625/750/646 685/751/647 687/752/648
f 629/753/649 652/754/650 684/755/651 660/756/652
f 625/750/646 629/753/649 660/756/652 685/751/647
f 652/754/650 646/757/653 682/758/654 684/755/651
f 646/757/653 643/759/655 680/760/656 682/758/654
f 643/759/655 647/761/657 677/762/658 680/760/656
f 647/761/657 653/763/659 665/764/660 677/762/658
f 653/765/659 642/766/661 663/767/662 665/768/660
f 385/636/542 388/769/626 666/770/629 664/637/543
f 642/766/661 639/701/602 662/704/605 663/767/662
f 656/702/603 650/771/663 670/772/664 668/703/604
f 432/773/665 417/774/666 390/775/667
f 408/776/668 429/777/669 431/778/670 410/779/671
f 410/779/671 431/778/670 430/780/461 409/781/460
f 429/777/669 393/782/672 395/783/673 431/778/670
f 431/778/670 395/783/673 394/784/674 430/780/461
f 384/785/675 387/786/676 389/787/677 386/788/678
f 386/788/678 389/787/677 388/789/626 385/790/542
f 426/791/679 408/776/668 410/779/671 428/792/680
f 428/792/680 410/779/671 409/781/460 427/793/630
f 423/794/681 384/785/675 386/788/678 425/795/682
f 425/795/682 386/788/678 385/790/542 424/796/541
f 405/797/683 426/791/679 428/792/680 407/798/684
f 407/798/684 428/792/680 427/793/630 406/799/643
f 402/800/685 423/794/681 425/795/682 404/801/686
f 404/801/686 425/795/682 424/796/541 403/802/454
f 420/803/687 405/797/683 407/798/684 422/804/688
f 422/804/688 407/798/684 406/799/643 421/805/440
f 417/774/666 402/800/685 404/801/686 419/806/689
f 419/806/689 404/801/686 403/802/454 418/807/453
f 387/808/676 396/809/690 398/810/691 389/811/677
f 389/811/677 398/810/691 397/812/627 388/813/626
f 393/782/672 414/814/692 416/815/693 395/783/673
f 395/783/673 416/815/693 415/816/622 394/784/674
f 396/809/690 411/817/694 413/818/695 398/810/691
f 398/810/691 413/818/695 412/819/549 397/812/627
f 414/814/692 390/775/667 392/820/696 416/815/693
f 416/815/693 392/820/696 391/821/471 415/816/622
f 411/817/694 399/822/697 401/823/698 413/818/695
f 413/818/695 401/823/698 400/824/439 412/819/549
f 390/775/667 417/774/666 419/806/689 392/820/696
f 392/820/696 419/806/689 418/807/453 391/821/471
f 399/822/697 420/803/687 422/804/688 401/823/698
f 401/823/698 422/804/688 421/805/440 400/824/439
f 432/773/665 387/786/676 384/785/675
f 432/773/665 429/777/669 408/776/668
f 396/809/690 387/808/676 432/773/665
f 432/773/665 408/776/668 426/791/679
f 432/773/665 384/785/675 423/794/681
f 432/773/665 426/791/679 405/797/683
f 432/773/665 423/794/681 402/800/685
f 420/803/687 432/773/665 405/797/683
f 417/774/666 432/773/665 402/800/685
f 420/803/687 399/822/697 432/773/665
f 432/773/665 390/775/667 414/814/692
f 432/773/665 414/814/692 393/782/672
f 399/822/697 411/817/694 432/773/665
f 411/817/694 396/809/690 432/773/665
f 429/777/669 432/773/665 393/782/672
f 635/719/618 628/749/645 687/752/648 657/720/619
f 397/728/627 412/645/549 679/646/550 678/729/628
f 634/825/699 631/532/445 674/535/448 672/826/700
f 650/771/663 634/825/699 672/826/700 670/772/664
f 568/827/701 565/828/702 598/829/703 599/830/704
f 570/831/705 568/827/701 599/830/704 601/832/706
f 590/833/707 563/834/708 596/835/709 621/836/710
f 394/837/674 415/723/622 673/724/623 675/838/711
f 571/839/712 573/840/713 606/841/714 604/842/715
f 582/843/716 570/844/705 601/845/706 613/846/717
f 587/847/718 585/848/719 618/849/720 620/850/718
f 577/851/721 579/852/722 612/853/723 610/854/724
f 573/840/713 575/855/725 608/856/726 606/841/714
f 583/857/727 582/843/716 613/846/717 616/858/728
f 585/848/719 583/857/727 616/858/728 618/849/720
f 565/828/702 571/839/712 604/842/715 598/829/703
f 562/859/570 592/860/729 623/861/730 593/862/731
f 575/855/725 577/851/721 610/854/724 608/856/726
f 563/834/708 587/847/718 620/850/718 596/835/709
f 592/860/729 590/833/707 621/836/710 623/861/730
f 434/523/436 451/522/435 452/531/444 433/530/443
f 454/587/495 455/605/511 456/575/483 453/567/476
f 451/522/435 449/581/489 450/571/479 452/531/444
f 442/588/496 454/587/495 453/567/476 441/566/475
f 464/603/509 434/523/436 433/530/443 463/576/484
f 440/598/505 442/597/496 441/568/475 439/565/474
f 462/593/501 464/603/509 463/576/484 461/572/480
f 449/581/489 447/578/486 448/560/469 450/571/479
f 455/605/511 457/584/492 458/574/482 456/575/483
f 447/578/486 445/577/485 446/561/470 448/560/469
f 457/584/492 459/583/491 460/569/477 458/574/482
f 445/577/485 443/591/499 444/573/481 446/561/470
f 459/583/491 435/594/502 436/570/478 460/569/477
f 443/591/499 437/601/507 438/564/473 444/573/481
f 435/594/502 462/593/501 461/572/480 436/570/478
f 437/601/507 440/598/505 439/565/474 438/564/473
f 368/521/434 383/519/433 463/576/484 433/530/443
f 466/615/521 483/631/537 484/525/438 465/524/437
f 486/627/533 487/624/530 488/606/512 485/590/498
f 483/631/537 481/612/518 482/582/490 484/525/438
f 474/633/539 486/627/533 485/590/498 473/589/497
f 496/616/522 466/615/521 465/524/437 495/604/510
f 472/642/547 474/641/539 473/600/497 471/599/506
f 494/639/545 496/616/522 495/604/510 493/596/504
f 481/612/518 479/611/517 480/579/487 482/582/490
f 487/624/530 489/623/529 490/585/493 488/606/512
f 479/611/517 477/629/535 478/580/488 480/579/487
f 489/623/529 491/608/514 492/586/494 490/585/493
f 477/629/535 475/620/526 476/592/500 478/580/488
f 491/608/514 467/607/513 468/595/503 492/586/494
f 475/620/526 469/619/525 470/602/508 476/592/500
f 467/607/513 494/639/545 493/596/504 468/595/503
f 469/619/525 472/642/547 471/599/506 470/602/508
f 515/677/581 498/665/569 529/666/570 548/678/582
f 498/665/569 515/677/581 516/632/538 497/618/524
f 518/673/577 519/670/574 520/625/531 517/628/534
f 515/677/581 513/662/566 514/613/519 516/632/538
f 506/679/555 518/673/577 517/628/534 505/634/540
f 528/657/561 498/665/569 497/618/524 527/617/523
f 504/652/556 506/651/555 505/644/540 503/643/548
f 526/647/551 528/657/561 527/617/523 525/640/546
f 513/662/566 511/661/565 512/614/520 514/613/519
f 519/670/574 521/669/573 522/626/532 520/625/531
f 511/661/565 509/675/579 510/630/536 512/614/520
f 521/669/573 523/659/563 524/609/515 522/626/532
f 509/675/579 507/667/571 508/621/527 510/630/536
f 523/659/563 499/648/552 500/610/516 524/609/515
f 507/667/571 501/655/559 502/622/528 508/621/527
f 499/648/552 526/647/551 525/640/546 500/610/516
f 501/655/559 504/652/556 503/643/548 502/622/528
f 483/631/537 466/615/521 497/618/524 516/632/538
f 530/717/616 547/690/538 548/678/582 529/666/570
f 550/682/584 551/681/583 552/671/575 549/674/578
f 547/690/538 545/689/591 546/663/567 548/678/582
f 538/697/598 550/682/584 549/674/578 537/680/558
f 560/715/614 530/717/616 529/666/570 559/658/562
f 536/710/610 538/709/598 537/654/558 535/653/557
f 558/705/606 560/715/614 559/658/562 557/650/554
f 545/689/591 543/686/588 544/664/568 546/663/567
f 551/681/583 553/694/595 554/672/576 552/671/575
f 543/686/588 541/685/587 542/676/580 544/664/568
f 553/694/595 555/693/594 556/660/564 554/672/576
f 541/685/587 539/699/600 540/668/572 542/676/580
f 555/693/594 531/706/607 532/649/553 556/660/564
f 539/699/600 533/713/612 534/656/560 540/668/572
f 531/706/607 558/705/606 557/650/554 532/649/553
f 533/713/612 536/710/610 535/653/557 534/656/560
f 579/852/722 562/859/570 593/862/731 612/853/723
f 562/859/570 579/852/722 580/691/592 561/718/617
f 582/843/716 583/857/727 584/684/586 581/683/585
f 579/852/722 577/851/721 578/692/593 580/691/592
f 570/844/705 582/843/716 581/683/585 569/698/599
f 592/860/729 562/859/570 561/718/617 591/716/615
f 568/827/701 570/831/705 569/712/599 567/711/611
f 590/833/707 592/860/729 591/716/615 589/708/609
f 577/851/721 575/855/725 576/687/589 578/692/593
f 583/857/727 585/848/719 586/695/596 584/684/586
f 575/855/725 573/840/713 574/688/590 576/687/589
f 585/848/719 587/847/718 588/696/597 586/695/596
f 573/840/713 571/839/712 572/700/601 574/688/590
f 587/847/718 563/834/708 564/707/608 588/696/597
f 571/839/712 565/828/702 566/714/613 572/700/601
f 563/834/708 590/833/707 589/708/609 564/707/608
f 565/828/702 568/827/701 567/711/611 566/714/613
f 547/690/538 530/717/616 561/718/617 580/691/592
f 594/725/624 611/553/465 612/853/723 593/862/731
f 614/545/458 615/544/457 616/858/728 613/846/717
f 611/553/465 609/552/464 610/854/724 612/853/723
f 602/741/639 614/545/458 613/846/717 601/845/706
f 624/721/620 594/725/624 593/862/731 623/861/730
f 600/744/641 602/743/639 601/832/706 599/830/704
f 622/536/449 624/721/620 623/861/730 621/836/710
f 609/552/464 607/736/635 608/856/726 610/854/724
f 615/544/457 617/733/632 618/849/720 616/858/728
f 607/736/635 605/735/634 606/841/714 608/856/726
f 617/733/632 619/739/638 620/850/718 618/849/720
f 605/735/634 603/557/467 604/842/715 606/841/714
f 619/739/638 595/537/450 596/835/709 620/850/718
f 603/557/467 597/556/466 598/829/703 604/842/715
f 595/537/450 622/536/449 621/836/710 596/835/709
f 597/556/466 600/744/641 599/830/704 598/829/703
f 403/541/454 424/635/541 661/638/544 667/542/455
f 656/702/603 639/701/602 640/559/468 655/558/467
f 642/766/661 653/765/659 654/746/640 641/745/642
f 652/754/650 629/753/649 630/538/451 651/740/638
f 628/749/645 635/719/618 636/726/625 627/722/621
f 650/771/663 656/702/603 655/558/467 649/738/637
f 653/763/659 647/761/657 648/546/459 654/742/640
f 646/757/653 652/754/650 651/740/638 645/734/633
f 638/533/446 631/532/445 632/555/464 637/554/465
f 634/825/699 650/771/663 649/738/637 633/737/636
f 647/761/657 643/759/655 644/547/457 648/546/459
f 643/759/655 646/757/653 645/734/633 644/547/457
f 639/701/602 642/766/661 641/745/642 640/559/468
f 635/719/618 638/533/446 637/554/465 636/726/625
f 631/532/445 634/825/699 633/737/636 632/555/464
f 629/753/649 625/750/646 626/539/452 630/538/451
f 625/750/646 628/749/645 627/722/621 626/539/452
f 406/747/643 427/731/630 686/732/631 659/748/644
f 658/550/462 675/838/711 676/534/447 657/720/619
f 678/729/628 679/646/550 680/760/656 677/762/658
f 675/838/711 673/724/623 674/535/448 676/534/447
f 666/730/629 678/729/628 677/762/658 665/764/660
f 688/551/463 658/550/462 657/720/619 687/752/648
f 664/637/543 666/770/629 665/768/660 663/767/662
f 686/732/631 688/551/463 687/752/648 685/751/647
f 673/724/623 671/563/472 672/826/700 674/535/448
f 679/646/550 681/529/442 682/758/654 680/760/656
f 671/563/472 669/543/456 670/772/664 672/826/700
f 681/529/442 683/528/441 684/755/651 682/758/654
f 669/543/456 667/542/455 668/703/604 670/772/664
f 683/528/441 659/748/644 660/756/652 684/755/651
f 667/542/455 661/638/544 662/704/605 668/703/604
f 659/748/644 686/732/631 685/751/647 660/756/652
f 661/638/544 664/637/543 663/767/662 662/704/605
f 430/549/461 394/837/674 675/838/711 658/550/462
