# Blender v2.92.0 OBJ File: ''
# www.blender.org
mtllib snake_yellowEye.mtl
o snake_yellowEye.obj.001
v 1.962960 44.479198 8.910235
v 1.876590 44.554798 8.925235
v 1.865940 44.505901 8.951945
v 1.778420 44.561298 8.985855
v 1.801490 44.602299 8.954326
v 1.707510 44.640900 9.009215
v 1.740640 44.670601 8.974376
v 1.658930 44.738400 9.020115
v 1.698960 44.754200 8.983735
v 1.925780 44.433399 8.839146
v 1.819240 44.462700 8.884965
v 1.723130 44.523499 8.922205
v 1.645260 44.611000 8.947855
v 1.591910 44.717999 8.959835
v 1.775680 44.435902 8.807945
v 1.675190 44.499500 8.846895
v 1.593750 44.591000 8.873715
v 1.537960 44.702801 8.886235
v 2.329920 44.875000 8.693416
v 2.255610 44.963600 8.701285
v 2.274740 44.871498 8.703375
v 2.269780 44.778400 8.716735
v 2.241120 44.691799 8.740275
v 2.324150 44.766499 8.708975
v 2.191090 44.618801 8.772105
v 2.290740 44.665699 8.736415
v 2.123730 44.565201 8.809635
v 2.232440 44.580601 8.773505
v 2.153950 44.518101 8.817235
v 2.044520 44.535400 8.849825
v 2.061630 44.483398 8.864085
v 1.959850 44.531898 8.889435
v 2.328780 44.868000 8.601046
v 2.307630 44.982300 8.690975
v 2.322430 44.748901 8.618135
v 2.285750 44.638100 8.648255
v 2.221730 44.544701 8.688995
v 2.135520 44.476101 8.737025
v 2.034140 44.438000 8.788465
v 2.308520 44.859798 8.511045
v 2.304300 44.985901 8.598375
v 2.301870 44.735199 8.528915
v 2.263530 44.619301 8.560425
v 2.196560 44.521599 8.603025
v 2.106430 44.449902 8.653245
v 2.000410 44.410000 8.707035
v 1.887100 44.405201 8.760036
v 1.763480 45.098999 8.912915
v 1.675810 45.055000 8.974695
v 1.713440 45.025902 8.944756
v 1.684780 44.939400 8.968295
v 1.642410 44.954102 9.002135
v 1.679820 44.846298 8.981646
v 1.636640 44.845600 9.017695
v 1.734120 45.140099 8.937605
v 1.610440 45.065701 8.909945
v 1.573770 44.954899 8.940075
v 1.567420 44.835800 8.957166
v 1.674480 45.159199 8.869215
v 1.557350 45.066399 8.834065
v 1.518990 44.950600 8.865575
v 1.512350 44.826000 8.883455
v 2.213920 45.047199 8.710646
v 2.259050 45.079700 8.701885
v 2.153060 45.115501 8.730696
v 2.188130 45.159302 8.725235
v 2.077970 45.162998 8.759786
v 2.100620 45.214802 8.759155
v 1.994710 45.185902 8.795586
v 1.904930 45.237301 8.847025
v 2.003600 45.241501 8.800876
v 1.910050 45.182301 8.835196
v 1.812610 45.202599 8.893866
v 1.830830 45.152599 8.875385
v 2.250950 45.092800 8.610345
v 2.173060 45.180302 8.635995
v 1.970410 45.270401 8.719055
v 2.076960 45.241100 8.673235
v 1.862060 45.265900 8.769735
v 1.760670 45.227699 8.821176
v 2.282910 44.983002 8.508255
v 2.227130 45.094799 8.520785
v 2.145680 45.186298 8.547606
v 2.045180 45.249901 8.586545
v 1.820460 45.275799 8.687455
v 1.933760 45.280602 8.634456
v 1.714440 45.235901 8.741245
v 1.624300 45.164200 8.791475
v 2.062300 44.686001 8.784185
v 2.062070 44.643700 8.789306
v 2.054470 44.741901 8.781156
v 2.039240 44.807098 8.780464
v 2.017820 44.876202 8.782175
v 1.991970 44.943600 8.786116
v 1.963770 45.003899 8.792006
v 1.935500 45.052200 8.799356
v 1.909450 45.084499 8.807566
v 1.872140 45.092400 8.823885
v 1.887750 45.098301 8.815966
v 1.863890 45.067402 8.830674
v 1.863670 45.025101 8.835805
v 1.871500 44.969200 8.838825
v 1.886740 44.903999 8.839516
v 1.908150 44.834900 8.837815
v 1.934000 44.767502 8.833865
v 1.962210 44.707199 8.827975
v 1.990470 44.658901 8.820625
v 2.016510 44.626598 8.812414
v 2.038220 44.612801 8.804026
v 2.053820 44.618698 8.796095
v 1.926700 45.460602 3.569994
v 1.831990 45.457100 3.503785
v 1.843060 45.494202 3.544515
v 1.744180 45.520802 3.490534
v 1.767700 45.548801 3.533154
v 1.706750 45.619999 3.536824
v 1.673150 45.603699 3.494814
v 1.665130 45.702000 3.555234
v 1.929450 45.417999 3.533474
v 1.786010 45.393501 3.553724
v 1.689590 45.463402 3.539174
v 1.611580 45.554501 3.543875
v 1.558310 45.659401 3.567444
v 1.624630 45.699299 3.516274
v 1.893050 45.350498 3.586334
v 1.743340 45.341900 3.618354
v 1.642510 45.415001 3.603144
v 1.560930 45.510300 3.608054
v 1.505220 45.619999 3.632704
v 2.277760 45.819199 3.897484
v 2.244500 45.718700 3.850695
v 2.225570 45.804901 3.882354
v 2.299800 45.718800 3.860574
v 2.239190 45.635399 3.808334
v 2.293620 45.621700 3.811224
v 2.210080 45.561600 3.758724
v 2.259690 45.535702 3.753414
v 2.159510 45.503300 3.705884
v 2.121630 45.423500 3.631474
v 2.200770 45.467800 3.691834
v 2.091600 45.465401 3.654094
v 2.028680 45.406399 3.577224
v 2.011850 45.450699 3.607545
v 2.275550 45.791100 3.986084
v 2.299770 45.680901 3.945554
v 2.292980 45.574200 3.891354
v 2.255710 45.479698 3.827875
v 2.104090 45.356602 3.693954
v 2.191010 45.405201 3.760244
v 2.002020 45.337799 3.634374
v 2.255250 45.757801 4.070475
v 2.280580 45.642399 4.028096
v 2.273470 45.530899 3.971424
v 2.234510 45.432098 3.905034
v 2.075960 45.303299 3.765004
v 2.166840 45.354198 3.834314
v 1.969220 45.283699 3.702704
v 1.855270 45.297001 3.652464
v 1.642700 45.982899 3.660334
v 1.731190 46.003601 3.731704
v 1.680620 45.945301 3.678854
v 1.608760 45.896900 3.602524
v 1.651500 45.871498 3.629254
v 1.602580 45.799702 3.553174
v 1.646200 45.788200 3.586904
v 1.642840 46.045399 3.793274
v 1.578140 45.970798 3.725654
v 1.540880 45.876400 3.662174
v 1.534080 45.769699 3.607964
v 1.593620 46.023602 3.868854
v 1.525960 45.945702 3.798154
v 1.487000 45.846901 3.731764
v 1.479900 45.735401 3.675074
v 2.183950 45.886902 3.900774
v 2.122980 45.958099 3.904444
v 2.229240 45.914799 3.918944
v 2.047640 46.012699 3.893084
v 2.158210 45.997700 3.923224
v 1.964000 46.046299 3.867594
v 2.070400 46.061401 3.909974
v 1.878850 46.056198 3.830054
v 1.972930 46.100601 3.880276
v 1.873710 46.112099 3.836526
v 1.799100 46.041599 3.783504
v 1.780760 46.095001 3.782274
v 1.701610 46.050701 3.721914
v 2.222280 45.896099 4.009655
v 2.144260 45.987202 4.014356
v 2.047830 46.057098 3.999804
v 1.940800 46.100101 3.967196
v 1.831840 46.112701 3.919146
v 1.729750 46.094002 3.859574
v 2.199550 45.867500 4.095116
v 2.117970 45.962799 4.100036
v 2.017130 46.035900 4.084825
v 1.905190 46.080799 4.050715
v 1.791250 46.094101 4.000485
v 1.684510 46.074501 3.938174
v 2.030730 45.570599 3.717484
v 2.030350 45.532398 3.699144
v 2.023040 45.622398 3.738354
v 2.007950 45.683601 3.760044
v 1.986660 45.749401 3.780814
v 1.960890 45.814301 3.798974
v 1.932740 45.873199 3.813044
v 1.904480 45.921200 3.821905
v 1.878400 45.954399 3.824814
v 1.856630 45.970299 3.821555
v 1.840910 45.967400 3.812384
v 1.832530 45.945999 3.798044
v 1.832160 45.907902 3.779694
v 1.839840 45.856098 3.758824
v 1.854940 45.794899 3.737134
v 1.876230 45.729099 3.716364
v 1.901990 45.664200 3.698204
v 1.930150 45.605301 3.684134
v 1.958400 45.557301 3.675284
v 1.984480 45.523998 3.672374
v 2.006260 45.508202 3.675624
v 2.021970 45.511101 3.684804
vn 0.3418 -0.3813 0.8589
vn 0.4817 0.3087 0.8202
vn 0.2191 -0.3474 0.9118
vn 0.1090 -0.2771 0.9546
vn 0.5237 0.2648 0.8097
vn 0.0201 -0.1768 0.9840
vn 0.5558 0.2179 0.8023
vn -0.0393 -0.0551 0.9977
vn 0.5790 0.1674 0.7980
vn 0.0775 -0.9106 0.4060
vn -0.1659 -0.8437 0.5105
vn -0.3851 -0.7049 0.5957
vn -0.5620 -0.5060 0.6544
vn -0.6816 -0.2645 0.6823
vn -0.2154 -0.8780 0.4274
vn -0.4408 -0.7353 0.5149
vn -0.6221 -0.5309 0.5755
vn -0.7448 -0.2828 0.6044
vn 0.7983 0.1100 0.5922
vn 0.2385 0.0424 0.9702
vn 0.2244 0.0965 0.9697
vn 0.2184 0.1529 0.9638
vn 0.2162 0.2153 0.9523
vn 0.7918 -0.0233 0.6104
vn 0.2203 0.2858 0.9326
vn 0.7509 -0.1474 0.6437
vn 0.2456 0.3751 0.8938
vn 0.6795 -0.2529 0.6887
vn 0.5822 -0.3315 0.7424
vn 0.3420 0.4096 0.8457
vn 0.4666 -0.3753 0.8009
vn 0.4265 0.3604 0.8296
vn 0.9901 0.0653 -0.1245
vn 0.7705 0.2418 0.5898
vn 0.9756 -0.2008 -0.0887
vn 0.8933 -0.4488 -0.0228
vn 0.7495 -0.6586 0.0671
vn 0.5549 -0.8134 0.1744
vn 0.3246 -0.9000 0.2908
vn 0.9729 0.0566 -0.2242
vn 0.9354 0.3294 -0.1283
vn 0.9580 -0.2170 -0.1874
vn 0.8735 -0.4718 -0.1200
vn 0.7256 -0.6876 -0.0276
vn 0.5257 -0.8467 0.0823
vn 0.2890 -0.9358 0.2020
vn 0.0348 -0.9466 0.3204
vn 0.5848 -0.0789 0.8074
vn -0.0163 0.3344 0.9423
vn 0.5920 -0.0059 0.8059
vn 0.5973 0.0566 0.8000
vn -0.0581 0.2108 0.9758
vn 0.5927 0.1134 0.7974
vn -0.0661 0.0775 0.9948
vn 0.0562 0.4383 0.8971
vn -0.6372 0.5135 0.5747
vn -0.7204 0.2662 0.6404
vn -0.7357 -0.0000 0.6773
vn -0.4924 0.7225 0.4853
vn -0.6991 0.5169 0.4940
vn -0.7845 0.2629 0.5616
vn -0.8004 -0.0109 0.5994
vn 0.2613 -0.0086 0.9652
vn 0.7101 0.3621 0.6038
vn 0.2920 -0.0560 0.9548
vn 0.6221 0.4603 0.6333
vn 0.3319 -0.1040 0.9376
vn 0.5127 0.5300 0.6754
vn 0.3814 -0.1555 0.9112
vn 0.2681 0.5581 0.7853
vn 0.3913 0.5635 0.7276
vn 0.4514 -0.2078 0.8678
vn 0.1534 0.5154 0.8431
vn 0.5472 -0.1719 0.8192
vn 0.8156 0.5700 -0.0993
vn 0.6398 0.7675 -0.0396
vn 0.1794 0.9723 0.1496
vn 0.4214 0.9057 0.0455
vn -0.0672 0.9621 0.2641
vn -0.2974 0.8763 0.3790
vn 0.9168 0.3279 -0.2281
vn 0.7938 0.5750 -0.1983
vn 0.6130 0.7781 -0.1371
vn 0.3889 0.9200 -0.0491
vn -0.1132 0.9780 0.1751
vn 0.1403 0.9884 0.0583
vn -0.3497 0.8897 0.2935
vn -0.5502 0.7317 0.4023
vn 0.2061 0.1243 0.9706
vn 0.1246 0.2192 0.9677
vn 0.2575 0.0915 0.9619
vn 0.2845 0.0764 0.9556
vn 0.2964 0.0632 0.9530
vn 0.2955 0.0454 0.9543
vn 0.2840 0.0166 0.9587
vn 0.2645 -0.0413 0.9635
vn 0.2598 -0.1662 0.9512
vn 0.6391 -0.1976 0.7433
vn 0.3679 -0.2992 0.8804
vn 0.6662 -0.0154 0.7456
vn 0.6070 0.0851 0.7902
vn 0.5643 0.1198 0.8168
vn 0.5408 0.1354 0.8302
vn 0.5300 0.1489 0.8348
vn 0.5298 0.1663 0.8317
vn 0.5381 0.1939 0.8203
vn 0.5492 0.2489 0.7978
vn 0.5318 0.3665 0.7635
vn 0.3955 0.4913 0.7760
vn 0.1236 0.3923 0.9115
vn 0.4229 0.6116 -0.6686
vn 0.2098 -0.0293 -0.9773
vn 0.4780 0.5587 -0.6778
vn 0.1009 0.0494 -0.9937
vn 0.5177 0.5133 -0.6845
vn 0.5494 0.4660 -0.6936
vn 0.0118 0.1510 -0.9885
vn 0.5723 0.4164 -0.7065
vn 0.3309 -0.0763 -0.9406
vn -0.1721 -0.6274 -0.7595
vn -0.3906 -0.4713 -0.7908
vn -0.5675 -0.2677 -0.7786
vn -0.6889 -0.0323 -0.7241
vn -0.0492 0.2691 -0.9619
vn 0.0701 -0.7232 -0.6871
vn -0.2194 -0.6867 -0.6930
vn -0.4439 -0.5265 -0.7251
vn -0.6258 -0.3173 -0.7125
vn -0.7507 -0.0756 -0.6563
vn 0.7654 0.4210 -0.4868
vn 0.2140 0.4040 -0.8894
vn 0.2281 0.3524 -0.9076
vn 0.7919 0.2971 -0.5334
vn 0.2084 0.4561 -0.8652
vn 0.7839 0.1770 -0.5951
vn 0.2096 0.5123 -0.8328
vn 0.7415 0.0706 -0.6673
vn 0.2159 0.5752 -0.7890
vn 0.5702 -0.0689 -0.8186
vn 0.6681 -0.0135 -0.7440
vn 0.2381 0.6459 -0.7253
vn 0.4542 -0.0908 -0.8862
vn 0.3354 0.6633 -0.6690
vn 0.9367 0.2713 0.2213
vn 0.9915 0.0240 0.1278
vn 0.9764 -0.2160 0.0037
vn 0.8922 -0.4289 -0.1412
vn 0.5488 -0.7076 -0.4451
vn 0.7457 -0.5974 -0.2950
vn 0.3172 -0.7508 -0.5794
vn 0.9193 0.2366 0.3145
vn 0.9757 -0.0180 0.2185
vn 0.9601 -0.2643 0.0910
vn 0.8737 -0.4829 -0.0578
vn 0.5210 -0.7690 -0.3705
vn 0.7233 -0.6560 -0.2157
vn 0.2831 -0.8134 -0.5082
vn 0.0294 -0.7852 -0.6185
vn -0.0285 0.6238 -0.7811
vn 0.5710 0.1836 -0.8002
vn 0.5844 0.2553 -0.7703
vn -0.0707 0.5154 -0.8541
vn 0.5897 0.3116 -0.7451
vn -0.0776 0.3942 -0.9158
vn 0.5854 0.3649 -0.7239
vn -0.4993 0.8410 -0.2082
vn -0.6464 0.6714 -0.3626
vn -0.7304 0.4571 -0.5075
vn -0.7448 0.2160 -0.6314
vn -0.5564 0.8214 -0.1258
vn -0.7070 0.6474 -0.2846
vn -0.7936 0.4270 -0.4335
vn -0.8082 0.1795 -0.5608
vn 0.2506 0.3024 -0.9197
vn 0.2811 0.2540 -0.9254
vn 0.7057 0.5394 -0.4594
vn 0.3183 0.2020 -0.9262
vn 0.6179 0.6425 -0.4532
vn 0.3653 0.1454 -0.9195
vn 0.5091 0.7219 -0.4686
vn 0.4403 0.0821 -0.8941
vn 0.3871 0.7716 -0.5048
vn 0.2623 0.7864 -0.5592
vn 0.5367 0.1010 -0.8377
vn 0.1451 0.7649 -0.6276
vn 0.0455 0.7092 -0.7035
vn 0.8164 0.5069 0.2766
vn 0.6402 0.7117 0.2891
vn 0.4221 0.8690 0.2582
vn 0.1795 0.9660 0.1861
vn -0.0686 0.9946 0.0778
vn -0.3011 0.9519 -0.0573
vn 0.7958 0.4782 0.3716
vn 0.6147 0.6885 0.3848
vn 0.3903 0.8503 0.3529
vn 0.1410 0.9498 0.2794
vn -0.1135 0.9793 0.1676
vn -0.3526 0.9353 0.0289
vn 0.1959 0.4301 -0.8813
vn 0.1143 0.5204 -0.8462
vn 0.2475 0.3966 -0.8840
vn 0.2747 0.3803 -0.8832
vn 0.2864 0.3667 -0.8851
vn 0.2855 0.3501 -0.8921
vn 0.2736 0.3241 -0.9056
vn 0.2534 0.2706 -0.9287
vn 0.2483 0.1485 -0.9572
vn 0.3550 0.0007 -0.9349
vn 0.6293 0.0529 -0.7754
vn 0.6585 0.2266 -0.7177
vn 0.5995 0.3358 -0.7265
vn 0.5568 0.3774 -0.7400
vn 0.5333 0.3964 -0.7473
vn 0.5226 0.4107 -0.7471
vn 0.5226 0.4263 -0.7383
vn 0.5313 0.4489 -0.7185
vn 0.5431 0.4944 -0.6788
vn 0.5263 0.5958 -0.6066
vn 0.3899 0.7191 -0.5752
vn 0.1154 0.6691 -0.7341
usemtl sub2:eye_gold.001
s 1
f 1//1 2//2 3//3
f 4//4 2//2 5//5
f 6//6 5//5 7//7
f 8//8 7//7 9//9
f 10//10 3//3 11//11
f 11//11 4//4 12//12
f 12//12 6//6 13//13
f 13//13 8//8 14//14
f 15//15 10//10 11//11
f 15//15 12//12 16//16
f 16//16 13//13 17//17
f 17//17 14//14 18//18
f 19//19 20//20 21//21
f 22//22 19//19 21//21
f 23//23 24//24 22//22
f 25//25 26//26 23//23
f 27//27 28//28 25//25
f 29//29 30//30 31//31
f 31//31 32//32 1//1
f 33//33 34//34 19//19
f 35//35 19//19 24//24
f 36//36 24//24 26//26
f 37//37 26//26 28//28
f 38//38 28//28 29//29
f 39//39 29//29 31//31
f 10//10 31//31 1//1
f 40//40 41//41 33//33
f 42//42 33//33 35//35
f 43//43 35//35 36//36
f 44//44 36//36 37//37
f 45//45 37//37 38//38
f 46//46 38//38 39//39
f 47//47 39//39 10//10
f 48//48 49//49 50//50
f 49//49 51//51 50//50
f 52//52 53//53 51//51
f 54//54 9//9 53//53
f 55//55 56//56 49//49
f 49//49 57//57 52//52
f 52//52 58//58 54//54
f 54//54 14//14 8//8
f 59//59 60//60 56//56
f 56//56 61//61 57//57
f 57//57 62//62 58//58
f 58//58 18//18 14//14
f 34//34 63//63 20//20
f 64//64 65//65 63//63
f 66//66 67//67 65//65
f 68//68 69//69 67//67
f 70//70 69//69 71//71
f 72//72 73//73 74//74
f 74//74 55//55 48//48
f 41//41 64//64 34//34
f 75//75 66//66 64//64
f 76//76 68//68 66//66
f 77//77 68//68 78//78
f 79//79 71//71 77//77
f 70//70 80//80 73//73
f 73//73 59//59 55//55
f 81//81 75//75 41//41
f 82//82 76//76 75//75
f 83//83 78//78 76//76
f 84//84 77//77 78//78
f 85//85 77//77 86//86
f 79//79 87//87 80//80
f 80//80 88//88 59//59
f 25//25 89//89 90//90
f 23//23 91//91 89//89
f 22//22 92//92 91//91
f 21//21 93//93 92//92
f 63//63 93//93 20//20
f 65//65 94//94 63//63
f 67//67 95//95 65//65
f 69//69 96//96 67//67
f 72//72 97//97 69//69
f 72//72 98//98 99//99
f 74//74 100//100 98//98
f 48//48 101//101 100//100
f 50//50 102//102 101//101
f 51//51 103//103 102//102
f 53//53 104//104 103//103
f 7//7 104//104 9//9
f 5//5 105//105 7//7
f 2//2 106//106 5//5
f 32//32 107//107 2//2
f 30//30 108//108 32//32
f 27//27 109//109 30//30
f 27//27 90//90 110//110
f 111//111 112//112 113//113
f 113//113 114//114 115//115
f 114//114 116//116 115//115
f 117//117 118//118 116//116
f 119//119 120//120 112//112
f 112//112 121//121 114//114
f 114//114 122//122 117//117
f 117//117 123//123 124//124
f 125//125 126//126 120//120
f 120//120 127//127 121//121
f 121//121 128//128 122//122
f 122//122 129//129 123//123
f 130//130 131//131 132//132
f 133//133 134//134 131//131
f 135//135 136//136 134//134
f 137//137 138//138 136//136
f 139//139 138//138 140//140
f 141//141 142//142 143//143
f 143//143 119//119 111//111
f 144//144 133//133 130//130
f 145//145 135//135 133//133
f 146//146 137//137 135//135
f 147//147 140//140 137//137
f 148//148 140//140 149//149
f 139//139 150//150 142//142
f 142//142 125//125 119//119
f 151//151 145//145 144//144
f 152//152 146//146 145//145
f 153//153 147//147 146//146
f 154//154 149//149 147//147
f 155//155 149//149 156//156
f 148//148 157//157 150//150
f 150//150 158//158 125//125
f 159//159 160//160 161//161
f 162//162 161//161 163//163
f 164//164 163//163 165//165
f 124//124 165//165 118//118
f 166//166 159//159 167//167
f 167//167 162//162 168//168
f 168//168 164//164 169//169
f 169//169 124//124 123//123
f 170//170 167//167 171//171
f 171//171 168//168 172//172
f 172//172 169//169 173//173
f 173//173 123//123 129//129
f 174//174 130//130 132//132
f 175//175 176//176 174//174
f 177//177 178//178 175//175
f 179//179 180//180 177//177
f 181//181 182//182 179//179
f 183//183 184//184 185//185
f 185//185 160//160 186//186
f 187//187 130//130 176//176
f 188//188 176//176 178//178
f 189//189 178//178 180//180
f 190//190 180//180 182//182
f 191//191 182//182 183//183
f 192//192 183//183 185//185
f 166//166 185//185 186//186
f 193//193 144//144 187//187
f 194//194 187//187 188//188
f 195//195 188//188 189//189
f 196//196 189//189 190//190
f 197//197 190//190 191//191
f 198//198 191//191 192//192
f 170//170 192//192 166//166
f 199//199 138//138 200//200
f 201//201 136//136 199//199
f 202//202 134//134 201//201
f 203//203 131//131 202//202
f 174//174 203//203 204//204
f 175//175 204//204 205//205
f 177//177 205//205 206//206
f 179//179 206//206 207//207
f 181//181 207//207 208//208
f 209//209 181//181 208//208
f 210//210 184//184 209//209
f 211//211 160//160 210//210
f 212//212 161//161 211//211
f 213//213 163//163 212//212
f 214//214 165//165 213//213
f 116//116 214//214 215//215
f 115//115 215//215 216//216
f 113//113 216//216 217//217
f 111//111 217//217 218//218
f 143//143 218//218 219//219
f 141//141 219//219 220//220
f 200//200 141//141 220//220
f 1//1 32//32 2//2
f 4//4 3//3 2//2
f 6//6 4//4 5//5
f 8//8 6//6 7//7
f 10//10 1//1 3//3
f 11//11 3//3 4//4
f 12//12 4//4 6//6
f 13//13 6//6 8//8
f 15//15 47//47 10//10
f 15//15 11//11 12//12
f 16//16 12//12 13//13
f 17//17 13//13 14//14
f 19//19 34//34 20//20
f 22//22 24//24 19//19
f 23//23 26//26 24//24
f 25//25 28//28 26//26
f 27//27 29//29 28//28
f 29//29 27//27 30//30
f 31//31 30//30 32//32
f 33//33 41//41 34//34
f 35//35 33//33 19//19
f 36//36 35//35 24//24
f 37//37 36//36 26//26
f 38//38 37//37 28//28
f 39//39 38//38 29//29
f 10//10 39//39 31//31
f 40//40 81//81 41//41
f 42//42 40//40 33//33
f 43//43 42//42 35//35
f 44//44 43//43 36//36
f 45//45 44//44 37//37
f 46//46 45//45 38//38
f 47//47 46//46 39//39
f 48//48 55//55 49//49
f 49//49 52//52 51//51
f 52//52 54//54 53//53
f 54//54 8//8 9//9
f 55//55 59//59 56//56
f 49//49 56//56 57//57
f 52//52 57//57 58//58
f 54//54 58//58 14//14
f 59//59 88//88 60//60
f 56//56 60//60 61//61
f 57//57 61//61 62//62
f 58//58 62//62 18//18
f 34//34 64//64 63//63
f 64//64 66//66 65//65
f 66//66 68//68 67//67
f 68//68 71//71 69//69
f 70//70 72//72 69//69
f 72//72 70//70 73//73
f 74//74 73//73 55//55
f 41//41 75//75 64//64
f 75//75 76//76 66//66
f 76//76 78//78 68//68
f 77//77 71//71 68//68
f 79//79 70//70 71//71
f 70//70 79//79 80//80
f 73//73 80//80 59//59
f 81//81 82//82 75//75
f 82//82 83//83 76//76
f 83//83 84//84 78//78
f 84//84 86//86 77//77
f 85//85 79//79 77//77
f 79//79 85//85 87//87
f 80//80 87//87 88//88
f 25//25 23//23 89//89
f 23//23 22//22 91//91
f 22//22 21//21 92//92
f 21//21 20//20 93//93
f 63//63 94//94 93//93
f 65//65 95//95 94//94
f 67//67 96//96 95//95
f 69//69 97//97 96//96
f 72//72 99//99 97//97
f 72//72 74//74 98//98
f 74//74 48//48 100//100
f 48//48 50//50 101//101
f 50//50 51//51 102//102
f 51//51 53//53 103//103
f 53//53 9//9 104//104
f 7//7 105//105 104//104
f 5//5 106//106 105//105
f 2//2 107//107 106//106
f 32//32 108//108 107//107
f 30//30 109//109 108//108
f 27//27 110//110 109//109
f 27//27 25//25 90//90
f 111//111 119//119 112//112
f 113//113 112//112 114//114
f 114//114 117//117 116//116
f 117//117 124//124 118//118
f 119//119 125//125 120//120
f 112//112 120//120 121//121
f 114//114 121//121 122//122
f 117//117 122//122 123//123
f 125//125 158//158 126//126
f 120//120 126//126 127//127
f 121//121 127//127 128//128
f 122//122 128//128 129//129
f 130//130 133//133 131//131
f 133//133 135//135 134//134
f 135//135 137//137 136//136
f 137//137 140//140 138//138
f 139//139 141//141 138//138
f 141//141 139//139 142//142
f 143//143 142//142 119//119
f 144//144 145//145 133//133
f 145//145 146//146 135//135
f 146//146 147//147 137//137
f 147//147 149//149 140//140
f 148//148 139//139 140//140
f 139//139 148//148 150//150
f 142//142 150//150 125//125
f 151//151 152//152 145//145
f 152//152 153//153 146//146
f 153//153 154//154 147//147
f 154//154 156//156 149//149
f 155//155 148//148 149//149
f 148//148 155//155 157//157
f 150//150 157//157 158//158
f 159//159 186//186 160//160
f 162//162 159//159 161//161
f 164//164 162//162 163//163
f 124//124 164//164 165//165
f 166//166 186//186 159//159
f 167//167 159//159 162//162
f 168//168 162//162 164//164
f 169//169 164//164 124//124
f 170//170 166//166 167//167
f 171//171 167//167 168//168
f 172//172 168//168 169//169
f 173//173 169//169 123//123
f 174//174 176//176 130//130
f 175//175 178//178 176//176
f 177//177 180//180 178//178
f 179//179 182//182 180//180
f 181//181 183//183 182//182
f 183//183 181//181 184//184
f 185//185 184//184 160//160
f 187//187 144//144 130//130
f 188//188 187//187 176//176
f 189//189 188//188 178//178
f 190//190 189//189 180//180
f 191//191 190//190 182//182
f 192//192 191//191 183//183
f 166//166 192//192 185//185
f 193//193 151//151 144//144
f 194//194 193//193 187//187
f 195//195 194//194 188//188
f 196//196 195//195 189//189
f 197//197 196//196 190//190
f 198//198 197//197 191//191
f 170//170 198//198 192//192
f 199//199 136//136 138//138
f 201//201 134//134 136//136
f 202//202 131//131 134//134
f 203//203 132//132 131//131
f 174//174 132//132 203//203
f 175//175 174//174 204//204
f 177//177 175//175 205//205
f 179//179 177//177 206//206
f 181//181 179//179 207//207
f 209//209 184//184 181//181
f 210//210 160//160 184//184
f 211//211 161//161 160//160
f 212//212 163//163 161//161
f 213//213 165//165 163//163
f 214//214 118//118 165//165
f 116//116 118//118 214//214
f 115//115 116//116 215//215
f 113//113 115//115 216//216
f 111//111 113//113 217//217
f 143//143 111//111 218//218
f 141//141 143//143 219//219
f 200//200 138//138 141//141
