# Blender 4.3.2
# www.blender.org
mtllib Bone_Collision_Coarse2.mtl
o Bone_Collision_Coarse2
v -0.016151 -0.004201 0.034110
v -0.016128 -0.002480 0.033873
v -0.016197 -0.003072 0.033428
v -0.015979 -0.014376 0.031676
v -0.016633 -0.010160 0.032308
v -0.016387 -0.012212 0.032083
v -0.016593 -0.009471 0.032294
v -0.016368 -0.007869 0.032054
v -0.016100 -0.004084 0.033089
v -0.015881 -0.001884 0.032347
v -0.014246 -0.009227 0.035757
v -0.014785 -0.005702 0.035361
v -0.015590 -0.004227 0.035351
v -0.014912 -0.004273 0.035915
v -0.013878 -0.004643 0.036139
v -0.015069 -0.002528 0.035739
v -0.014188 -0.002874 0.036257
v -0.014578 -0.000366 0.035493
v -0.013028 -0.000151 0.035909
v -0.015614 -0.010282 0.034236
v -0.014070 -0.010912 0.035938
v -0.015148 -0.008271 0.034164
v -0.015810 -0.009272 0.033833
v -0.014895 -0.007454 0.033707
v -0.014059 -0.007519 0.034755
v -0.015677 -0.005610 0.033502
v -0.015101 -0.006177 0.034624
v -0.015140 -0.006387 0.034047
v -0.014352 -0.006571 0.034836
v -0.015913 -0.004337 0.034807
v -0.015657 -0.005530 0.034284
v -0.015779 -0.002390 0.034924
v -0.015310 -0.000538 0.034542
v -0.015481 -0.000333 0.032718
v -0.015041 0.000339 0.033559
v -0.014484 0.000625 0.034794
v -0.014554 0.000575 0.033821
v -0.013940 0.000958 0.034344
v -0.013966 0.000134 0.033461
v -0.014531 -0.019267 0.031699
v -0.014123 -0.019358 0.032346
v -0.014380 -0.015655 0.033617
v -0.015416 -0.012152 0.033933
v -0.015931 -0.006774 0.031600
v -0.015418 -0.005540 0.032699
v -0.015109 -0.006840 0.032488
v -0.015111 -0.007124 0.032988
v -0.014748 -0.006243 0.031770
v -0.015773 -0.003347 0.032366
v -0.014916 -0.004771 0.031966
v -0.015413 -0.000727 0.032073
v -0.013718 -0.001354 0.031729
v -0.014837 0.000232 0.032802
v -0.015065 -0.000253 0.032397
v -0.015430 -0.018590 0.031132
v -0.015009 -0.019075 0.031130
v -0.014635 -0.019342 0.030992
v -0.013986 -0.019347 0.030361
v -0.015777 -0.015792 0.031477
v -0.015578 -0.006370 0.031362
v -0.014646 -0.005775 0.030989
v -0.014497 -0.006021 0.031316
v -0.014355 -0.005906 0.031567
v -0.013819 -0.005807 0.031180
v -0.013852 -0.005784 0.030920
v -0.014848 -0.002811 0.031354
v -0.013929 -0.002551 0.030734
v -0.015010 -0.000917 0.031712
v -0.014917 -0.001372 0.031261
v -0.014290 -0.001259 0.031204
v -0.012194 -0.003370 0.039296
v -0.012503 -0.008596 0.038007
v -0.012266 -0.007783 0.037684
v -0.012370 -0.006516 0.038251
v -0.012214 -0.005816 0.037394
v -0.012627 -0.003474 0.038370
v -0.012536 -0.005052 0.037707
v -0.012511 -0.003576 0.037382
v -0.012187 -0.001029 0.037090
v -0.013674 -0.013265 0.035519
v -0.012076 -0.012139 0.038174
v -0.012563 -0.007070 0.036374
v -0.013309 -0.007217 0.035110
v -0.013015 -0.004240 0.035999
v -0.011782 -0.003322 0.035499
v -0.013262 -0.002789 0.036407
v -0.012202 -0.002613 0.036184
v -0.012987 -0.000687 0.036323
v -0.012661 -0.001588 0.036555
v -0.012455 -0.000989 0.036368
v -0.012173 -0.000750 0.035800
v -0.013276 0.000066 0.035589
v -0.012037 -0.019204 0.034785
v -0.012241 -0.019636 0.033887
v -0.013185 -0.018111 0.034249
v -0.013677 -0.006027 0.035378
v -0.013556 -0.007080 0.034933
v -0.012895 -0.005679 0.035204
v -0.012943 -0.006784 0.034918
v -0.012554 -0.006813 0.034958
v -0.012424 -0.006474 0.034625
v -0.012452 -0.000722 0.034942
v -0.013579 0.000396 0.035022
v -0.013475 0.000616 0.033829
v -0.013072 0.000426 0.034011
v -0.012380 -0.000265 0.033836
v -0.013088 -0.019607 0.032213
v -0.013201 -0.019527 0.032987
v -0.013822 -0.000508 0.032229
v -0.013737 -0.000380 0.032817
v -0.013356 -0.000805 0.032496
v -0.013090 -0.001560 0.031843
v -0.012584 -0.001095 0.032257
v -0.012508 -0.001271 0.031821
v -0.013222 -0.000077 0.033087
v -0.013336 -0.019280 0.029890
v -0.013566 -0.004517 0.031006
v -0.013512 -0.005429 0.030225
v -0.013359 -0.005643 0.030819
v -0.012800 -0.005491 0.030290
v -0.012918 -0.005542 0.030614
v -0.012445 -0.004407 0.030592
v -0.012333 -0.005417 0.030391
v -0.012853 -0.002489 0.030472
v -0.013221 -0.001139 0.031045
v -0.013476 -0.001772 0.030645
v -0.012605 -0.000925 0.031195
v -0.012108 -0.001948 0.030668
v -0.012167 -0.000895 0.031384
v -0.010322 -0.011415 0.039751
v -0.011662 -0.009463 0.039423
v -0.011781 -0.009043 0.039294
v -0.010900 -0.009290 0.039899
v -0.011933 -0.007858 0.038641
v -0.011111 -0.007802 0.039781
v -0.010518 -0.007541 0.040151
v -0.012313 -0.006336 0.038973
v -0.011510 -0.006309 0.039880
v -0.011605 -0.006792 0.039572
v -0.010583 -0.005988 0.040169
v -0.011170 -0.004034 0.040188
v -0.010196 -0.005462 0.040465
v -0.010238 -0.003701 0.040565
v -0.012195 -0.003085 0.039182
v -0.010592 -0.000646 0.040045
v -0.010783 0.000513 0.039026
v -0.010770 -0.012784 0.039055
v -0.010336 -0.015734 0.037944
v -0.012138 -0.007258 0.037169
v -0.012005 -0.000618 0.037859
v -0.010795 0.000082 0.039546
v -0.011162 0.000222 0.038297
v -0.010627 0.000485 0.037959
v -0.010691 -0.018971 0.036180
v -0.009828 -0.019972 0.035884
v -0.011716 -0.016696 0.036356
v -0.011737 -0.006354 0.035589
v -0.011538 -0.006557 0.036375
v -0.011414 -0.004705 0.036568
v -0.011451 -0.006485 0.035919
v -0.011065 -0.006295 0.035920
v -0.010415 -0.006426 0.035119
v -0.011617 -0.004256 0.036598
v -0.011146 -0.004341 0.036303
v -0.010907 -0.004286 0.035972
v -0.011963 -0.001433 0.036489
v -0.011144 -0.002749 0.035653
v -0.011941 -0.000692 0.037002
v -0.011783 -0.001510 0.035738
v -0.011481 -0.001660 0.035522
v -0.011401 -0.002032 0.035623
v -0.009636 -0.000008 0.037212
v -0.010793 -0.019912 0.034273
v -0.010634 -0.019885 0.035030
v -0.011751 -0.006537 0.034259
v -0.012295 -0.005493 0.034516
v -0.012071 -0.006520 0.034196
v -0.011308 -0.006204 0.033929
v -0.011614 -0.006098 0.033846
v -0.011136 -0.005938 0.033451
v -0.010766 -0.006086 0.034653
v -0.010456 -0.005815 0.033455
v -0.011653 -0.004813 0.034284
v -0.011225 -0.004439 0.033859
v -0.010828 -0.002630 0.034823
v -0.009988 -0.002957 0.034965
v -0.010680 -0.002058 0.034243
v -0.010512 -0.002917 0.033104
v -0.011418 -0.001207 0.033647
v -0.011782 -0.001614 0.034456
v -0.010935 -0.001675 0.034741
v -0.011021 -0.001674 0.033681
v -0.010900 -0.005852 0.032843
v -0.010804 -0.004563 0.032674
v -0.010695 -0.004594 0.031816
v -0.010598 -0.003274 0.032021
v -0.012038 -0.000667 0.032959
v -0.011851 -0.000742 0.031830
v -0.011845 -0.000659 0.032964
v -0.011399 -0.000687 0.032677
v -0.010932 -0.001293 0.032373
v -0.010884 -0.001625 0.031978
v -0.011700 -0.005393 0.030301
v -0.010979 -0.005618 0.030442
v -0.011014 -0.004329 0.031114
v -0.011646 -0.004206 0.030678
v -0.011167 -0.002554 0.031082
v -0.011624 -0.000951 0.031556
v -0.008453 -0.001903 0.041049
v -0.009228 -0.013183 0.039494
v -0.008027 -0.011936 0.040299
v -0.007988 -0.009450 0.040916
v -0.010270 -0.008132 0.040122
v -0.009364 -0.007466 0.040204
v -0.009827 -0.006586 0.040217
v -0.009609 -0.005829 0.040427
v -0.009002 -0.006141 0.040074
v -0.008651 -0.007072 0.039928
v -0.008684 -0.004321 0.040492
v -0.009531 -0.001585 0.040647
v -0.009880 -0.000248 0.040256
v -0.008601 -0.000712 0.040553
v -0.010295 0.000330 0.039456
v -0.009491 -0.000171 0.040216
v -0.009542 -0.000135 0.039458
v -0.009440 -0.017022 0.037740
v -0.010097 0.000443 0.038258
v -0.008625 -0.000637 0.037382
v -0.008686 -0.019496 0.036842
v -0.008756 -0.019902 0.036506
v -0.009273 -0.002580 0.035048
v -0.009069 -0.001418 0.036221
v -0.008422 -0.002209 0.035705
v -0.009686 -0.006311 0.034807
v -0.009564 -0.006417 0.034483
v -0.009045 -0.006426 0.034361
v -0.008682 -0.006348 0.033744
v -0.009207 -0.005592 0.034586
v -0.008942 -0.004972 0.034362
v -0.006774 -0.019387 0.031682
v -0.010120 -0.005933 0.031235
v -0.010461 -0.005734 0.031812
v -0.008688 -0.008057 0.031011
v -0.010488 -0.005728 0.031211
v -0.007579 -0.008256 0.041057
v -0.008175 -0.007090 0.040448
v -0.006628 -0.007067 0.040745
v -0.007171 -0.003902 0.041272
v -0.007007 -0.004892 0.042067
v -0.006910 -0.005669 0.041868
v -0.007661 -0.002593 0.040706
v -0.007508 -0.001683 0.041552
v -0.007268 -0.002230 0.042119
v -0.007256 -0.003076 0.040961
v -0.006849 -0.003202 0.042497
v -0.007882 -0.001263 0.041003
v -0.007912 -0.001027 0.040749
v -0.007277 -0.000468 0.041841
v -0.007221 -0.000785 0.041098
v -0.007117 -0.001290 0.042320
v -0.007110 -0.000412 0.041455
v -0.006367 -0.000660 0.042261
v -0.005518 -0.015226 0.039430
v -0.008283 -0.006938 0.039779
v -0.007402 -0.006467 0.039750
v -0.008077 -0.006841 0.039461
v -0.007750 -0.006489 0.038983
v -0.007297 -0.005310 0.038610
v -0.007422 -0.006813 0.039009
v -0.006820 -0.006309 0.038984
v -0.008358 -0.005386 0.039704
v -0.007606 -0.004904 0.038973
v -0.006744 -0.003183 0.039509
v -0.007790 -0.000880 0.039227
v -0.007094 -0.001468 0.040190
v -0.007354 -0.016680 0.038203
v -0.007546 -0.006791 0.038705
v -0.007190 -0.007020 0.038565
v -0.007227 -0.006906 0.038083
v -0.007106 -0.006393 0.037958
v -0.007249 -0.005035 0.038451
v -0.007649 -0.001099 0.038024
v -0.008580 -0.020123 0.036099
v -0.008002 -0.001942 0.036702
v -0.007438 -0.001835 0.036413
v -0.007211 -0.001552 0.037523
v -0.007230 -0.002323 0.035745
v -0.008172 -0.006481 0.034254
v -0.007717 -0.006649 0.033776
v -0.007675 -0.006592 0.034203
v -0.007066 -0.005187 0.034501
v -0.008638 -0.003917 0.034417
v -0.007889 -0.005018 0.034252
v -0.007297 -0.004007 0.034620
v -0.007895 -0.002702 0.035235
v -0.007860 -0.003314 0.034734
v -0.008539 -0.006512 0.032797
v -0.006726 -0.018957 0.030296
v -0.007355 -0.013263 0.030660
v -0.005338 -0.006050 0.042622
v -0.006635 -0.005464 0.042397
v -0.005737 -0.004040 0.043096
v -0.005919 -0.005861 0.042718
v -0.005067 -0.005055 0.043022
v -0.005603 -0.001197 0.042962
v -0.005665 -0.011112 0.041496
v -0.005567 -0.009645 0.041933
v -0.005096 -0.008221 0.041976
v -0.006135 -0.007881 0.041518
v -0.005031 -0.007606 0.041675
v -0.006340 -0.006279 0.042193
v -0.006644 -0.006357 0.041397
v -0.006565 -0.007390 0.041070
v -0.006734 -0.005571 0.041160
v -0.006203 -0.007192 0.041599
v -0.005381 -0.007206 0.041803
v -0.006685 -0.001055 0.040846
v -0.006039 -0.000537 0.041513
v -0.005495 -0.000767 0.042449
v -0.005039 -0.000760 0.041725
v -0.006517 -0.000342 0.041645
v -0.006483 -0.006609 0.040088
v -0.006263 -0.006316 0.039592
v -0.006005 -0.006160 0.038937
v -0.006416 -0.003841 0.039662
v -0.006314 -0.004866 0.039761
v -0.005814 -0.004174 0.038731
v -0.006612 -0.002229 0.040252
v -0.006209 -0.002754 0.039805
v -0.006090 -0.003439 0.039234
v -0.005253 -0.003200 0.039027
v -0.006492 -0.001772 0.039152
v -0.005314 -0.001965 0.040845
v -0.004552 -0.019942 0.037329
v -0.006806 -0.006830 0.038053
v -0.006725 -0.006747 0.037629
v -0.006478 -0.006290 0.037333
v -0.006401 -0.005756 0.037457
v -0.006320 -0.006666 0.037366
v -0.005646 -0.006105 0.038254
v -0.005502 -0.006653 0.036184
v -0.005288 -0.006169 0.037858
v -0.004719 -0.006231 0.037638
v -0.006384 -0.003767 0.037918
v -0.006459 -0.005203 0.037341
v -0.005518 -0.004869 0.038466
v -0.005225 -0.004471 0.038369
v -0.006411 -0.002337 0.038989
v -0.005257 -0.003621 0.038618
v -0.006425 -0.002292 0.037844
v -0.006088 -0.006022 0.036555
v -0.006239 -0.006481 0.036825
v -0.006073 -0.006622 0.035782
v -0.006054 -0.006694 0.036636
v -0.005394 -0.006869 0.035853
v -0.006073 -0.005370 0.035911
v -0.006072 -0.004071 0.036839
v -0.006606 -0.003378 0.035409
v -0.006097 -0.003308 0.036379
v -0.006345 -0.002365 0.036616
v -0.003813 -0.019622 0.033455
v -0.005059 -0.010143 0.034572
v -0.007807 -0.007567 0.032546
v -0.006423 -0.007362 0.034389
v -0.006806 -0.006834 0.034525
v -0.006314 -0.006400 0.035280
v -0.006358 -0.004703 0.035166
v -0.004975 -0.019190 0.032021
v -0.005931 -0.012971 0.032464
v -0.006003 -0.019056 0.031136
v -0.005436 -0.018582 0.031396
v -0.004458 -0.018826 0.032191
v -0.004744 -0.005577 0.042647
v -0.004460 -0.002964 0.043257
v -0.003912 -0.003870 0.042683
v -0.003577 -0.001995 0.043021
v -0.003673 -0.001362 0.043221
v -0.003494 -0.003406 0.042164
v -0.004419 -0.001742 0.043324
v -0.004053 -0.001090 0.043084
v -0.003629 -0.000809 0.042777
v -0.003450 -0.011698 0.041411
v -0.003925 -0.007590 0.041530
v -0.004862 -0.006454 0.042119
v -0.004547 -0.006421 0.041788
v -0.004500 -0.007446 0.041446
v -0.004267 -0.007193 0.041128
v -0.003921 -0.006866 0.040366
v -0.003574 -0.007008 0.040499
v -0.003874 -0.004990 0.041087
v -0.003600 -0.004612 0.039868
v -0.003233 -0.002803 0.041708
v -0.003428 -0.002702 0.041085
v -0.003451 -0.003656 0.040310
v -0.004457 -0.000621 0.042012
v -0.003599 -0.002079 0.041386
v -0.003242 -0.000974 0.042449
v -0.002183 -0.017790 0.038744
v -0.002958 -0.014913 0.039851
v -0.003824 -0.006014 0.038887
v -0.003647 -0.006522 0.038879
v -0.003575 -0.005110 0.039539
v -0.003644 -0.003908 0.039498
v -0.004008 -0.002651 0.040535
v -0.004509 -0.003289 0.039091
v -0.004094 -0.003762 0.038921
v -0.003988 -0.006337 0.038041
v -0.004586 -0.004308 0.038445
v -0.004686 -0.005271 0.038168
v -0.004036 -0.005166 0.038550
v -0.004435 -0.020171 0.036601
v 0.001725 -0.019657 0.033824
v -0.003610 -0.007691 0.036328
v -0.003373 -0.012446 0.034745
v -0.004870 -0.007749 0.035586
v -0.002906 -0.019402 0.033222
v -0.004498 -0.013531 0.033587
v -0.003145 -0.017590 0.033216
v -0.002531 -0.005244 0.042430
v -0.002049 -0.006278 0.042935
v -0.001524 -0.005696 0.043312
v -0.001269 -0.007390 0.042947
v -0.002275 -0.004625 0.043148
v -0.001039 -0.003813 0.043540
v -0.002992 -0.002591 0.042708
v -0.002740 -0.001899 0.043351
v -0.002331 -0.001853 0.043486
v -0.001484 -0.002764 0.043425
v -0.002930 -0.001965 0.042553
v -0.003001 -0.001120 0.042781
v -0.002551 -0.000789 0.043026
v -0.002104 -0.000796 0.043358
v -0.002643 -0.000803 0.042451
v -0.002068 -0.000609 0.042614
v -0.000912 -0.000725 0.043081
v -0.001345 -0.012918 0.041359
v -0.003167 -0.010382 0.041900
v -0.000568 -0.011156 0.041944
v -0.002014 -0.008870 0.041819
v -0.002246 -0.008193 0.041235
v -0.002318 -0.007769 0.040357
v -0.002061 -0.007271 0.042212
v -0.002025 -0.008171 0.041580
v -0.002038 -0.007816 0.040904
v -0.001596 -0.008765 0.041968
v -0.001599 -0.007807 0.042455
v -0.003086 -0.007184 0.040667
v -0.002413 -0.005600 0.041614
v -0.002201 -0.005696 0.041081
v -0.002473 -0.004238 0.040569
v -0.002835 -0.002554 0.042113
v -0.002593 -0.002534 0.041658
v -0.002512 -0.003376 0.041074
v -0.001277 -0.002499 0.041512
v -0.003252 -0.001397 0.042033
v -0.002389 -0.001872 0.042008
v -0.001902 -0.007733 0.040044
v -0.002116 -0.007087 0.038882
v -0.002302 -0.007470 0.039746
v -0.001876 -0.007187 0.039263
v -0.002017 -0.007366 0.039355
v -0.002204 -0.005280 0.039610
v -0.001881 -0.004750 0.039349
v -0.001963 -0.005445 0.039077
v -0.002135 -0.002962 0.041187
v -0.000512 -0.019700 0.037991
v -0.001577 -0.020156 0.037417
v -0.001737 -0.006994 0.038016
v -0.002234 -0.007251 0.037189
v -0.001735 -0.006804 0.038636
v -0.000895 -0.007339 0.037434
v -0.001404 -0.005700 0.038397
v -0.001437 -0.006855 0.038013
v -0.001132 -0.006276 0.038139
v -0.001125 -0.005233 0.038476
v -0.001742 -0.012732 0.035155
v -0.002134 -0.008307 0.036532
v -0.000236 -0.019490 0.033777
v -0.002700 -0.019112 0.033150
v -0.001374 -0.018519 0.033518
v -0.001014 -0.008033 0.042507
v -0.000513 -0.007290 0.042950
v -0.000189 -0.004921 0.043336
v 0.000194 -0.007056 0.042579
v 0.000350 -0.004323 0.043016
v -0.001109 -0.001017 0.043446
v 0.000181 -0.002643 0.043432
v 0.000156 -0.001017 0.043230
v 0.000322 -0.000625 0.042682
v 0.001729 -0.011988 0.041566
v -0.002547 -0.009652 0.042013
v -0.000765 -0.009197 0.042000
v -0.000085 -0.008910 0.041836
v -0.000038 -0.007797 0.042281
v 0.000298 -0.008259 0.041270
v 0.000225 -0.007102 0.041869
v -0.000613 -0.000684 0.042498
v 0.000266 -0.000938 0.042327
v -0.000276 -0.014304 0.040823
v -0.000001 -0.005517 0.039018
v -0.000009 -0.006185 0.039051
v 0.000166 -0.007159 0.039271
v 0.000052 -0.004623 0.039567
v -0.000027 -0.003827 0.040405
v 0.000247 -0.004651 0.040352
v -0.000802 -0.004538 0.039099
v -0.000219 -0.003143 0.040953
v -0.000553 -0.005429 0.038457
v -0.000196 -0.007164 0.037921
v -0.000393 -0.006234 0.038359
v 0.000053 -0.007083 0.038446
v 0.001729 -0.020257 0.037029
v -0.000921 -0.008483 0.036616
v 0.001733 -0.009860 0.036176
v 0.001729 -0.008343 0.036783
v 0.001728 -0.007631 0.037438
v 0.000264 -0.018747 0.033643
v 0.001729 -0.012912 0.035330
v -0.012477 -0.019122 0.029078
v -0.012942 -0.005281 0.029757
v -0.012489 -0.005225 0.029506
v -0.011935 -0.019029 0.028709
v -0.011160 -0.018894 0.027984
v -0.011074 -0.006036 0.028468
v -0.010066 -0.006476 0.030044
v -0.011399 -0.005644 0.028702
v -0.010688 -0.018827 0.027671
v -0.008403 -0.018818 0.028430
v -0.009869 -0.007686 0.029186
v -0.010037 -0.018691 0.027081
v -0.009200 -0.018379 0.026598
v -0.008609 -0.018408 0.027353
v -0.009297 -0.015418 0.026726
v -0.009010 -0.017808 0.026451
v -0.009822 -0.011939 0.027245
v -0.010567 -0.007345 0.027973
v -0.010299 -0.008705 0.027709
v -0.007713 -0.018614 0.028670
v -0.007125 -0.018839 0.029669
v -0.007231 -0.018352 0.029233
v -0.006437 -0.018515 0.030290
v 0.000773 -0.002439 0.042908
v 0.000780 -0.001233 0.043055
v 0.001741 -0.010027 0.042144
v 0.000332 -0.008002 0.040958
v 0.001729 -0.008963 0.041841
v 0.001146 -0.007543 0.040685
v 0.001685 -0.008389 0.041147
v 0.001749 -0.008639 0.041519
v 0.001718 -0.008152 0.040912
v 0.000499 -0.004747 0.042257
v 0.000270 -0.005510 0.041084
v 0.000707 -0.007608 0.040584
v 0.000221 -0.002351 0.041697
v 0.000328 -0.003648 0.040973
v 0.000556 -0.003452 0.041669
v 0.000864 -0.002150 0.042404
v 0.000766 -0.001189 0.042449
v 0.001730 -0.016710 0.039426
v 0.001754 -0.007753 0.039540
v 0.001731 -0.008138 0.040427
v 0.001759 -0.007967 0.040000
v 0.000293 -0.007586 0.040382
v 0.000926 -0.007282 0.039971
v 0.000391 -0.007276 0.039102
v 0.001711 -0.007602 0.039229
v 0.001730 -0.019976 0.037896
v 0.001729 -0.007349 0.038227
v 0.001758 -0.007502 0.038894
v 0.001727 -0.018829 0.033633
v -0.006956 -0.002321 0.040373
v -0.007319 -0.001693 0.040755
vn -0.9949 0.0439 -0.0910
vn -0.9798 -0.1476 0.1352
vn -0.9730 0.1868 0.1359
vn -0.8589 0.1741 0.4817
vn -0.8911 0.1192 0.4378
vn -0.8298 0.1759 0.5295
vn -0.7765 0.3921 0.4932
vn -0.7321 0.4049 0.5478
vn -0.5636 0.6495 0.5104
vn -0.8534 -0.5016 -0.1418
vn -0.9345 -0.1738 -0.3107
vn -0.9096 0.1266 -0.3958
vn -0.0017 -0.3255 0.9455
vn -0.4788 -0.1707 0.8612
vn -0.4645 -0.4851 0.7409
vn 0.0708 -0.4566 0.8869
vn -0.8083 -0.2181 0.5469
vn -0.7768 -0.1332 0.6155
vn -0.8213 -0.0551 0.5678
vn -0.8869 -0.0567 0.4586
vn -0.6609 -0.6112 0.4355
vn -0.8523 -0.4551 0.2579
vn -0.4908 -0.4713 0.7328
vn -0.8611 -0.4372 0.2595
vn -0.8432 0.1636 0.5121
vn -0.6625 0.2959 0.6881
vn -0.8882 -0.1796 0.4229
vn -0.7499 -0.1547 0.6432
vn -0.8548 0.3912 0.3409
vn -0.5483 0.3977 0.7356
vn -0.5903 -0.7674 0.2503
vn -0.5432 -0.7482 0.3810
vn -0.7719 -0.3469 0.5328
vn -0.7133 -0.3058 0.6307
vn -0.8869 -0.1991 0.4169
vn -0.8269 -0.2083 0.5224
vn -0.7712 -0.2438 0.5881
vn -0.8761 -0.2311 -0.4231
vn -0.8857 0.3287 0.3277
vn -0.8537 0.4911 0.1734
vn -0.7802 0.5990 -0.1802
vn -0.6419 -0.0979 -0.7605
vn -0.7748 -0.1359 -0.6174
vn -0.8163 0.5423 -0.1990
vn -0.0915 0.8570 -0.5071
vn -0.6756 0.7373 -0.0084
vn -0.6727 0.4743 -0.5679
vn -0.1442 0.7099 -0.6894
vn -0.0701 0.7126 -0.6980
vn 0.3502 0.7714 -0.5314
vn 0.1036 0.8002 -0.5907
vn -0.6423 -0.6906 0.3325
vn -0.2997 -0.9520 0.0617
vn -0.0167 0.8245 0.5656
vn -0.3924 0.7758 0.4941
vn -0.2318 0.9191 0.3187
vn -0.6493 0.4886 -0.5829
vn -0.1180 0.8586 0.4989
vn -0.6250 0.6253 -0.4673
vn -0.4670 -0.0613 -0.8821
vn -0.4883 0.3240 -0.8103
vn -0.6166 -0.1632 -0.7702
vn 0.3373 0.7806 -0.5261
vn -0.7917 0.1070 0.6015
vn -0.6644 -0.0706 0.7440
vn -0.7723 0.0311 0.6345
vn -0.8125 0.2571 0.5231
vn -0.9884 -0.1518 0.0017
vn -0.9821 0.0845 0.1686
vn -0.9590 -0.1105 -0.2609
vn -0.9146 -0.0228 -0.4037
vn -0.8953 -0.1733 0.4103
vn -0.7853 0.0959 0.6116
vn -0.8659 -0.0743 -0.4947
vn -0.8324 0.2380 0.5005
vn -0.8485 0.5080 0.1481
vn -0.9131 0.3341 -0.2335
vn -0.5351 0.7505 0.3879
vn -0.9010 0.2742 0.3362
vn -0.8736 0.4722 0.1179
vn 0.4088 -0.3246 0.8530
vn 0.5385 -0.3343 0.7735
vn 0.6613 -0.3491 0.6640
vn 0.7512 -0.3318 0.5706
vn 0.0396 -0.1375 0.9897
vn 0.4975 -0.2172 0.8398
vn -0.4737 0.7672 0.4325
vn 0.2541 0.8007 0.5425
vn 0.2273 0.8631 0.4511
vn -0.0943 0.4241 0.9007
vn 0.4761 0.3657 0.7997
vn -0.3698 -0.8826 0.2902
vn -0.5758 -0.5682 0.5879
vn -0.3281 -0.9127 0.2436
vn -0.6762 -0.3082 0.6692
vn -0.4128 0.7375 0.5345
vn -0.2576 -0.0254 0.9659
vn 0.1942 0.1556 0.9685
vn 0.5982 0.3357 0.7277
vn -0.3347 0.8763 0.3465
vn 0.0881 0.9961 0.0110
vn 0.4090 0.8164 0.4078
vn 0.6602 0.7499 -0.0429
vn 0.2224 0.8271 -0.5161
vn 0.6854 0.7281 0.0094
vn 0.7428 0.6665 0.0637
vn -0.0281 0.9778 -0.2075
vn 0.3592 0.7222 -0.5911
vn -0.0596 0.8409 -0.5379
vn -0.4712 0.8797 0.0638
vn 0.3965 0.6802 -0.6165
vn 0.2288 0.7561 -0.6131
vn -0.1122 -0.9930 -0.0360
vn -0.0394 -0.9922 -0.1182
vn 0.0150 -0.9884 -0.1508
vn -0.3994 0.7707 -0.4965
vn -0.0972 0.9814 0.1653
vn -0.3338 0.7692 -0.5449
vn -0.1327 0.0557 -0.9896
vn -0.1456 0.6908 -0.7083
vn -0.3756 -0.0711 -0.9240
vn -0.0288 0.0486 -0.9984
vn -0.0413 0.8716 -0.4885
vn -0.1095 0.9182 -0.3807
vn -0.1517 0.3170 -0.9362
vn 0.3190 0.3181 -0.8928
vn -0.1438 0.9391 -0.3122
vn -0.4992 -0.3235 0.8039
vn -0.4016 -0.2441 0.8827
vn -0.4380 -0.0755 0.8958
vn -0.5963 -0.0657 0.8001
vn -0.8793 0.0065 0.4763
vn -0.2742 -0.0891 0.9575
vn -0.2960 -0.0194 0.9550
vn -0.6371 -0.2636 0.7242
vn -0.4310 -0.2915 0.8540
vn 0.0351 -0.0898 0.9953
vn -0.1887 -0.2634 0.9461
vn -0.5096 0.0210 0.8602
vn -0.1799 -0.1975 0.9636
vn -0.5413 0.2453 0.8043
vn -0.5839 0.5452 0.6015
vn -0.4282 -0.3773 0.8212
vn -0.5145 -0.4736 0.7148
vn -0.7108 -0.2502 0.6574
vn -0.6590 0.7521 0.0079
vn -0.4165 0.8637 0.2839
vn -0.1471 0.9323 -0.3305
vn -0.8010 0.4609 -0.3820
vn -0.2340 0.9481 0.2153
vn -0.1352 0.9824 0.1292
vn -0.6028 0.5357 -0.5913
vn -0.6761 -0.0324 -0.7361
vn -0.6394 -0.1947 -0.7438
vn -0.6678 -0.3707 -0.6455
vn -0.7135 -0.1441 -0.6857
vn -0.3271 0.2731 -0.9047
vn -0.6151 0.0169 -0.7883
vn -0.6188 0.3270 -0.7143
vn 0.2623 0.8083 -0.5271
vn -0.5332 0.6500 -0.5415
vn -0.3027 -0.9293 0.2116
vn -0.3139 -0.8581 0.4063
vn 0.4834 0.6623 0.5725
vn 0.7100 -0.2790 0.6466
vn -0.1116 0.9374 0.3299
vn -0.5743 0.8186 0.0002
vn 0.5276 0.2642 0.8074
vn 0.5015 0.6562 0.5637
vn 0.1069 0.9589 0.2627
vn 0.0083 0.9962 0.0863
vn 0.0573 0.9909 0.1218
vn 0.8779 -0.1539 0.4533
vn 0.9988 0.0182 0.0444
vn 0.9511 0.3008 0.0696
vn 0.7470 0.6313 0.2082
vn 0.7774 0.5552 0.2955
vn 0.5524 0.8184 0.1581
vn 0.6151 0.6941 0.3741
vn 0.7290 0.0497 0.6827
vn 0.6574 0.7185 0.2274
vn 0.7996 0.5856 0.1328
vn -0.0860 -0.9956 -0.0360
vn 0.9900 0.0605 -0.1272
vn 0.9696 -0.1272 0.2091
vn 0.6309 0.7142 0.3032
vn 0.9710 0.0285 -0.2373
vn 0.8686 0.3392 -0.3611
vn -0.1210 0.9404 -0.3178
vn 0.0071 0.9842 -0.1768
vn 0.2258 0.9741 0.0140
vn 0.6496 0.6152 0.4466
vn 0.5123 0.8575 0.0467
vn 0.5103 0.6484 -0.5649
vn 0.8632 0.4976 -0.0859
vn 0.2119 0.8218 -0.5289
vn 0.7761 0.1679 -0.6078
vn 0.5571 0.7265 -0.4024
vn 0.3499 0.1211 -0.9289
vn 0.7093 0.7005 0.0792
vn 0.7275 0.6593 -0.1901
vn 0.2623 0.7764 -0.5731
vn 0.7005 0.1741 -0.6921
vn -0.3143 0.1736 0.9333
vn -0.0445 0.0239 0.9987
vn 0.1555 0.7381 0.6565
vn -0.2587 -0.3740 0.8906
vn -0.2830 -0.3302 0.9005
vn -0.0953 0.1717 0.9805
vn 0.4260 -0.1271 0.8957
vn -0.3137 0.0068 0.9495
vn -0.2180 0.4894 0.8444
vn 0.1255 0.9107 0.3936
vn 0.2588 0.8192 0.5119
vn 0.5175 0.8539 0.0547
vn -0.2754 -0.4011 0.8737
vn 0.3678 0.9285 -0.0512
vn 0.5598 0.7462 -0.3603
vn -0.2234 -0.7503 0.6222
vn -0.0055 0.5630 -0.8265
vn 0.4324 0.6545 -0.6202
vn 0.1862 0.7098 -0.6793
vn 0.7529 0.6471 0.1201
vn -0.0587 -0.9843 0.1662
vn 0.1393 0.9891 0.0474
vn 0.2761 0.9598 0.0510
vn -0.2672 0.8381 -0.4756
vn -0.4996 0.0008 -0.8663
vn -0.4111 0.6519 -0.6371
vn -0.3253 -0.0015 -0.9456
vn -0.0587 0.2527 -0.9658
vn 0.0628 -0.9586 -0.2776
vn 0.5306 0.8271 -0.1853
vn 0.5613 0.7816 -0.2721
vn 0.7428 0.5590 -0.3685
vn 0.7363 0.4228 -0.5283
vn -0.3522 -0.0973 0.9308
vn -0.2236 -0.1097 0.9685
vn -0.3168 0.6692 0.6722
vn -0.3388 0.1780 0.9239
vn -0.6247 0.2087 0.7525
vn -0.9417 -0.2821 0.1835
vn -0.9241 -0.3310 0.1912
vn -0.9729 -0.1627 -0.1641
vn -0.9151 -0.1438 0.3768
vn -0.9992 0.0410 -0.0040
vn -0.9393 -0.1089 -0.3253
vn -0.5859 0.4985 -0.6389
vn -0.6533 0.6685 0.3555
vn -0.8741 -0.0772 0.4796
vn -0.6453 0.1823 0.7419
vn -0.3676 0.8533 -0.3698
vn -0.6295 -0.0516 0.7753
vn -0.0657 0.7871 0.6133
vn -0.1838 -0.4069 0.8948
vn 0.6883 -0.1986 0.6977
vn -0.0061 0.5662 0.8243
vn 0.2559 0.8406 0.4774
vn -0.4050 0.9137 -0.0347
vn -0.2324 0.9641 0.1282
vn 0.0101 0.9368 -0.3496
vn -0.3788 0.9026 -0.2046
vn -0.7477 0.4848 0.4538
vn 0.4630 -0.2834 0.8398
vn 0.3545 -0.2972 0.8866
vn 0.8056 0.0317 0.5917
vn 0.9221 0.0480 0.3839
vn 0.7885 -0.2848 0.5452
vn -0.8404 -0.0801 -0.5359
vn -0.7058 0.2042 -0.6783
vn 0.4159 0.8076 0.4182
vn 0.7454 0.5995 0.2914
vn 0.5194 0.8535 0.0417
vn 0.5404 0.8023 -0.2534
vn -0.2535 -0.4925 0.8325
vn -0.1220 -0.7504 0.6497
vn 0.4173 0.6733 0.6103
vn 0.7446 0.6172 0.2541
vn -0.2345 0.9675 -0.0942
vn 0.1925 0.8426 -0.5030
vn 0.4589 0.8398 -0.2902
vn 0.0472 0.9220 -0.3844
vn 0.1146 0.7107 -0.6942
vn 0.4959 0.0850 -0.8642
vn 0.2681 0.7159 -0.6447
vn 0.4423 0.8304 -0.3388
vn 0.6371 0.4213 -0.6455
vn 0.6485 0.4527 -0.6119
vn 0.1234 0.0830 -0.9889
vn 0.4043 0.3014 -0.8636
vn 0.2283 0.4743 -0.8502
vn 0.4579 -0.7564 -0.4671
vn 0.1028 -0.9644 -0.2435
vn 0.5271 -0.7040 -0.4759
vn -0.2902 -0.0701 0.9544
vn -0.6608 -0.2403 0.7111
vn -0.2689 -0.4441 0.8547
vn 0.1854 -0.2541 0.9492
vn 0.1098 -0.5382 0.8356
vn -0.2293 0.4280 0.8742
vn -0.0394 0.1250 0.9914
vn -0.2126 -0.3409 0.9157
vn -0.3709 0.1103 0.9221
vn -0.0989 0.2461 0.9642
vn 0.1515 0.0475 0.9873
vn -0.5471 -0.5365 0.6425
vn -0.9421 -0.1320 -0.3083
vn -0.5662 -0.3249 0.7575
vn -0.0738 -0.4201 0.9045
vn 0.1349 0.5201 -0.8434
vn 0.1830 0.8296 -0.5276
vn -0.0419 0.9201 0.3895
vn 0.3064 0.8694 -0.3875
vn 0.1711 0.9802 -0.0994
vn -0.1845 -0.4284 0.8846
vn -0.6755 0.6947 0.2471
vn -0.9024 -0.0590 -0.4268
vn -0.6724 0.0935 -0.7342
vn -0.0905 0.7081 -0.7003
vn -0.0437 0.7797 -0.6246
vn -0.6087 0.3179 -0.7269
vn -0.1158 0.4964 -0.8604
vn 0.9709 -0.0036 0.2394
vn 0.8631 0.4804 0.1560
vn 0.8153 -0.3041 0.4928
vn -0.0384 0.9910 0.1285
vn 0.4815 0.6013 0.6377
vn 0.7273 0.0626 0.6834
vn 0.2161 0.9759 0.0316
vn -0.6085 0.6285 -0.4846
vn -0.6810 0.6967 -0.2255
vn 0.1897 0.9263 -0.3257
vn -0.2912 0.7515 -0.5920
vn 0.1722 0.7820 -0.5990
vn 0.9275 -0.1778 0.3287
vn 0.7952 -0.0468 0.6045
vn 0.9096 -0.0300 0.4145
vn -0.6147 0.1258 -0.7787
vn -0.2204 0.2084 -0.9529
vn -0.1225 0.5047 -0.8546
vn 0.9218 0.3869 -0.0227
vn 0.7912 0.5583 -0.2497
vn -0.0320 -0.9978 0.0587
vn 0.9056 0.3472 0.2437
vn 0.7620 -0.0004 0.6476
vn 0.6469 0.6923 -0.3199
vn 0.9872 0.0071 0.1591
vn 0.4819 0.7118 -0.5111
vn 0.8596 -0.0267 0.5102
vn 0.9942 -0.0212 -0.1050
vn 0.8844 -0.0177 -0.4664
vn 0.9628 0.2031 -0.1784
vn 0.6663 0.3830 -0.6398
vn 0.3329 0.7051 -0.6261
vn 0.7065 0.2438 -0.6644
vn 0.5944 0.2986 -0.7466
vn 0.5231 0.3976 -0.7538
vn 0.8116 0.1165 -0.5725
vn 0.7644 -0.1472 -0.6278
vn 0.5407 -0.0315 -0.8406
vn 0.3706 -0.7127 -0.5956
vn 0.4298 -0.7389 -0.5189
vn 0.6618 -0.0512 -0.7479
vn 0.7887 0.2193 -0.5743
vn 0.2182 -0.1417 0.9656
vn 0.5915 -0.4177 0.6896
vn 0.7237 -0.3332 0.6044
vn 0.8126 -0.0907 0.5757
vn 0.4943 0.2358 0.8367
vn 0.0087 0.5960 0.8029
vn 0.3688 0.8291 0.4201
vn 0.8649 0.4967 -0.0727
vn -0.0653 -0.2177 0.9738
vn -0.0098 0.0282 0.9996
vn 0.2041 0.6353 0.7448
vn -0.1070 0.2651 0.9583
vn 0.5677 -0.4286 0.7028
vn 0.4111 0.2742 0.8694
vn 0.7579 -0.1491 0.6351
vn 0.7124 0.3516 0.6073
vn 0.9369 -0.2645 0.2285
vn 0.7815 0.5007 0.3723
vn 0.9114 -0.2732 0.3077
vn 0.9935 -0.0828 -0.0781
vn 0.9972 -0.0741 0.0131
vn 0.1744 0.9275 -0.3307
vn 0.2417 0.6044 -0.7592
vn 0.4090 0.5426 -0.7337
vn -0.1230 -0.3839 0.9151
vn -0.1879 -0.4200 0.8879
vn 0.2058 0.8953 0.3951
vn 0.9847 0.1145 -0.1316
vn 0.9912 -0.0382 -0.1265
vn 0.3874 0.7306 -0.5622
vn 0.3252 0.7267 -0.6051
vn 0.8186 0.3602 -0.4474
vn 0.5827 0.4286 -0.6905
vn 0.8971 0.1987 -0.3946
vn 0.1851 0.3720 -0.9096
vn 0.7403 0.1952 -0.6433
vn 0.5359 0.7477 -0.3922
vn 0.2875 0.3233 -0.9016
vn 0.3601 0.4394 -0.8230
vn 0.3177 -0.1356 -0.9384
vn 0.2197 -0.7123 -0.6666
vn 0.5950 0.2613 -0.7600
vn 0.3918 0.2268 -0.8916
vn -0.9645 -0.1844 0.1889
vn -0.6860 -0.2761 0.6731
vn -0.6471 -0.1657 0.7442
vn -0.1734 0.0339 0.9843
vn -0.6495 0.0395 0.7593
vn -0.1893 -0.1773 0.9658
vn -0.9136 0.4045 -0.0429
vn -0.1961 0.6456 0.7380
vn -0.0769 0.9209 -0.3821
vn -0.5428 0.7007 0.4631
vn -0.1099 -0.3746 0.9206
vn 0.3911 0.8089 0.4390
vn -0.0684 0.7391 0.6701
vn -0.8879 0.0513 0.4572
vn -0.8921 0.4309 0.1360
vn -0.3678 -0.3144 0.8751
vn -0.9089 -0.2656 0.3214
vn -0.9107 -0.3723 -0.1788
vn -0.5206 -0.4418 0.7306
vn -0.9593 -0.2343 -0.1574
vn -0.9427 0.0750 -0.3250
vn 0.9775 0.0325 -0.2082
vn -0.9850 -0.0834 0.1509
vn -0.7026 0.4139 -0.5788
vn -0.9117 0.2007 -0.3585
vn -0.6506 0.4429 -0.6169
vn -0.2091 0.6265 -0.7508
vn 0.8210 0.3533 -0.4485
vn -0.3798 0.6905 -0.6156
vn -0.4240 0.4031 -0.8110
vn -0.1390 -0.4378 0.8883
vn 0.2520 0.9069 0.3377
vn -0.5921 0.7904 0.1571
vn 0.6517 0.7512 0.1051
vn 0.0922 0.9394 0.3303
vn 0.5974 0.7013 0.3890
vn -0.1869 0.9246 0.3320
vn -0.9282 -0.2035 -0.3116
vn -0.8658 0.0840 -0.4934
vn -0.6068 0.4714 -0.6400
vn -0.1640 0.5100 -0.8444
vn -0.0599 -0.5825 0.8106
vn -0.0512 -0.9070 0.4179
vn -0.0360 0.9432 -0.3303
vn 0.2186 0.8075 -0.5479
vn -0.8264 0.4702 -0.3099
vn -0.9050 0.3730 0.2047
vn 0.1225 0.6562 -0.7446
vn -0.5292 0.2503 -0.8107
vn 0.2239 0.3876 -0.8942
vn 0.4056 0.2993 -0.8637
vn 0.2029 0.1369 -0.9696
vn 0.0746 0.1386 -0.9875
vn -0.0077 -0.5151 0.8571
vn 0.2909 -0.3920 0.8727
vn -0.2303 -0.4153 0.8800
vn 0.3624 -0.1457 0.9206
vn 0.8281 -0.2899 0.4798
vn 0.0754 0.1267 0.9891
vn -0.0073 -0.0545 0.9985
vn 0.0871 0.4106 0.9077
vn 0.3939 -0.0307 0.9186
vn 0.1365 0.9133 0.3837
vn 0.2356 0.5294 0.8150
vn 0.0283 0.8949 -0.4453
vn 0.3538 0.9353 0.0064
vn -0.0219 -0.2248 0.9742
vn -0.0015 -0.4190 0.9080
vn 0.0657 -0.3305 0.9415
vn 0.0286 -0.0557 0.9980
vn 0.7221 -0.3714 0.5836
vn 0.9901 -0.1103 0.0870
vn 0.2968 0.1382 0.9449
vn 0.5726 0.4431 0.6898
vn 0.0940 0.6891 -0.7186
vn 0.3890 0.4276 -0.8160
vn 0.7259 0.4521 -0.5182
vn -0.0188 0.5661 -0.8241
vn 0.1183 0.7080 -0.6963
vn 0.7758 0.4151 -0.4753
vn 0.9761 0.0867 -0.1995
vn 0.9581 0.0864 -0.2730
vn 0.8830 0.1302 -0.4509
vn -0.2564 0.3793 -0.8890
vn -0.4766 0.5752 -0.6648
vn 0.4072 0.3923 -0.8248
vn 0.6007 0.3245 -0.7306
vn 0.3887 0.7640 -0.5150
vn 0.8993 0.2234 -0.3761
vn 0.8606 0.5072 0.0461
vn 0.0812 0.4491 -0.8898
vn 0.1768 0.2921 -0.9399
vn 0.0335 0.0441 -0.9985
vn 0.0439 0.2802 -0.9589
vn 0.0161 0.9607 0.2770
vn 0.0483 0.8866 0.4601
vn 0.0327 -0.9847 -0.1710
vn 0.0347 -0.9836 -0.1767
vn 0.0265 -0.9864 -0.1623
vn 0.6505 0.7240 -0.2294
vn 0.3015 0.9495 -0.0872
vn 0.0387 -0.9843 -0.1719
vn 0.8491 0.3626 -0.3840
vn 0.7538 0.5835 -0.3020
vn 0.8402 0.3285 -0.4314
vn 0.2448 -0.9185 -0.3107
vn 0.1055 -0.9661 -0.2355
vn 0.8377 0.1875 -0.5130
vn 0.8945 0.1930 -0.4033
vn 0.8938 0.2045 -0.3992
vn 0.6269 -0.5869 -0.5124
vn 0.6408 -0.5709 -0.5133
vn 0.8295 -0.0767 -0.5532
vn 0.8009 -0.1229 -0.5861
vn 0.8057 -0.1548 0.5717
vn 0.8924 -0.1129 0.4369
vn 0.7821 0.3536 0.5131
vn 0.9924 -0.1161 0.0419
vn 0.8177 0.3998 -0.4143
vn 0.0578 -0.4467 0.8928
vn 0.0164 0.0076 0.9998
vn 0.0300 0.4818 0.8757
vn 0.2568 0.8458 0.4677
vn 0.4322 0.7129 0.5522
vn -0.7764 0.5102 0.3700
vn 0.3787 0.8061 0.4547
vn 0.6541 0.7070 0.2688
vn 0.9921 -0.0495 -0.1153
vn -0.3980 0.7089 0.5823
vn 0.9492 0.0199 -0.3141
vn 0.8853 0.1882 -0.4253
vn 0.9767 0.0231 -0.2132
vn 0.1929 0.5556 -0.8087
vn 0.3472 0.9074 0.2368
vn 0.3165 0.8345 0.4511
vn 0.6729 0.6979 0.2454
vn -0.0484 0.9718 0.2308
vn 0.0506 0.9860 0.1588
vn -0.2723 0.8099 0.5194
vn 0.5793 0.7712 0.2640
vn 0.0795 0.8075 -0.5844
vn 0.0844 0.9789 -0.1861
vn 0.0169 0.9867 0.1614
vn 0.0233 0.5399 -0.8414
vn 0.0001 0.0232 -0.9997
vn 0.2350 0.3802 0.8945
vn 0.6768 0.1187 0.7265
vn 0.1638 0.0480 0.9853
vn -0.8640 -0.2044 0.4601
vn -0.6053 0.1424 0.7832
vn -0.3238 0.0343 0.9455
vn -0.7520 -0.2638 0.6041
vn -0.1377 0.9433 -0.3021
vn 0.8071 -0.4448 0.3883
vn 0.1180 -0.2407 0.9634
vn 0.8023 0.2898 -0.5219
vn -0.6865 0.7183 -0.1132
vn 0.3811 0.9168 0.1193
vn 0.9814 -0.0679 0.1795
vn 0.0023 -0.7251 -0.6887
vn -0.8795 0.0671 -0.4711
vn 0.1416 0.8790 0.4554
vn 0.5109 -0.7145 -0.4780
vn -0.0132 -0.7449 0.6670
vn -0.0011 -0.9981 0.0616
vn -0.0018 0.3031 -0.9529
s 1
usemtl Arch.003
f 3//1 1//2 2//3
f 1//2 32//4 2//3
f 7//5 23//6 8//7
f 22//8 44//9 8//7
f 26//10 1//2 9//11
f 10//12 9//11 3//1
f 15//13 14//14 12//15
f 15//13 12//15 96//16
f 43//17 21//18 20//19
f 5//20 43//17 20//19
f 26//10 27//21 31//22
f 27//21 29//23 12//15
f 28//24 29//23 27//21
f 24//25 25//26 29//23
f 31//22 27//21 30//27
f 13//28 30//27 27//21
f 30//27 13//28 32//4
f 2//3 32//4 33//29
f 32//4 18//30 33//29
f 40//31 41//32 55//33
f 55//33 41//32 95//34
f 4//35 59//36 43//17
f 43//17 59//36 42//37
f 45//38 28//24 26//10
f 44//9 47//39 46//40
f 47//39 24//25 28//24
f 48//41 46//40 45//38
f 50//42 45//38 49//43
f 50//42 48//41 45//38
f 10//12 2//3 34//44
f 53//45 34//44 35//46
f 51//47 53//45 54//48
f 51//47 54//48 68//49
f 110//50 53//45 39//51
f 40//31 55//33 56//52
f 57//53 40//31 56//52
f 61//54 60//55 46//40
f 62//56 48//41 63//57
f 63//57 48//41 50//42
f 65//58 62//56 64//59
f 117//60 50//42 49//43
f 49//43 10//12 69//61
f 69//61 10//12 51//47
f 66//62 49//43 69//61
f 68//49 54//48 52//63
f 11//64 21//18 131//65
f 131//65 132//66 72//67
f 74//68 76//69 77//70
f 77//70 76//69 78//71
f 76//69 137//72 71//73
f 75//74 77//70 78//71
f 71//73 144//75 76//69
f 76//69 144//75 150//76
f 79//77 76//69 150//76
f 131//65 72//67 11//64
f 82//78 22//8 73//79
f 82//78 73//79 149//80
f 84//81 98//82 85//83
f 183//84 85//83 98//82
f 15//13 84//81 86//85
f 86//85 84//81 87//86
f 84//81 85//83 87//86
f 36//87 19//88 92//89
f 19//88 18//30 88//90
f 19//88 88//90 90//91
f 94//92 93//93 108//94
f 42//37 95//34 156//95
f 25//26 82//78 83//96
f 98//82 97//97 99//98
f 101//99 99//98 100//100
f 98//82 99//98 101//99
f 18//30 19//88 36//87
f 38//101 36//87 103//102
f 36//87 92//89 103//102
f 38//101 103//102 105//103
f 104//104 38//101 105//103
f 106//105 103//102 102//106
f 106//105 105//103 103//102
f 95//34 41//32 93//93
f 112//107 52//63 109//108
f 112//107 113//109 114//110
f 110//50 109//108 53//45
f 111//111 110//50 115//112
f 115//112 104//104 105//103
f 113//109 115//112 105//103
f 57//53 107//113 41//32
f 58//114 116//115 107//113
f 50//42 117//60 63//57
f 117//60 119//116 64//59
f 120//117 61//54 119//116
f 117//60 121//118 119//116
f 122//119 121//118 117//60
f 122//119 123//120 121//118
f 67//121 117//60 66//62
f 124//122 117//60 67//121
f 70//123 52//63 112//107
f 70//123 112//107 125//124
f 126//125 125//124 128//126
f 127//127 125//124 114//110
f 128//126 125//124 127//127
f 128//126 124//122 126//125
f 131//65 147//128 130//129
f 133//130 131//65 130//129
f 132//66 135//131 134//132
f 132//66 133//130 135//131
f 136//133 135//131 213//134
f 137//72 139//135 138//136
f 135//131 136//133 139//135
f 136//133 215//137 140//138
f 71//73 138//136 141//139
f 141//139 138//136 142//140
f 142//140 138//136 140//138
f 144//75 71//73 145//141
f 144//75 145//141 151//142
f 148//143 147//128 154//144
f 147//128 131//65 81//145
f 74//68 134//132 137//72
f 73//79 74//68 149//80
f 137//72 134//132 139//135
f 151//142 150//76 144//75
f 152//146 151//142 146//147
f 152//146 146//147 153//148
f 158//149 149//80 75//74
f 157//150 82//78 149//80
f 160//151 149//80 158//149
f 161//152 158//149 159//153
f 160//151 158//149 161//152
f 78//71 163//154 75//74
f 159//153 158//149 75//74
f 159//153 75//74 163//154
f 164//155 159//153 163//154
f 161//152 159//153 164//155
f 164//155 165//156 161//152
f 165//156 164//155 163//154
f 186//157 167//158 166//159
f 153//148 172//160 168//161
f 174//162 93//93 94//92
f 93//93 174//162 155//163
f 95//34 93//93 154//144
f 100//100 83//96 157//150
f 177//164 176//165 101//99
f 178//166 100//100 157//150
f 177//164 101//99 175//167
f 176//165 177//164 179//168
f 179//168 177//164 175//167
f 178//166 179//168 175//167
f 180//169 179//168 178//166
f 181//170 157//150 160//151
f 181//170 160//151 162//171
f 157//150 181//170 182//172
f 183//84 98//82 176//165
f 183//84 176//165 179//168
f 183//84 179//168 180//169
f 185//173 85//83 183//84
f 188//174 187//175 185//173
f 102//106 19//88 91//176
f 91//176 169//177 190//178
f 170//179 171//180 191//181
f 190//178 170//179 191//181
f 192//182 190//178 191//181
f 187//175 191//181 185//173
f 192//182 191//181 187//175
f 106//105 102//106 190//178
f 107//113 94//92 108//94
f 116//115 173//183 107//113
f 180//169 178//166 182//172
f 195//184 194//185 193//186
f 195//184 196//187 194//185
f 202//188 188//174 196//187
f 113//109 197//189 114//110
f 114//110 197//189 198//190
f 199//191 189//192 200//193
f 200//193 189//192 192//182
f 208//194 201//195 202//188
f 201//195 200//193 192//182
f 192//182 187//175 188//174
f 202//188 201//195 188//174
f 120//117 123//120 203//196
f 205//197 204//198 203//196
f 206//199 205//197 203//196
f 205//197 242//200 244//201
f 206//199 122//119 124//122
f 127//127 198//190 129//202
f 128//126 208//194 207//203
f 207//203 208//194 202//188
f 220//204 209//205 222//206
f 210//207 211//208 130//129
f 215//137 136//133 213//134
f 215//137 213//134 214//209
f 217//210 215//137 214//209
f 143//211 142//140 209//205
f 151//142 145//141 221//212
f 223//213 224//214 225//215
f 224//214 221//212 222//206
f 210//207 148//143 226//216
f 147//128 148//143 210//207
f 146//147 223//213 227//217
f 172//160 227//217 228//218
f 154//144 93//93 155//163
f 230//219 154//144 155//163
f 154//144 226//216 148//143
f 231//220 166//159 172//160
f 231//220 186//157 166//159
f 232//221 295//222 231//220
f 295//222 232//221 233//223
f 283//224 174//162 173//183
f 235//225 181//170 162//171
f 182//172 181//170 237//226
f 181//170 235//225 237//226
f 237//226 235//225 236//227
f 238//228 161//152 165//156
f 238//228 234//229 161//152
f 239//230 238//228 167//158
f 186//157 292//231 239//230
f 231//220 292//231 186//157
f 361//232 173//183 116//115
f 241//233 242//200 297//234
f 242//200 193//186 182//172
f 242//200 195//184 193//186
f 525//235 297//234 363//236
f 241//233 204//198 244//201
f 212//237 211//208 307//238
f 246//239 245//240 313//241
f 312//242 250//243 248//244
f 250//243 249//245 248//244
f 248//244 252//246 254//247
f 259//248 252//246 258//249
f 258//249 253//250 260//251
f 259//248 258//249 261//252
f 253//250 255//253 260//251
f 260//251 262//254 258//249
f 211//208 210//207 276//255
f 214//209 245//240 246//239
f 271//256 217//210 218//257
f 266//258 218//257 264//259
f 271//256 218//257 266//258
f 265//260 218//257 246//239
f 269//261 266//258 265//260
f 269//261 265//260 270//262
f 246//239 313//241 247//263
f 246//239 247//263 265//260
f 251//264 219//265 271//256
f 268//266 266//258 267//267
f 272//268 271//256 268//266
f 325//269 254//247 571//270
f 222//206 257//271 225//215
f 225//215 257//271 275//272
f 274//273 275//272 282//274
f 276//255 229//275 334//276
f 210//207 226//216 276//255
f 279//277 277//278 278//279
f 268//266 267//267 279//277
f 228//218 282//274 284//280
f 286//281 284//280 282//274
f 284//280 232//221 228//218
f 295//222 284//280 285//282
f 284//280 286//281 285//282
f 238//228 288//283 236//227
f 237//226 236//227 288//283
f 291//284 290//285 288//283
f 289//286 290//285 365//287
f 364//288 289//286 365//287
f 293//289 288//283 239//230
f 293//289 239//230 292//231
f 291//284 293//289 294//290
f 296//291 292//231 231//220
f 294//290 292//231 296//291
f 297//234 237//226 289//286
f 289//286 364//288 363//236
f 298//292 240//293 539//294
f 302//295 301//296 303//297
f 304//298 303//297 300//299
f 305//300 260//251 302//295
f 305//300 302//295 379//301
f 307//238 211//208 306//302
f 313//241 245//240 309//303
f 245//240 307//238 308//304
f 245//240 308//304 309//303
f 309//303 308//304 310//305
f 311//306 301//296 250//243
f 247//263 313//241 314//307
f 312//242 315//308 311//306
f 313//241 309//303 315//308
f 300//299 315//308 316//309
f 316//309 309//303 310//305
f 255//253 249//245 301//296
f 261//252 317//310 259//248
f 320//311 262//254 319//312
f 318//313 262//254 320//311
f 321//314 258//249 262//254
f 321//314 318//313 261//252
f 263//315 306//302 211//208
f 265//260 247//263 322//316
f 326//317 247//263 314//307
f 326//317 325//269 327//318
f 325//269 248//244 254//247
f 329//319 331//320 330//321
f 259//248 317//310 328//322
f 348//323 332//324 273//325
f 211//208 276//255 263//315
f 335//326 278//279 270//262
f 336//327 280//328 335//326
f 335//326 270//262 339//329
f 339//329 336//327 335//326
f 340//330 270//262 324//331
f 339//329 340//330 341//332
f 341//332 342//333 343//334
f 344//335 281//336 345//337
f 346//338 324//331 326//317
f 347//339 346//338 327//318
f 346//338 342//333 340//330
f 348//323 273//325 344//335
f 349//340 327//318 330//321
f 350//341 286//281 332//324
f 286//281 350//341 360//342
f 411//343 230//219 283//224
f 352//344 337//345 339//329
f 353//346 351//347 352//344
f 355//348 353//346 341//332
f 351//347 345//337 338//349
f 356//350 344//335 345//337
f 366//351 356//350 351//347
f 360//342 359//352 358//353
f 360//342 350//341 359//352
f 360//342 287//354 285//282
f 411//343 283//224 361//232
f 363//236 364//288 369//355
f 364//288 362//356 369//355
f 364//288 415//357 362//356
f 365//287 291//284 366//351
f 353//346 365//287 366//351
f 367//358 291//284 294//290
f 367//358 366//351 291//284
f 541//359 298//292 539//294
f 372//360 368//361 370//362
f 371//363 372//360 370//362
f 369//355 541//359 299//364
f 302//295 304//298 374//365
f 300//299 373//366 304//298
f 302//295 374//365 379//301
f 375//367 374//365 304//298
f 376//368 374//365 375//367
f 374//365 376//368 377//369
f 305//300 379//301 380//370
f 305//300 380//370 381//371
f 397//372 381//371 377//369
f 307//238 306//302 437//373
f 308//304 307//238 491//374
f 383//375 308//304 439//376
f 316//309 384//377 300//299
f 316//309 310//305 384//377
f 386//378 310//305 308//304
f 384//377 310//305 385//379
f 385//379 310//305 386//378
f 385//379 386//378 387//380
f 390//381 385//379 387//380
f 390//381 387//380 388//382
f 378//383 373//366 384//377
f 390//381 384//377 385//379
f 391//384 378//383 390//381
f 392//385 378//383 391//384
f 320//311 319//312 395//386
f 395//386 319//312 381//371
f 333//387 395//386 396//388
f 395//386 381//371 397//372
f 382//389 306//302 399//390
f 263//315 399//390 306//302
f 389//391 388//382 383//375
f 400//392 402//393 390//381
f 333//387 404//394 329//319
f 331//320 329//319 404//394
f 404//394 405//395 331//320
f 393//396 406//397 404//394
f 403//398 406//397 393//396
f 347//339 409//399 346//338
f 403//398 391//384 410//400
f 406//397 403//398 410//400
f 410//400 400//392 407//401
f 349//340 331//320 405//395
f 408//402 347//339 349//340
f 411//343 334//276 230//219
f 413//403 415//357 355//348
f 479//404 416//405 368//361
f 372//360 479//404 368//361
f 371//363 417//406 372//360
f 418//407 372//360 417//406
f 419//408 420//409 423//410
f 427//411 426//412 423//410
f 427//411 423//410 421//413
f 430//414 426//412 432//415
f 432//415 426//412 427//411
f 434//416 431//417 432//415
f 382//389 399//390 436//418
f 436//418 437//373 382//389
f 447//419 383//375 440//420
f 440//420 439//376 443//421
f 440//420 443//421 444//422
f 439//376 445//423 443//421
f 443//421 445//423 442//424
f 444//422 443//421 449//425
f 442//424 446//426 420//409
f 448//427 419//408 450//428
f 392//385 394//429 393//396
f 450//428 419//408 425//430
f 453//431 450//428 451//432
f 452//433 465//434 453//431
f 396//388 455//435 393//396
f 430//414 431//417 433//436
f 433//436 434//416 456//437
f 436//418 399//390 398//438
f 441//439 444//422 457//440
f 401//441 447//419 458//442
f 459//443 447//419 441//439
f 459//443 441//439 457//440
f 461//444 459//443 457//440
f 449//425 448//427 462//445
f 462//445 450//428 464//446
f 449//425 462//445 464//446
f 463//447 465//434 475//448
f 463//447 450//428 453//431
f 463//447 453//431 465//434
f 466//449 334//276 467//450
f 343//334 407//401 468//451
f 469//452 343//334 468//451
f 470//453 458//442 460//454
f 468//451 458//442 470//453
f 468//451 471//455 469//452
f 472//456 470//453 464//446
f 472//456 464//446 463//447
f 477//457 414//458 413//403
f 471//455 477//457 413//403
f 469//452 413//403 341//332
f 471//455 413//403 469//452
f 480//459 418//407 414//458
f 478//460 416//405 479//404
f 481//461 482//462 422//463
f 421//413 482//462 483//464
f 482//462 484//465 483//464
f 428//466 424//467 486//468
f 486//468 424//467 487//469
f 424//467 483//464 487//469
f 432//415 486//468 435//470
f 488//471 486//468 487//469
f 497//472 488//471 489//473
f 438//474 437//373 436//418
f 436//418 499//475 490//476
f 490//476 438//474 436//418
f 491//374 437//373 438//474
f 481//461 446//426 445//423
f 491//374 492//477 439//376
f 481//461 492//477 494//478
f 496//479 493//480 495//481
f 507//482 554//483 504//484
f 497//472 554//483 454//485
f 466//449 499//475 398//438
f 436//418 398//438 499//475
f 475//448 465//434 506//486
f 503//487 506//486 507//482
f 504//484 505//488 503//487
f 505//488 501//489 500//490
f 454//485 507//482 465//434
f 507//482 506//486 465//434
f 474//491 471//455 473//492
f 508//493 474//491 475//448
f 510//494 474//491 508//493
f 471//455 510//494 509//495
f 510//494 501//489 511//496
f 501//489 502//497 511//496
f 508//493 475//448 506//486
f 503//487 508//493 506//486
f 513//498 476//499 477//457
f 477//457 471//455 513//498
f 517//500 480//459 476//499
f 518//501 517//500 476//499
f 521//502 118//503 120//117
f 240//293 519//504 522//505
f 523//506 240//293 522//505
f 525//235 526//507 241//233
f 521//502 120//117 203//196
s 0
f 521//508 204//508 526//508
s 1
f 526//507 204//198 241//233
f 240//293 523//506 527//509
f 536//510 524//511 529//512
f 528//513 240//293 530//514
f 529//512 533//515 535//516
f 537//517 529//512 535//516
f 532//518 538//519 528//513
f 534//520 538//519 532//518
f 541//359 539//294 540//521
f 483//464 485//522 487//469
f 542//523 543//524 487//469
f 542//523 485//522 551//525
f 558//526 489//473 543//524
f 499//475 559//527 490//476
f 493//480 544//528 546//529
f 547//530 493//480 546//529
f 548//531 546//529 549//532
f 550//533 547//530 548//531
f 563//534 496//479 495//481
f 552//535 496//479 563//534
f 563//534 495//481 545//536
f 551//525 485//522 484//465
f 554//483 556//537 555//538
f 555//538 504//484 554//483
f 555//538 556//537 551//525
f 557//539 542//523 551//525
f 558//526 498//540 489//473
f 558//526 554//483 498//540
f 558//526 556//537 554//483
f 466//449 559//527 499//475
f 547//530 550//533 561//541
f 562//542 547//530 561//541
f 560//543 547//530 562//542
f 502//497 563//534 565//544
f 564//545 553//546 547//530
f 566//547 547//530 560//543
f 511//496 565//544 509//495
f 516//548 509//495 568//549
f 509//495 565//544 564//545
f 568//549 564//545 569//550
f 515//551 513//498 516//548
f 570//552 478//460 517//500
f 277//278 269//261 278//279
f 397//372 392//385 455//435
f 397//372 377//369 392//385
f 376//368 378//383 392//385
f 571//270 329//319 330//321
f 328//322 571//270 259//248
f 257//271 256//553 275//272
f 572//554 256//553 209//205
f 185//173 87//86 85//83
f 171//180 87//86 185//173
f 169//177 171//180 170//179
f 171//180 89//555 87//86
f 69//61 51//47 68//49
f 125//124 126//125 69//61
f 126//125 67//121 69//61
f 1//2 31//22 30//27
f 1//2 26//10 31//22
f 1//2 30//27 32//4
f 5//20 20//19 23//6
f 5//20 6//556 43//17
f 7//5 5//20 23//6
f 3//1 9//11 1//2
f 10//12 3//1 2//3
f 49//43 9//11 10//12
f 16//557 13//28 14//14
f 16//557 32//4 13//28
f 16//557 14//14 17//558
f 18//30 17//558 88//90
f 18//30 16//557 17//558
f 21//18 43//17 80//559
f 11//64 20//19 21//18
f 23//6 20//19 11//64
f 25//26 24//25 22//8
f 23//6 11//64 22//8
f 26//10 28//24 27//21
f 28//24 24//25 29//23
f 12//15 29//23 96//16
f 13//28 27//21 12//15
f 12//15 14//14 13//28
f 34//44 2//3 33//29
f 32//4 16//557 18//30
f 34//44 33//29 35//46
f 33//29 18//30 36//87
f 35//46 33//29 36//87
f 37//560 35//46 36//87
f 37//560 36//87 38//101
f 42//37 55//33 95//34
f 59//36 55//33 42//37
f 6//556 4//35 43//17
f 22//8 8//7 23//6
f 24//25 44//9 22//8
f 45//38 47//39 28//24
f 44//9 24//25 47//39
f 46//40 47//39 45//38
f 45//38 26//10 9//11
f 9//11 49//43 45//38
f 51//47 10//12 34//44
f 51//47 34//44 53//45
f 53//45 35//46 37//560
f 53//45 52//63 54//48
f 39//51 53//45 37//560
f 53//45 109//108 52//63
f 57//53 41//32 40//31
f 60//55 44//9 46//40
f 48//41 61//54 46//40
f 62//56 61//54 48//41
f 64//59 62//56 63//57
f 66//62 117//60 49//43
f 52//63 70//123 68//49
f 131//65 21//18 81//145
f 75//74 149//80 74//68
f 76//69 74//68 137//72
f 75//74 74//68 77//70
f 78//71 76//69 79//77
f 80//559 42//37 156//95
f 80//559 156//95 81//145
f 21//18 80//559 81//145
f 72//67 22//8 11//64
f 73//79 22//8 72//67
f 15//13 96//16 84//81
f 98//82 84//81 96//16
f 15//13 17//558 14//14
f 86//85 17//558 15//13
f 89//555 17//558 86//85
f 88//90 17//558 89//555
f 86//85 87//86 89//555
f 90//91 88//90 89//555
f 91//176 19//88 90//91
f 43//17 42//37 80//559
f 82//78 25//26 22//8
f 25//26 83//96 97//97
f 97//97 29//23 25//26
f 97//97 96//16 29//23
f 97//97 98//82 96//16
f 99//98 97//97 83//96
f 100//100 99//98 83//96
f 37//560 38//101 39//51
f 104//104 39//51 38//101
f 19//88 103//102 92//89
f 102//106 103//102 19//88
f 41//32 107//113 108//94
f 93//93 41//32 108//94
f 109//108 111//111 112//107
f 113//109 111//111 115//112
f 113//109 112//107 111//111
f 39//51 115//112 110//50
f 109//108 110//50 111//111
f 39//51 104//104 115//112
f 113//109 105//103 106//105
f 58//114 107//113 57//53
f 63//57 117//60 64//59
f 61//54 62//56 65//58
f 65//58 64//59 119//116
f 119//116 61//54 65//58
f 120//117 118//503 61//54
f 120//117 119//116 121//118
f 123//120 120//117 121//118
f 126//125 124//122 67//121
f 124//122 122//119 117//60
f 125//124 112//107 114//110
f 133//130 132//66 131//65
f 134//132 135//131 139//135
f 140//138 138//136 139//135
f 140//138 139//135 136//133
f 137//72 138//136 71//73
f 143//211 141//139 142//140
f 145//141 71//73 141//139
f 81//145 156//95 147//128
f 147//128 156//95 154//144
f 72//67 132//66 134//132
f 72//67 134//132 73//79
f 74//68 73//79 134//132
f 168//161 79//77 150//76
f 150//76 151//142 152//146
f 168//161 150//76 152//146
f 168//161 152//146 153//148
f 156//95 95//34 154//144
f 157//150 83//96 82//78
f 160//151 157//150 149//80
f 162//171 160//151 161//152
f 167//158 163//154 78//71
f 165//156 163//154 167//158
f 79//77 166//159 78//71
f 168//161 166//159 79//77
f 169//177 91//176 90//91
f 172//160 166//159 168//161
f 174//162 94//92 173//183
f 175//167 101//99 100//100
f 178//166 175//167 100//100
f 182//172 178//166 157//150
f 176//165 98//82 101//99
f 184//561 185//173 183//84
f 194//185 185//173 184//561
f 190//178 102//106 91//176
f 190//178 169//177 170//179
f 192//182 189//192 190//178
f 185//173 191//181 171//180
f 189//192 106//105 190//178
f 107//113 173//183 94//92
f 194//185 184//561 183//84
f 193//186 194//185 180//169
f 194//185 183//84 180//169
f 182//172 193//186 180//169
f 188//174 185//173 194//185
f 196//187 188//174 194//185
f 113//109 106//105 197//189
f 199//191 106//105 189//192
f 197//189 106//105 199//191
f 198//190 197//189 199//191
f 198//190 199//191 200//193
f 200//193 208//194 198//190
f 201//195 208//194 200//193
f 188//174 201//195 192//182
f 240//293 116//115 519//504
f 206//199 203//196 123//120
f 123//120 122//119 206//199
f 205//197 195//184 242//200
f 204//198 205//197 244//201
f 128//126 206//199 124//122
f 206//199 128//126 207//203
f 207//203 205//197 206//199
f 207//203 196//187 205//197
f 207//203 202//188 196//187
f 205//197 196//187 195//184
f 127//127 114//110 198//190
f 208//194 127//127 129//202
f 128//126 127//127 208//194
f 208//194 129//202 198//190
f 210//207 130//129 147//128
f 212//237 133//130 130//129
f 211//208 212//237 130//129
f 135//131 133//130 213//134
f 213//134 133//130 245//240
f 245//240 133//130 212//237
f 216//562 140//138 215//137
f 216//562 215//137 217//210
f 218//257 217//210 214//209
f 216//562 142//140 140//138
f 142//140 216//562 219//265
f 217//210 219//265 216//562
f 145//141 141//139 220//204
f 220//204 141//139 143//211
f 209//205 142//140 219//265
f 221//212 145//141 220//204
f 220//204 143//211 209//205
f 222//206 221//212 220//204
f 223//213 146//147 151//142
f 223//213 151//142 221//212
f 223//213 221//212 224//214
f 225//215 224//214 222//206
f 153//148 146//147 227//217
f 227//217 223//213 225//215
f 172//160 153//148 227//217
f 228//218 227//217 225//215
f 154//144 230//219 229//275
f 230//219 155//163 283//224
f 154//144 229//275 226//216
f 172//160 232//221 231//220
f 228//218 232//221 172//160
f 283//224 155//163 174//162
f 234//229 162//171 161//152
f 235//225 162//171 234//229
f 236//227 235//225 234//229
f 238//228 236//227 234//229
f 167//158 238//228 165//156
f 186//157 239//230 167//158
f 240//293 361//232 116//115
f 242//200 182//172 237//226
f 297//234 242//200 237//226
f 525//235 241//233 297//234
f 525//235 363//236 243//563
f 241//233 244//201 242//200
f 314//307 312//242 248//244
f 209//205 219//265 251//264
f 252//246 248//244 253//250
f 248//244 249//245 253//250
f 253//250 249//245 255//253
f 256//553 222//206 209//205
f 572//554 209//205 251//264
f 252//246 253//250 258//249
f 214//209 213//134 245//240
f 246//239 218//257 214//209
f 265//260 264//259 218//257
f 265//260 266//258 264//259
f 269//261 267//267 266//258
f 219//265 217//210 271//256
f 268//266 271//256 266//258
f 272//268 273//325 271//256
f 251//264 271//256 273//325
f 222//206 256//553 257//271
f 274//273 225//215 275//272
f 276//255 226//216 229//275
f 277//278 267//267 269//261
f 279//277 267//267 277//278
f 280//328 268//266 279//277
f 270//262 278//279 269//261
f 281//336 272//268 268//266
f 282//274 228//218 274//273
f 274//273 228//218 225//215
f 284//280 233//223 232//221
f 233//223 284//280 295//222
f 287//354 295//222 285//282
f 289//286 237//226 288//283
f 290//285 289//286 288//283
f 290//285 291//284 365//287
f 239//230 288//283 238//228
f 293//289 292//231 294//290
f 293//289 291//284 288//283
f 295//222 296//291 231//220
f 295//222 287//354 296//291
f 363//236 297//234 289//286
f 539//294 240//293 528//513
f 243//563 363//236 299//364
f 302//295 255//253 301//296
f 303//297 304//298 302//295
f 260//251 255//253 302//295
f 262//254 260//251 305//300
f 245//240 212//237 307//238
f 312//242 311//306 250//243
f 314//307 313//241 312//242
f 312//242 313//241 315//308
f 300//299 303//297 311//306
f 300//299 311//306 315//308
f 316//309 315//308 309//303
f 249//245 250//243 301//296
f 303//297 301//296 311//306
f 261//252 318//313 317//310
f 318//313 328//322 317//310
f 318//313 321//314 262//254
f 319//312 262//254 305//300
f 261//252 258//249 321//314
f 326//317 322//316 247//263
f 323//564 265//260 322//316
f 324//331 265//260 323//564
f 324//331 270//262 265//260
f 326//317 248//244 325//269
f 248//244 326//317 314//307
f 326//317 323//564 322//316
f 324//331 323//564 326//317
f 330//321 327//318 325//269
f 273//325 332//324 572//554
f 332//324 282//274 275//272
f 333//387 329//319 328//322
f 328//322 318//313 333//387
f 334//276 263//315 276//255
f 335//326 279//277 278//279
f 335//326 280//328 279//277
f 336//327 337//345 280//328
f 338//349 280//328 337//345
f 339//329 337//345 336//327
f 339//329 270//262 340//330
f 342//333 341//332 340//330
f 344//335 272//268 281//336
f 338//349 268//266 280//328
f 345//337 281//336 268//266
f 345//337 268//266 338//349
f 327//318 346//338 326//317
f 346//338 340//330 324//331
f 344//335 273//325 272//268
f 344//335 350//341 348//323
f 330//321 331//320 349//340
f 349//340 347//339 327//318
f 286//281 282//274 332//324
f 350//341 332//324 348//323
f 230//219 334//276 229//275
f 337//345 351//347 338//349
f 352//344 351//347 337//345
f 353//346 366//351 351//347
f 354//565 352//344 339//329
f 354//565 353//346 352//344
f 341//332 354//565 339//329
f 341//332 353//346 354//565
f 351//347 356//350 345//337
f 356//350 357//566 344//335
f 367//358 356//350 366//351
f 356//350 359//352 357//566
f 358//353 287//354 360//342
f 357//566 350//341 344//335
f 357//566 359//352 350//341
f 367//358 359//352 356//350
f 358//353 359//352 367//358
f 360//342 285//282 286//281
f 361//232 283//224 173//183
f 415//357 364//288 365//287
f 365//287 353//346 355//348
f 355//348 415//357 365//287
f 296//291 287//354 358//353
f 294//290 296//291 358//353
f 358//353 367//358 294//290
f 368//361 361//232 240//293
f 362//356 417//406 369//355
f 298//292 370//362 240//293
f 298//292 541//359 370//362
f 370//362 368//361 240//293
f 541//359 371//363 370//362
f 541//359 369//355 371//363
f 363//236 369//355 299//364
f 373//366 375//367 304//298
f 376//368 375//367 378//383
f 381//371 319//312 305//300
f 374//365 377//369 379//301
f 377//369 380//370 379//301
f 381//371 380//370 377//369
f 437//373 306//302 382//389
f 383//375 386//378 308//304
f 439//376 308//304 491//374
f 373//366 300//299 384//377
f 383//375 387//380 386//378
f 388//382 387//380 383//375
f 378//383 375//367 373//366
f 390//381 378//383 384//377
f 393//396 404//394 396//388
f 320//311 333//387 318//313
f 333//387 320//311 395//386
f 395//386 397//372 455//435
f 396//388 395//386 455//435
f 263//315 398//438 399//390
f 400//392 388//382 401//441
f 401//441 388//382 389//391
f 402//393 391//384 390//381
f 388//382 400//392 390//381
f 391//384 403//398 394//429
f 405//395 404//394 406//397
f 394//429 392//385 391//384
f 403//398 393//396 394//429
f 396//388 404//394 333//387
f 398//438 263//315 334//276
f 407//401 400//392 401//441
f 342//333 346//338 343//334
f 408//402 409//399 347//339
f 346//338 409//399 343//334
f 408//402 410//400 409//399
f 410//400 343//334 409//399
f 408//402 406//397 410//400
f 407//401 343//334 410//400
f 410//400 402//393 400//392
f 410//400 391//384 402//393
f 408//402 349//340 406//397
f 349//340 405//395 406//397
f 411//343 467//450 334//276
f 413//403 414//458 415//357
f 355//348 341//332 413//403
f 469//452 341//332 343//334
f 361//232 412//567 411//343
f 414//458 418//407 417//406
f 362//356 414//458 417//406
f 415//357 414//458 362//356
f 368//361 416//405 361//232
f 418//407 479//404 372//360
f 371//363 369//355 417//406
f 420//409 422//463 421//413
f 422//463 420//409 446//426
f 420//409 421//413 423//410
f 425//430 423//410 426//412
f 425//430 419//408 423//410
f 428//466 427//411 424//467
f 424//467 427//411 421//413
f 426//412 430//414 425//430
f 431//417 430//414 432//415
f 434//416 433//436 431//417
f 432//415 427//411 486//468
f 434//416 432//415 435//470
f 491//374 307//238 437//373
f 440//420 383//375 439//376
f 444//422 441//439 440//420
f 389//391 383//375 447//419
f 448//427 442//424 419//408
f 449//425 442//424 448//427
f 449//425 443//421 442//424
f 442//424 420//409 419//408
f 442//424 445//423 446//426
f 393//396 455//435 392//385
f 450//428 425//430 451//432
f 452//433 453//431 451//432
f 430//414 433//436 456//437
f 451//432 456//437 452//433
f 451//432 429//568 456//437
f 452//433 456//437 465//434
f 456//437 434//416 454//485
f 456//437 454//485 465//434
f 441//439 447//419 440//420
f 401//441 389//391 447//419
f 458//442 447//419 459//443
f 449//425 457//440 444//422
f 449//425 460//454 457//440
f 460//454 461//444 457//440
f 458//442 459//443 461//444
f 460//454 458//442 461//444
f 460//454 449//425 470//453
f 462//445 448//427 450//428
f 463//447 464//446 450//428
f 470//453 449//425 464//446
f 398//438 334//276 466//449
f 407//401 401//441 468//451
f 468//451 401//441 458//442
f 473//492 468//451 470//453
f 474//491 473//492 470//453
f 475//448 472//456 463//447
f 477//457 476//499 414//458
f 476//499 480//459 414//458
f 416//405 478//460 361//232
f 418//407 480//459 479//404
f 421//413 422//463 482//462
f 494//478 482//462 481//461
f 494//478 484//465 482//462
f 483//464 424//467 421//413
f 484//465 485//522 483//464
f 486//468 427//411 428//466
f 497//472 434//416 435//470
f 488//471 435//470 486//468
f 497//472 435//470 488//471
f 544//528 492//477 491//374
f 446//426 481//461 422//463
f 445//423 439//376 492//477
f 445//423 492//477 481//461
f 494//478 492//477 493//480
f 544//528 493//480 492//477
f 496//479 494//478 493//480
f 496//479 484//465 494//478
f 454//485 554//483 507//482
f 434//416 497//472 454//485
f 498//540 554//483 497//472
f 489//473 498//540 497//472
f 501//489 552//535 563//534
f 501//489 563//534 502//497
f 503//487 507//482 504//484
f 501//489 505//488 552//535
f 500//490 503//487 505//488
f 504//484 555//538 505//488
f 472//456 474//491 470//453
f 468//451 473//492 471//455
f 472//456 475//448 474//491
f 471//455 474//491 510//494
f 510//494 500//490 501//489
f 511//496 509//495 510//494
f 508//493 500//490 510//494
f 503//487 500//490 508//493
f 513//498 518//501 476//499
f 471//455 516//548 513//498
f 478//460 412//567 361//232
f 479//404 480//459 478//460
f 480//459 517//500 478//460
f 521//502 520//569 118//503
f 525//235 524//511 526//507
f 204//198 521//502 203//196
f 529//512 243//563 533//515
f 524//511 525//235 529//512
f 529//512 525//235 243//563
f 530//514 240//293 527//509
f 531//570 528//513 530//514
f 531//570 534//520 532//518
f 537//517 536//510 529//512
f 538//519 539//294 528//513
f 538//519 540//521 539//294
f 533//515 541//359 540//521
f 533//515 299//364 541//359
f 533//515 243//563 299//364
f 532//518 528//513 531//570
f 534//520 533//515 540//521
f 534//520 540//521 538//519
f 542//523 487//469 485//522
f 488//471 487//469 543//524
f 543//524 489//473 488//471
f 491//374 438//474 544//528
f 544//528 438//474 490//476
f 547//530 495//481 493//480
f 547//530 545//536 495//481
f 547//530 546//529 548//531
f 496//479 551//525 484//465
f 552//535 551//525 496//479
f 552//535 505//488 551//525
f 505//488 555//538 551//525
f 556//537 557//539 551//525
f 557//539 543//524 542//523
f 557//539 558//526 543//524
f 558//526 557//539 556//537
f 553//546 545//536 547//530
f 553//546 563//534 545//536
f 564//545 563//534 553//546
f 565//544 563//534 564//545
f 564//545 547//530 566//547
f 466//449 467//450 567//571
f 567//571 559//527 466//449
f 567//571 467//450 512//572
f 565//544 511//496 502//497
f 516//548 471//455 509//495
f 568//549 509//495 564//545
f 569//550 564//545 566//547
f 411//343 512//572 467//450
f 411//343 412//567 512//572
f 514//573 518//501 513//498
f 513//498 515//551 514//573
f 517//500 518//501 570//552
f 570//552 412//567 478//460
f 425//430 429//568 451//432
f 425//430 430//414 429//568
f 429//568 430//414 456//437
f 377//369 376//368 392//385
f 325//269 571//270 330//321
f 329//319 571//270 328//322
f 259//248 571//270 252//246
f 254//247 252//246 571//270
f 275//272 256//553 572//554
f 275//272 572//554 332//324
f 273//325 572//554 251//264
f 78//71 166//159 167//158
f 169//177 90//91 171//180
f 90//91 89//555 171//180
f 70//123 69//61 68//49
f 125//124 69//61 70//123
f 66//62 69//61 67//121
