# Blender 4.3.2
# www.blender.org
mtllib Gum_Collision2.mtl
o Gum_Collision2
v 0.001846 -0.007166 0.037160
v 0.001810 -0.013990 0.040841
v 0.001830 -0.012637 0.041479
v 0.001867 -0.008475 0.042681
v -0.016773 -0.011090 0.032022
v -0.015649 -0.011811 0.034129
v -0.015757 -0.008219 0.034557
v -0.016791 -0.007539 0.031581
v -0.015748 -0.005430 0.032196
v -0.015571 -0.006378 0.033717
v -0.014977 -0.007145 0.034928
v -0.014877 -0.006935 0.034389
v -0.015289 -0.006011 0.032857
v -0.014875 -0.004857 0.031934
v -0.015672 -0.019133 0.030520
v -0.010426 -0.012977 0.039661
v -0.010683 -0.014888 0.037677
v -0.009624 -0.013427 0.039051
v -0.010147 -0.016160 0.036417
v -0.013804 -0.008294 0.036227
v -0.012588 -0.007848 0.039046
v -0.012121 -0.011358 0.039106
v -0.012275 -0.007686 0.038875
v -0.011651 -0.007447 0.036396
v -0.010845 -0.007803 0.040309
v -0.011585 -0.011392 0.039020
v -0.011405 -0.012795 0.036535
v -0.009972 -0.009398 0.040210
v -0.013624 -0.006594 0.035443
v -0.012434 -0.007053 0.038336
v -0.012425 -0.006224 0.037524
v -0.012157 -0.005153 0.036586
v -0.011470 -0.005073 0.036387
v -0.009391 -0.006788 0.040417
v -0.014167 -0.019404 0.032447
v -0.012553 -0.019550 0.034306
v -0.012203 -0.019850 0.033891
v -0.010380 -0.020110 0.035885
v -0.008263 -0.018869 0.027709
v -0.013917 -0.011451 0.036295
v -0.014295 -0.009094 0.033508
v -0.013846 -0.009475 0.031385
v -0.013112 -0.010545 0.033716
v -0.013101 -0.012634 0.031742
v -0.012110 -0.010038 0.033800
v -0.011869 -0.012666 0.032244
v -0.008695 -0.012026 0.034276
v -0.013896 -0.007037 0.035030
v -0.014178 -0.004692 0.031370
v -0.011036 -0.004659 0.033921
v -0.011429 -0.004743 0.034958
v -0.010726 -0.004942 0.035604
v -0.010485 -0.005316 0.031391
v -0.009340 -0.005298 0.034584
v -0.008704 -0.005808 0.034290
v -0.009988 -0.004943 0.032804
v -0.011677 -0.014162 0.030481
v -0.012112 -0.013665 0.029231
v -0.011358 -0.013594 0.029153
v -0.012875 -0.013232 0.030618
v -0.011286 -0.007893 0.029842
v -0.010546 -0.012557 0.030981
v -0.010614 -0.011737 0.028976
v -0.010038 -0.008376 0.030938
v -0.010103 -0.012220 0.029824
v -0.010078 -0.009646 0.029886
v -0.012078 -0.004326 0.029758
v -0.012754 -0.004607 0.030667
v -0.011975 -0.004829 0.027453
v -0.011061 -0.004942 0.030452
v -0.010386 -0.005229 0.030350
v -0.005952 -0.007748 0.042562
v -0.006529 -0.006741 0.041519
v -0.005944 -0.007094 0.042136
v -0.004893 -0.006707 0.042282
v -0.007617 -0.020137 0.036837
v -0.009233 -0.016038 0.037912
v -0.007838 -0.017096 0.036084
v -0.007837 -0.011293 0.040813
v -0.008001 -0.016558 0.037229
v -0.006770 -0.013409 0.036895
v -0.007063 -0.016224 0.036095
v -0.005750 -0.010744 0.041959
v -0.007833 -0.008206 0.041124
v -0.008377 -0.008169 0.039731
v -0.008857 -0.011690 0.039204
v -0.006152 -0.009198 0.036553
v -0.005241 -0.010253 0.040703
v -0.005878 -0.011078 0.039201
v -0.004601 -0.011989 0.035761
v -0.006001 -0.005291 0.039131
v -0.005265 -0.012923 0.038692
v -0.007106 -0.005532 0.040811
v -0.007562 -0.005380 0.039231
v -0.006480 -0.004901 0.038949
v -0.006444 -0.005401 0.037567
v -0.006580 -0.005379 0.040419
v -0.005329 -0.005190 0.038256
v -0.005679 -0.006084 0.035802
v -0.005146 -0.007179 0.037469
v -0.004143 -0.005337 0.037880
v -0.004726 -0.019593 0.032126
v -0.008448 -0.016967 0.035461
v -0.008353 -0.016034 0.034636
v -0.001860 -0.019642 0.033166
v -0.007369 -0.015712 0.034742
v -0.007296 -0.010827 0.034005
v -0.006281 -0.012049 0.035205
v -0.008880 -0.007875 0.030509
v -0.006133 -0.008752 0.034592
v -0.007139 -0.006009 0.034305
v -0.005932 -0.006436 0.035767
v -0.004151 -0.008821 0.035178
v -0.009146 -0.006117 0.031687
v -0.007471 -0.006106 0.033629
v -0.006329 -0.006472 0.034517
v -0.008248 -0.018346 0.027241
v -0.008780 -0.013587 0.027647
v -0.006239 -0.014067 0.031192
v -0.003031 -0.008293 0.042452
v -0.000961 -0.009173 0.043014
v -0.004088 -0.006399 0.042263
v -0.004121 -0.006069 0.041578
v -0.003719 -0.005145 0.041044
v -0.002583 -0.005233 0.040966
v -0.002186 -0.007242 0.042216
v -0.001623 -0.008077 0.042429
v 0.000279 -0.008186 0.042711
v 0.000074 -0.007462 0.042180
v 0.000881 -0.005883 0.041823
v 0.000384 -0.005652 0.040865
v -0.000893 -0.020187 0.037909
v -0.003621 -0.011330 0.041885
v -0.004788 -0.014161 0.036086
v -0.003679 -0.013160 0.037620
v -0.003525 -0.013575 0.036028
v -0.000955 -0.012702 0.042035
v -0.000816 -0.013877 0.038490
v -0.000814 -0.013923 0.037123
v 0.000232 -0.013068 0.038663
v 0.000255 -0.013768 0.037440
v -0.004280 -0.011643 0.039604
v -0.004571 -0.014155 0.037694
v -0.004367 -0.009871 0.036267
v -0.003605 -0.009104 0.037153
v -0.001620 -0.010183 0.040925
v -0.001179 -0.012694 0.039231
v -0.001899 -0.007424 0.038658
v -0.001434 -0.010209 0.036810
v -0.000516 -0.008379 0.042332
v -0.000671 -0.012064 0.040362
v -0.001116 -0.011775 0.036675
v -0.000601 -0.010357 0.036371
v 0.000064 -0.012107 0.039680
v 0.000064 -0.006303 0.038885
v 0.000011 -0.011238 0.037225
v -0.004249 -0.005504 0.038263
v -0.003765 -0.005355 0.038982
v -0.002598 -0.006497 0.037351
v -0.015068 -0.019216 0.029736
v -0.002025 -0.006007 0.038467
v -0.001543 -0.006520 0.038184
v -0.000437 -0.006823 0.038007
v -0.000167 -0.006641 0.037749
v -0.004629 -0.019191 0.031731
v 0.001846 -0.018731 0.033378
v -0.003755 -0.014505 0.033231
v -0.001686 -0.014988 0.033940
v -0.003604 -0.011146 0.036175
v -0.001905 -0.009424 0.035685
v 0.001832 -0.010279 0.035712
v 0.001791 -0.005652 0.041237
v 0.001833 -0.020409 0.037722
v 0.000772 -0.006067 0.038851
v 0.001837 -0.019780 0.033482
v -0.016229 -0.014073 0.031027
v -0.014159 -0.004401 0.028922
v -0.009910 -0.014162 0.025182
v -0.010811 -0.008488 0.026154
v -0.016207 -0.015822 0.031153
v -0.009609 -0.018418 0.025034
v -0.015801 -0.004911 0.030463
vn 0.7582 -0.2360 0.6078
vn 0.7247 0.2404 -0.6458
vn 0.6522 0.7227 0.2289
vn 0.7660 -0.2815 0.5779
vn 0.6970 0.0548 -0.7150
vn 0.6857 0.5070 -0.5222
vn 0.0484 0.9434 -0.3282
vn 0.7075 0.0616 0.7040
vn 0.6026 -0.7178 0.3489
vn 0.6009 -0.5722 -0.5582
vn -0.1428 0.6887 0.7109
vn -0.9951 -0.0784 0.0603
vn -0.8162 0.1126 0.5666
vn -0.9798 0.1337 -0.1485
vn -0.3890 0.7107 0.5862
vn -0.6108 0.6612 0.4357
vn -0.4716 0.6115 0.6353
vn 0.6111 0.7890 0.0639
vn 0.6305 0.6042 0.4872
vn 0.1712 0.7709 0.6135
vn -0.7176 0.6288 -0.2994
vn -0.3807 -0.3324 0.8629
vn -0.6026 -0.6125 0.5116
vn -0.3190 -0.8455 0.4282
vn 0.1622 0.6632 -0.7306
vn 0.7756 0.2836 -0.5640
vn 0.0046 0.3666 -0.9304
vn -0.7958 -0.1538 0.5857
vn -0.6631 -0.1978 0.7219
vn -0.6469 0.3694 0.6672
vn -0.8010 0.1682 0.5746
vn 0.8962 0.1977 0.3972
vn 0.5772 0.7674 0.2791
vn -0.4939 0.8276 0.2666
vn -0.0333 0.5822 0.8124
vn 0.7356 0.0201 0.6771
vn -0.0283 0.2255 -0.9738
vn -0.3439 -0.2591 0.9025
vn -0.1583 0.7793 0.6063
vn -0.7272 0.6648 -0.1709
vn -0.3543 0.8285 0.4338
vn 0.4457 0.6392 0.6267
vn -0.2167 -0.9748 0.0536
vn -0.5851 -0.7247 0.3638
vn -0.9847 -0.1733 0.0190
vn -0.8210 -0.1776 0.5426
vn 0.2906 0.5283 -0.7978
vn -0.2078 0.6302 -0.7481
vn 0.7391 0.5788 -0.3446
vn -0.8088 0.4117 -0.4199
vn -0.4772 0.3069 -0.8235
vn -0.3539 0.8968 -0.2655
vn 0.2648 0.6221 -0.7368
vn 0.8519 0.4042 -0.3328
vn 0.8099 0.0959 0.5787
vn 0.2604 0.7519 0.6057
vn -0.2894 0.9568 0.0287
vn 0.5528 0.6636 0.5040
vn 0.4964 0.6737 0.5475
vn -0.8744 0.4840 0.0346
vn 0.2933 0.9399 -0.1750
vn 0.6435 0.7360 -0.2100
vn -0.5955 -0.5987 -0.5357
vn -0.3457 0.6253 0.6997
vn 0.4669 0.5356 0.7037
vn -0.1301 0.9813 -0.1421
vn 0.8447 0.5260 0.0991
vn -0.9377 0.2980 0.1785
vn -0.3559 0.0040 0.9345
vn -0.9948 -0.0412 -0.0937
vn -0.8329 -0.1501 0.5327
vn 0.2730 0.9486 0.1600
vn 0.2683 0.5609 0.7832
vn 0.1490 0.6590 0.7372
vn 0.0987 -0.1419 0.9850
vn 0.1039 0.4656 -0.8789
vn 0.6804 0.5893 -0.4358
vn 0.7769 0.3592 -0.5172
vn -0.3173 0.1379 0.9382
vn -0.2298 -0.2839 0.9309
vn 0.3766 0.6095 0.6976
vn -0.4262 0.0618 0.9025
vn -0.0589 0.9845 0.1653
vn -0.5534 0.7910 0.2610
vn -0.1546 -0.8154 0.5578
vn 0.7336 0.6612 0.1570
vn 0.7809 0.4733 -0.4077
vn -0.3031 0.9523 -0.0343
vn -0.3688 0.6696 -0.6446
vn -0.5470 0.1949 -0.8141
vn -0.8650 0.1511 -0.4785
vn -0.9353 0.0913 -0.3417
vn -0.6179 0.1407 -0.7736
vn 0.9633 0.2424 -0.1150
vn 0.2449 0.5178 -0.8197
vn 0.3933 -0.0465 0.9182
vn 0.5638 0.6908 0.4527
vn 0.6056 0.5973 -0.5259
vn 0.3729 0.7616 0.5300
vn -0.1638 0.7237 0.6704
vn -0.7722 0.6353 0.0105
vn -0.6850 0.6827 -0.2542
vn -0.5224 0.6900 -0.5010
vn 0.0103 0.9990 0.0424
vn 0.7656 0.4255 0.4825
vn 0.4333 0.8282 0.3555
vn 0.4618 -0.2998 0.8348
vn 0.1713 0.9642 -0.2025
vn -0.0392 0.8161 -0.5765
vn 0.3281 -0.8644 -0.3809
vn 0.1929 0.4286 0.8827
vn 0.3898 0.0704 0.9182
vn 0.1848 0.8771 0.4434
vn -0.5874 0.3915 0.7083
vn -0.2660 0.0787 0.9608
vn -0.9448 0.1500 0.2914
vn -0.8900 0.4483 -0.0834
vn 0.4216 0.1360 0.8965
vn 0.3540 0.7860 0.5068
vn -0.9646 0.2603 -0.0413
vn 0.7336 0.2106 -0.6461
vn 0.5072 0.4019 -0.7624
vn 0.5063 0.2270 -0.8319
vn 0.5104 0.7660 -0.3907
vn 0.2132 0.9668 0.1411
vn 0.1518 -0.9205 -0.3601
vn 0.5844 -0.2939 -0.7564
vn 0.8234 -0.1646 -0.5430
vn 0.1686 -0.4873 -0.8568
vn 0.1844 0.1349 -0.9736
vn 0.8453 0.2042 -0.4937
vn -0.0549 0.0405 0.9977
vn -0.0128 0.0634 0.9979
vn -0.0113 -0.3718 0.9282
vn -0.0510 0.0267 0.9983
vn -0.1104 0.5454 0.8309
vn -0.8881 0.4449 -0.1156
vn -0.5175 0.8115 0.2715
vn 0.4330 0.8334 0.3434
vn 0.6555 0.3549 0.6666
vn -0.0943 0.3950 0.9138
vn -0.2212 0.7699 -0.5986
vn -0.8442 0.3776 0.3806
vn -0.6191 0.7829 0.0614
vn -0.0678 -0.7510 0.6568
vn -0.7011 0.4829 0.5247
vn -0.0576 0.9349 -0.3503
vn -0.8925 0.3266 -0.3111
vn -0.6798 0.6428 0.3531
vn 0.3824 0.8221 -0.4217
vn -0.7997 0.4396 -0.4089
vn -0.5343 0.4795 -0.6961
vn -0.8874 -0.1982 0.4162
vn -0.7448 -0.1360 0.6532
vn -0.0520 -0.3145 0.9478
vn 0.6847 0.6246 -0.3755
vn 0.9686 0.0546 0.2424
vn 0.8048 0.3812 -0.4550
vn 0.7988 -0.0603 0.5986
vn -0.0030 0.6853 -0.7283
vn 0.3735 0.3184 0.8713
vn -0.2404 -0.1032 0.9652
vn -0.6824 0.4816 -0.5498
vn -0.8028 0.0469 0.5944
vn 0.4202 0.6263 0.6566
vn -0.8104 0.5854 0.0227
vn -0.4516 0.3698 0.8120
vn -0.8222 -0.5343 0.1965
vn 0.3085 0.6932 -0.6514
vn 0.5342 0.7838 0.3168
vn 0.7192 0.6810 -0.1378
vn 0.6133 0.6011 0.5124
vn -0.0284 0.9726 -0.2309
vn -0.3055 0.2053 0.9298
vn 0.1631 -0.6411 -0.7499
vn 0.2251 0.2311 -0.9465
vn 0.1888 0.4094 -0.8926
vn -0.8180 -0.5649 -0.1082
vn -0.8133 0.0304 0.5811
vn 0.1992 0.2706 -0.9419
vn -0.8201 -0.0247 -0.5717
vn -0.6958 0.3557 -0.6240
vn 0.0493 0.9763 -0.2109
s 1
usemtl Arch.004
f 3//1 171//2 172//3
f 171//2 3//1 2//4
f 166//5 171//2 2//4
f 172//3 1//6 174//7
f 172//3 4//8 3//1
f 166//5 173//9 175//10
f 172//3 130//11 4//8
f 166//5 2//4 173//9
f 171//2 1//6 172//3
f 5//12 7//13 8//14
f 8//14 10//15 9//16
f 10//15 7//13 11//17
f 12//18 10//15 11//17
f 13//19 10//15 12//18
f 9//16 13//19 14//20
f 182//21 9//16 14//20
f 16//22 36//23 38//24
f 77//25 26//26 18//27
f 40//28 22//29 21//30
f 40//28 21//30 20//31
f 27//32 23//33 26//26
f 23//33 25//34 26//26
f 31//35 27//32 24//36
f 25//34 22//29 16//22
f 25//34 28//37 26//26
f 25//34 16//22 79//38
f 30//39 29//40 21//30
f 32//41 29//40 31//35
f 21//30 25//34 23//33
f 30//39 21//30 23//33
f 31//35 30//39 23//33
f 33//42 31//35 24//36
f 37//43 36//23 35//44
f 180//45 35//44 6//46
f 6//46 35//44 36//23
f 43//47 46//48 44//49
f 62//50 45//51 50//52
f 45//51 62//50 46//48
f 12//18 11//17 48//53
f 44//49 13//19 41//54
f 42//55 13//19 44//49
f 42//55 14//20 13//19
f 11//17 20//31 29//40
f 48//53 11//17 29//40
f 14//20 42//55 49//56
f 48//53 45//51 43//47
f 51//57 50//52 29//40
f 32//41 33//42 51//57
f 54//58 52//59 24//36
f 53//60 56//61 71//62
f 160//63 37//43 35//44
f 59//64 58//65 57//66
f 58//65 42//55 60//67
f 57//66 44//49 46//48
f 58//65 60//67 57//66
f 57//66 62//50 65//68
f 63//69 58//65 59//64
f 64//70 62//50 50//52
f 66//71 63//69 65//68
f 182//21 49//56 67//72
f 49//56 68//73 67//72
f 70//74 68//73 61//75
f 69//76 67//72 71//62
f 66//71 64//70 53//60
f 66//71 53//60 70//74
f 70//74 61//75 66//71
f 67//72 70//74 71//62
f 71//62 114//77 109//78
f 72//79 79//38 83//80
f 73//81 84//82 72//79
f 72//79 74//83 73//81
f 74//83 72//79 75//84
f 16//22 38//24 76//85
f 19//86 17//87 77//25
f 78//88 19//86 77//25
f 18//27 80//89 77//25
f 86//90 80//89 18//27
f 80//89 86//90 81//91
f 28//37 86//90 18//27
f 84//82 79//38 72//79
f 81//91 86//90 87//92
f 87//92 86//90 85//93
f 89//94 73//81 88//95
f 90//96 97//97 89//94
f 89//94 88//95 92//98
f 134//99 89//94 92//98
f 25//34 84//82 93//100
f 34//101 85//93 28//37
f 93//100 84//82 73//81
f 94//102 34//101 93//100
f 96//103 94//102 95//104
f 89//94 97//97 73//81
f 95//104 91//105 98//106
f 98//106 91//105 100//107
f 96//103 101//108 99//109
f 96//103 98//106 101//108
f 38//24 37//43 39//110
f 27//32 104//111 47//112
f 103//113 19//86 78//88
f 104//111 19//86 103//113
f 106//114 103//113 78//88
f 104//111 106//114 107//115
f 108//116 82//117 81//91
f 24//36 47//112 55//118
f 111//119 55//118 107//115
f 106//114 108//116 107//115
f 108//116 87//92 112//120
f 119//121 113//122 167//123
f 50//52 54//58 56//61
f 115//124 54//58 55//118
f 115//124 55//118 111//119
f 116//125 113//122 109//78
f 102//126 38//24 39//110
f 165//127 102//126 39//110
f 119//121 165//127 117//128
f 114//77 71//62 56//61
f 117//128 39//110 181//129
f 178//130 118//131 117//128
f 120//132 72//79 83//80
f 120//132 83//80 133//133
f 133//133 137//134 121//135
f 120//132 133//133 121//135
f 75//84 122//136 123//137
f 123//137 122//136 124//138
f 120//132 121//135 127//139
f 126//140 120//132 127//139
f 127//139 128//141 150//142
f 150//142 128//141 129//143
f 129//143 130//11 131//144
f 173//9 76//85 38//24
f 173//9 132//145 76//85
f 136//146 143//147 135//148
f 133//133 83//80 137//134
f 141//149 138//150 140//151
f 88//95 142//152 92//98
f 143//147 92//98 142//152
f 142//152 135//148 143//147
f 136//146 135//148 145//153
f 136//146 145//153 169//154
f 144//155 169//154 145//153
f 147//156 148//157 146//158
f 149//159 148//157 147//156
f 147//156 146//158 151//160
f 152//161 147//156 138//150
f 149//159 147//156 152//161
f 149//159 152//161 153//162
f 150//142 154//163 151//160
f 140//151 154//163 129//143
f 140//151 138//150 147//156
f 140//151 147//156 154//163
f 156//164 139//165 141//149
f 155//166 153//162 156//164
f 75//84 142//152 88//95
f 142//152 75//84 123//137
f 100//107 144//155 157//167
f 101//108 98//106 157//167
f 123//137 135//148 142//152
f 135//148 123//137 124//138
f 145//153 124//138 158//168
f 157//167 145//153 158//168
f 101//108 157//167 158//168
f 145//153 157//167 144//155
f 101//108 159//169 99//109
f 101//108 124//138 125//170
f 101//108 161//171 159//169
f 148//157 126//140 146//158
f 161//171 126//140 148//157
f 159//169 162//172 164//173
f 162//172 153//162 163//174
f 164//173 162//172 163//174
f 140//151 129//143 131//144
f 164//173 163//174 155//166
f 167//123 165//127 119//121
f 165//127 167//123 105//175
f 168//176 105//175 167//123
f 166//5 105//175 168//176
f 90//96 136//146 169//154
f 168//176 167//123 170//177
f 168//176 171//2 166//5
f 159//169 113//122 99//109
f 113//122 159//169 170//177
f 128//141 121//135 4//8
f 4//8 137//134 3//1
f 137//134 2//4 3//1
f 4//8 130//11 128//141
f 137//134 132//145 173//9
f 155//166 131//144 174//7
f 164//173 155//166 174//7
f 174//7 131//144 172//3
f 170//177 1//6 171//2
f 92//98 143//147 134//99
f 180//45 15//178 35//44
f 5//12 180//45 6//46
f 5//12 6//46 7//13
f 16//22 22//29 36//23
f 22//29 40//28 36//23
f 9//16 10//15 13//19
f 8//14 7//13 10//15
f 19//86 27//32 17//87
f 77//25 17//87 26//26
f 27//32 31//35 23//33
f 25//34 21//30 22//29
f 17//87 27//32 26//26
f 28//37 18//27 26//26
f 20//31 21//30 29//40
f 25//34 34//101 28//37
f 33//42 32//41 31//35
f 29//40 30//39 31//35
f 36//23 37//43 38//24
f 40//28 6//46 36//23
f 7//13 6//46 40//28
f 43//47 41//54 12//18
f 43//47 44//49 41//54
f 43//47 45//51 46//48
f 24//36 27//32 47//112
f 20//31 7//13 40//28
f 11//17 7//13 20//31
f 41//54 13//19 12//18
f 12//18 48//53 43//47
f 51//57 29//40 32//41
f 48//53 29//40 45//51
f 29//40 50//52 45//51
f 24//36 52//59 33//42
f 51//57 33//42 52//59
f 50//52 51//57 52//59
f 64//70 50//52 53//60
f 55//118 54//58 24//36
f 54//58 50//52 52//59
f 53//60 50//52 56//61
f 160//63 35//44 15//178
f 160//63 39//110 37//43
f 160//63 181//129 39//110
f 60//67 42//55 44//49
f 58//65 61//75 42//55
f 57//66 60//67 44//49
f 61//75 58//65 63//69
f 59//64 57//66 65//68
f 57//66 46//48 62//50
f 63//69 59//64 65//68
f 65//68 62//50 64//70
f 66//71 65//68 64//70
f 66//71 61//75 63//69
f 182//21 14//20 49//56
f 49//56 42//55 61//75
f 61//75 68//73 49//56
f 67//72 68//73 70//74
f 71//62 70//74 53//60
f 69//76 71//62 109//78
f 16//22 76//85 79//38
f 80//89 78//88 77//25
f 81//91 82//117 80//89
f 83//80 79//38 76//85
f 84//82 25//34 79//38
f 28//37 85//93 86//90
f 90//96 91//105 97//97
f 90//96 100//107 91//105
f 134//99 90//96 89//94
f 34//101 25//34 93//100
f 34//101 94//102 85//93
f 94//102 87//92 85//93
f 94//102 93//100 95//104
f 94//102 96//103 87//92
f 97//97 93//100 73//81
f 95//104 93//100 97//97
f 73//81 74//83 88//95
f 95//104 97//97 91//105
f 96//103 95//104 98//106
f 74//83 75//84 88//95
f 102//126 105//175 38//24
f 27//32 19//86 104//111
f 80//89 82//117 78//88
f 106//114 104//111 103//113
f 106//114 78//88 82//117
f 106//114 82//117 108//116
f 47//112 104//111 107//115
f 107//115 55//118 47//112
f 107//115 108//116 110//179
f 108//116 81//91 87//92
f 110//179 108//116 112//120
f 110//179 111//119 107//115
f 109//78 113//122 119//121
f 115//124 56//61 54//58
f 56//61 115//124 114//77
f 109//78 114//77 115//124
f 111//119 110//179 116//125
f 112//120 87//92 96//103
f 99//109 112//120 96//103
f 116//125 110//179 112//120
f 116//125 115//124 111//119
f 116//125 109//78 115//124
f 99//109 116//125 112//120
f 99//109 113//122 116//125
f 117//128 165//127 39//110
f 118//131 119//121 117//128
f 118//131 109//78 119//121
f 178//130 109//78 118//131
f 178//130 179//180 109//78
f 122//136 75//84 72//79
f 122//136 72//79 120//132
f 125//170 124//138 122//136
f 126//140 122//136 120//132
f 125//170 122//136 126//140
f 128//141 127//139 121//135
f 136//146 134//99 143//147
f 132//145 83//80 76//85
f 83//80 132//145 137//134
f 141//149 139//165 138//150
f 100//107 90//96 144//155
f 150//142 146//158 127//139
f 150//142 151//160 146//158
f 139//165 152//161 138//150
f 150//142 129//143 154//163
f 154//163 147//156 151//160
f 155//166 140//151 131//144
f 156//164 140//151 155//166
f 156//164 152//161 139//165
f 156//164 141//149 140//151
f 153//162 152//161 156//164
f 98//106 100//107 157//167
f 145//153 135//148 124//138
f 101//108 158//168 124//138
f 161//171 101//108 125//170
f 161//171 125//170 126//140
f 148//157 162//172 161//171
f 146//158 126//140 127//139
f 149//159 162//172 148//157
f 159//169 161//171 162//172
f 162//172 149//159 153//162
f 163//174 153//162 155//166
f 159//169 1//6 170//177
f 1//6 159//169 164//173
f 105//175 173//9 38//24
f 165//127 105//175 102//126
f 105//175 175//10 173//9
f 90//96 134//99 136//146
f 144//155 90//96 169//154
f 167//123 113//122 170//177
f 168//176 170//177 171//2
f 4//8 121//135 137//134
f 130//11 129//143 128//141
f 137//134 173//9 2//4
f 131//144 130//11 172//3
f 1//6 164//173 174//7
f 166//5 175//10 105//175
f 176//181 182//21 178//130
f 109//78 179//180 69//76
f 178//130 15//178 176//181
f 182//21 179//180 178//130
f 177//182 182//21 67//72
f 5//12 8//14 176//181
s 0
f 69//183 177//183 67//183
s 1
f 177//182 69//76 182//21
f 182//21 8//14 9//16
f 182//21 176//181 8//14
f 160//63 15//178 178//130
f 181//129 178//130 117//128
f 178//130 181//129 160//63
f 180//45 176//181 15//178
f 176//181 180//45 5//12
f 69//76 179//180 182//21
